<?xml version="1.0" encoding="UTF-8" standalone="no"?>
<!-- Generator: Adobe Illustrator 18.1.1, SVG Export Plug-In . SVG Version: 6.00 Build 0)  -->

<svg
   xmlns:dc="http://purl.org/dc/elements/1.1/"
   xmlns:cc="http://creativecommons.org/ns#"
   xmlns:rdf="http://www.w3.org/1999/02/22-rdf-syntax-ns#"
   xmlns:svg="http://www.w3.org/2000/svg"
   xmlns="http://www.w3.org/2000/svg"
   xmlns:sodipodi="http://sodipodi.sourceforge.net/DTD/sodipodi-0.dtd"
   xmlns:inkscape="http://www.inkscape.org/namespaces/inkscape"
   version="1.1"
   id="Слой_1"
   x="0px"
   y="0px"
   viewBox="0 0 184.425 69.489143"
   enable-background="new 0 0 254 128"
   xml:space="preserve"
   inkscape:version="0.91 r13725"
   sodipodi:docname="1бабочка.svg"
   width="184.425"
   height="69.489143"><metadata
     id="metadata9"><rdf:RDF><cc:Work
         rdf:about=""><dc:format>image/svg+xml</dc:format><dc:type
           rdf:resource="http://purl.org/dc/dcmitype/StillImage" /><dc:title></dc:title></cc:Work></rdf:RDF></metadata><defs
     id="defs7" /><sodipodi:namedview
     pagecolor="#ffffff"
     bordercolor="#666666"
     borderopacity="1"
     objecttolerance="10"
     gridtolerance="10"
     guidetolerance="10"
     inkscape:pageopacity="0"
     inkscape:pageshadow="2"
     inkscape:window-width="698"
     inkscape:window-height="480"
     id="namedview5"
     showgrid="false"
     fit-margin-top="0"
     fit-margin-left="0"
     fit-margin-right="0"
     fit-margin-bottom="0"
     inkscape:zoom="1.1732283"
     inkscape:cx="92.175"
     inkscape:cy="35.76366"
     inkscape:window-x="20"
     inkscape:window-y="57"
     inkscape:window-maximized="0"
     inkscape:current-layer="Слой_1" /><path
     d="m 184.275,33.425483 -17.1,-32.8999996 c -0.2,-0.4 -0.7,-0.6 -1.2,-0.5 L 92.175,21.825483 18.375,0.0254834 c -0.5,-0.1 -1,0.1 -1.2,0.5 L 0.075,33.425483 c -0.1,0.3 -0.1,0.6 0,0.9 l 17.1,34.6 c 0.2,0.4 0.7,0.7 1.2,0.5 l 73.4,-20.4 c 0.3,-0.1 0.6,-0.1 0.9,0 l 73.3,20.3 c 0.5,0.1 1,-0.1 1.2,-0.5 l 17.1,-34.5 c 0.2,-0.2 0.2,-0.6 0,-0.9 z"
     id="path3"
     inkscape:connector-curvature="0" /></svg>