<?xml version="1.0" encoding="utf-8"?>
<!-- Generator: Adobe Illustrator 18.1.1, SVG Export Plug-In . SVG Version: 6.00 Build 0)  -->
<svg version="1.1" xmlns="http://www.w3.org/2000/svg" xmlns:xlink="http://www.w3.org/1999/xlink" x="0px" y="0px"
	 viewBox="0 0 254 128" enable-background="new 0 0 254 128" xml:space="preserve">
<g id="Слой_1" display="none">
	<path display="inline" d="M219.1,63.7L202,30.8c-0.2-0.4-0.7-0.6-1.2-0.5L127,52.1L53.2,30.3c-0.5-0.1-1,0.1-1.2,0.5L34.9,63.7
		c-0.1,0.3-0.1,0.6,0,0.9L52,99.2c0.2,0.4,0.7,0.7,1.2,0.5l73.4-20.4c0.3-0.1,0.6-0.1,0.9,0l73.3,20.3c0.5,0.1,1-0.1,1.2-0.5
		l17.1-34.5C219.3,64.4,219.3,64,219.1,63.7z"/>
</g>
<g id="Слой_2">
	<path d="M207.8,34.2c0,0-6.5-2.5-33.4,5.8s-34.2,8.5-34.2,8.5h-24.4c0,0-7.3-0.2-34.2-8.5s-33.4-5.8-33.4-5.8
		c-10.3,21.1-2.7,60.7-2.7,60.7s7.4,3.4,35.4-6.9s47.1-8.7,47.1-8.7s19-1.6,47.1,8.7s35.4,6.9,35.4,6.9S218.1,55.3,207.8,34.2z"/>
</g>
</svg>
