<?xml version="1.0" encoding="utf-8"?>
<!-- Generator: Adobe Illustrator 18.1.1, SVG Export Plug-In . SVG Version: 6.00 Build 0)  -->
<svg version="1.1" xmlns="http://www.w3.org/2000/svg" xmlns:xlink="http://www.w3.org/1999/xlink" x="0px" y="0px"
	 viewBox="0 0 254 128" enable-background="new 0 0 254 128" xml:space="preserve">
<g id="Слой_1" display="none">
	<path display="inline" d="M219.1,63.7L202,30.8c-0.2-0.4-0.7-0.6-1.2-0.5L127,52.1L53.2,30.3c-0.5-0.1-1,0.1-1.2,0.5L34.9,63.7
		c-0.1,0.3-0.1,0.6,0,0.9L52,99.2c0.2,0.4,0.7,0.7,1.2,0.5l73.4-20.4c0.3-0.1,0.6-0.1,0.9,0l73.3,20.3c0.5,0.1,1-0.1,1.2-0.5
		l17.1-34.5C219.3,64.4,219.3,64,219.1,63.7z"/>
</g>
<g id="Слой_2" display="none">
	<path display="inline" d="M207.8,34.2c0,0-6.5-2.5-33.4,5.8s-34.2,8.5-34.2,8.5h-24.4c0,0-7.3-0.2-34.2-8.5s-33.4-5.8-33.4-5.8
		c-10.3,21.1-2.7,60.7-2.7,60.7s7.4,3.4,35.4-6.9s47.1-8.7,47.1-8.7s19-1.6,47.1,8.7s35.4,6.9,35.4,6.9S218.1,55.3,207.8,34.2z"/>
</g>
<g id="Слой_3" display="none">
	<path display="inline" d="M213.4,58.8l-17.4-26c-2.7-4.1-7.8-5.9-12.5-4.6c-8.7,2.5-30.4,9.7-44.9,23.1l-2.2,0.1
		c-0.1,0-0.2,0-0.3,0h-17.6c-0.2,0-0.4,0-0.6,0l-2.4-0.1C100.9,38,79.2,30.7,70.5,28.2c-4.7-1.4-9.8,0.5-12.5,4.6l-17.4,26
		c-2,3-2.5,6.8-1.2,10.1c6.3,17.3,14.5,27,18.9,31.2c2.6,2.5,6.3,3.6,9.8,3c25.6-4.5,41.5-15.8,47.5-20.8h0.4
		c0.8,0.3,1.6,0.5,2.5,0.5H136c0.8,0,1.7-0.2,2.4-0.5c6,5,21.9,16.3,47.4,20.8c3.6,0.6,7.2-0.5,9.8-3c4.4-4.3,12.7-14,18.9-31.2
		C215.9,65.6,215.4,61.8,213.4,58.8"/>
</g>
<g id="Слой_4">
	<path d="M209.5,64.8c0-0.9,0-1.7-0.1-2.6c-0.7-7.9-2.9-15.6-6.3-22.8c0,0-25,2.4-59.5,10.7L132.2,50v-0.1l-4.3,0.1l-4.3-0.1V50
		l-11.5,0.1c-34.5-8.3-59.5-10.7-59.5-10.7c-3.4,7.2-5.6,14.9-6.3,22.8c-0.1,0.9-0.1,1.8-0.1,2.6c0,0,0.1,2.6,0.2,3.9l0,0.2v0.1
		c0,0.4,0.1,0.7,0.1,1.1l0,0.2c0,0.4,0.1,0.7,0.2,1.1v0.1c0.1,0.4,0.1,0.7,0.2,1.1l0,0.2c0.1,0.4,0.1,0.7,0.2,1.1l0,0.2
		c0.1,0.4,0.1,0.7,0.2,1.1l0,0.1c0.1,0.4,0.2,0.8,0.3,1.1l0.1,0.2c0.1,0.4,0.2,0.8,0.3,1.2l0,0.2c0.1,0.4,0.2,0.7,0.3,1.1l0.1,0.2
		c0.1,0.4,0.2,0.8,0.3,1.2l0.1,0.2c0.1,0.4,0.2,0.8,0.4,1.2l0,0.1c0.1,0.4,0.3,0.8,0.4,1.1l0.1,0.2c0.1,0.4,0.3,0.8,0.4,1.2l0.1,0.2
		c0.2,0.4,0.3,0.8,0.5,1.2l0,0.1c0.2,0.4,0.3,0.8,0.5,1.2l0.1,0.2c0.2,0.4,0.3,0.8,0.5,1.2l0.1,0.2c0.2,0.4,0.4,0.8,0.6,1.3
		c0,0,10.3-1,26.7-3.9c2-0.4,4.1-0.7,6.3-1.1l2.7-0.5l1.4-0.3c2.3-0.4,4.6-0.9,7.1-1.4l3-0.6c2-0.4,4-0.9,6.1-1.4
		c2.1-0.5,4.2-1,6.4-1.5l11.5,0.1v0.1l4.3-0.1l4.3,0.1v-0.1l11.5-0.1c2.2,0.5,4.3,1,6.4,1.5c2.1,0.5,4.1,0.9,6.1,1.4l3,0.6
		c2.4,0.5,4.8,1,7.1,1.4l1.4,0.3l2.7,0.5c2.2,0.4,4.3,0.8,6.3,1.1c16.4,2.9,26.7,3.9,26.7,3.9c0.2-0.4,0.4-0.8,0.6-1.3l0.1-0.2
		c0.2-0.4,0.4-0.8,0.5-1.2l0.1-0.2c0.2-0.4,0.3-0.8,0.5-1.2l0-0.1c0.2-0.4,0.3-0.8,0.5-1.2l0.1-0.2c0.1-0.4,0.3-0.8,0.4-1.2l0.1-0.2
		c0.1-0.4,0.3-0.8,0.4-1.1l0-0.1c0.1-0.4,0.3-0.8,0.4-1.2l0.1-0.2c0.1-0.4,0.2-0.8,0.3-1.2l0-0.2c0.1-0.4,0.2-0.7,0.3-1.1l0-0.2
		c0.1-0.4,0.2-0.8,0.3-1.2l0.1-0.2c0.1-0.4,0.2-0.8,0.3-1.2l0-0.1c0.1-0.4,0.2-0.7,0.2-1.1l0-0.2c0.1-0.4,0.1-0.7,0.2-1.1l0-0.2
		c0.1-0.4,0.1-0.8,0.2-1.1v-0.1c0.1-0.4,0.1-0.7,0.2-1.1l0-0.2c0-0.4,0.1-0.7,0.1-1.1v-0.1l0-0.2C209.5,67.4,209.6,64.8,209.5,64.8z
		 M59,78.3c-3.5,0-6.4-6-6.4-13.4s2.9-13.4,6.4-13.4c3.5,0,6.4,6,6.4,13.4S62.6,78.3,59,78.3z M79.6,75.4c-3,0-5.5-4.7-5.5-10.6
		s2.5-10.6,5.5-10.6c3,0,5.5,4.7,5.5,10.6S82.7,75.4,79.6,75.4L79.6,75.4z M99.3,71.4c-2.6,0-4.7-2.9-4.7-6.6c0-3.6,2.1-6.6,4.7-6.6
		s4.7,2.9,4.7,6.6C104,68.5,101.9,71.4,99.3,71.4z M156.6,71.4c-2.6,0-4.7-2.9-4.7-6.6c0-3.6,2.1-6.6,4.7-6.6s4.7,2.9,4.7,6.6
		C161.4,68.5,159.2,71.4,156.6,71.4z M176.3,75.4c-3,0-5.5-4.7-5.5-10.6s2.5-10.6,5.5-10.6s5.5,4.7,5.5,10.6S179.3,75.4,176.3,75.4z
		 M196.9,78.3c-3.5,0-6.4-6-6.4-13.4s2.9-13.4,6.4-13.4s6.4,6,6.4,13.4S200.4,78.3,196.9,78.3z"/>
</g>
</svg>
