<svg id="svg4565" xmlns:rdf="http://www.w3.org/1999/02/22-rdf-syntax-ns#" style="stroke-linejoin:round;stroke-width:28.222;fill-rule:evenodd" xmlns="http://www.w3.org/2000/svg" xml:space="preserve" height="37.17mm" width="98.16mm" version="1.2" xmlns:ooo="http://xml.openoffice.org/svg/export" preserveAspectRatio="xMidYMid" xmlns:cc="http://creativecommons.org/ns#" viewBox="0 0 9815.9996 3716.9998" xmlns:dc="http://purl.org/dc/elements/1.1/"><defs><clipPath id="presentation_clip_path" clipPathUnits="userSpaceOnUse"><rect id="rect4570" y="0" x="0" height="29700" width="21000"/></clipPath></defs><metadata id="metadata4656"><rdf:RDF><cc:Work rdf:about=""><dc:format>image/svg+xml</dc:format><dc:type rdf:resource="http://purl.org/dc/dcmitype/StillImage"/><dc:title/></cc:Work></rdf:RDF></metadata><g id="g4607" transform="translate(-1)"><g id="id2" class="Master_Slide"/></g><g id="g4612" transform="translate(-1)" class="SlideGroup"><g id="g4614"><g id="id1" clip-path="url(#presentation_clip_path)" class="Slide"><g id="g4617" class="Page"><g id="g4619" class="com.sun.star.drawing.ClosedBezierShape"><g id="id3"><rect id="rect4622" style="fill:none" class="BoundingBox" height="3717" width="9816" y="0" x="1"/><path id="path4624" d="m9793 1790 12-7l-906-1746c-1-1-1-2-2-3-6-11-14-19-25-25-10-6-21-9-33-9-7 0-13 1-20 3l-3912 1154-3913-1154c-6-2-12-3-19-3-13 0-23 3-34 9-11 7-19 14-25 25 0 1-1 2-1 3l-907 1747c-5 10-7 20-7 31s2 21 7 31l908 1832c1 2 1 3 2 4 6 11 14 19 25 25s21 9 34 9c7 0 12-1 19-3l3891-1079h8 13 13 8l3891 1079c7 2 12 3 19 3 13 0 23-3 34-9s19-14 25-25c1-1 1-2 2-4l6-12 903-1820c5-10 7-19 7-31 0-11-2-20-7-30l-12 6-12 6c3 6 5 12 5 19s-2 12-5 18l-907 1833c-1 1-1 2-2 2-3 7-8 12-15 16-6 3-13 5-20 5-4 0-8 0-11-1l-3895-1082c-4-1-8-1-13-2h-15-15c-5 1-9 1-13 2l-3894 1081h2c-4 1-7 1-11 1-8 0-14-1-21-5-6-4-11-9-15-15 0-1 0-2-1-3l-908-1832c-3-6-4-12-4-19s1-13 4-19l907-1747c0-1 0-1 1-2 4-6 8-11 15-15 6-4 13-5 20-5 5 0 8 0 12 1l3920 1157 3922-1156c4-2 8-2 12-2 7 0 14 2 20 5 7 4 12 9 15 15 1 1 1 2 1 2l907 1747 10-6z"/></g></g><g id="g4626" class="com.sun.star.drawing.PolyPolygonShape"><g id="id4"><rect id="rect4629" style="fill:none" class="BoundingBox" height="928" width="101" y="1394" x="4232"/><path id="path4631" d="m4281 2321h-49v-927h99v927h-50z"/></g></g><g id="g4633" class="com.sun.star.drawing.PolyPolygonShape"><g id="id5"><rect id="rect4636" style="fill:none" class="BoundingBox" height="954" width="127" y="1381" x="4219"/><path id="path4638" d="m4331 2321v-13h-85v-900h72v913h13v-13 13h14v-940h-126v953h126v-13h-14z"/></g></g><g id="g4640" class="com.sun.star.drawing.PolyPolygonShape"><g id="id6"><rect id="rect4643" style="fill:none" class="BoundingBox" height="928" width="101" y="1394" x="5484"/><path id="path4645" d="m5533 2321h-49v-927h99v927h-50z"/></g></g><g id="g4647" class="com.sun.star.drawing.PolyPolygonShape"><g id="id7"><rect id="rect4650" style="fill:none" class="BoundingBox" height="954" width="126" y="1381" x="5470"/><path id="path4652" d="m5582 2321v-13h-85v-900h72v913h13v-13 13h13v-940h-125v953h125v-13h-13z"/></g></g></g></g></g></g></svg>
