<svg id="Слой_1" xmlns:rdf="http://www.w3.org/1999/02/22-rdf-syntax-ns#" xmlns="http://www.w3.org/2000/svg" enable-background="new 0 0 254 128" xml:space="preserve" viewBox="0 0 184.425 69.489143" height="69.489" width="184.42" version="1.1" y="0px" x="0px" xmlns:cc="http://creativecommons.org/ns#" xmlns:dc="http://purl.org/dc/elements/1.1/"><metadata id="metadata9"><rdf:RDF><cc:Work rdf:about=""><dc:format>image/svg+xml</dc:format><dc:type rdf:resource="http://purl.org/dc/dcmitype/StillImage"/><dc:title/></cc:Work></rdf:RDF></metadata><path id="path3" d="m184.28 33.425-17.1-32.9c-0.2-0.4-0.7-0.6-1.2-0.5l-73.805 21.8-73.8-21.8c-0.5-0.1-1 0.1-1.2 0.5l-17.1 32.9c-0.1 0.3-0.1 0.6 0 0.9l17.1 34.6c0.2 0.4 0.7 0.7 1.2 0.5l73.4-20.4c0.3-0.1 0.6-0.1 0.9 0l73.3 20.3c0.5 0.1 1-0.1 1.2-0.5l17.1-34.5c0.2-0.2 0.2-0.6 0-0.9z"/></svg>
