<svg id="svg5429" xmlns:rdf="http://www.w3.org/1999/02/22-rdf-syntax-ns#" style="stroke-linejoin:round;stroke-width:28.222;fill-rule:evenodd" xmlns="http://www.w3.org/2000/svg" xml:space="preserve" height="32.95mm" width="90.58mm" version="1.2" xmlns:ooo="http://xml.openoffice.org/svg/export" preserveAspectRatio="xMidYMid" xmlns:cc="http://creativecommons.org/ns#" viewBox="0 0 9057.9994 3294.9997" xmlns:dc="http://purl.org/dc/elements/1.1/"><defs><clipPath id="presentation_clip_path" clipPathUnits="userSpaceOnUse"><rect id="rect5434" y="0" x="0" height="29700" width="21000"/></clipPath></defs><metadata id="metadata5527"><rdf:RDF><cc:Work rdf:about=""><dc:format>image/svg+xml</dc:format><dc:type rdf:resource="http://purl.org/dc/dcmitype/StillImage"/><dc:title/></cc:Work></rdf:RDF></metadata><g id="g5471" transform="translate(-377,-4699)"><g id="id2" class="Master_Slide"/></g><g id="g5476" transform="translate(-377,-4699)" class="SlideGroup"><g id="g5478"><g id="id1" clip-path="url(#presentation_clip_path)" class="Slide"><g id="g5481" class="Page"><g id="g5483" class="com.sun.star.drawing.ClosedBezierShape"><g id="id3"><rect id="rect5486" style="fill:none" class="BoundingBox" height="3295" width="9058" y="4699" x="377"/><path id="path5488" d="m9137 4731 5-12c-2 0-51-19-186-19-227 0-697 52-1593 328-713 219-1165 332-1440 390-137 29-229 44-288 53-28 4-49 6-62 7h-15-4v14-14h-1293v14-14h-4c-46-2-468-38-1806-451-895-276-1365-328-1593-328-136 0-186 18-186 19l-5 2-2 5c-222 454-288 1067-288 1637 3 562 46 1038 144 1592v6l6 3c2 0 65 29 232 29 256 0 756-66 1656-396 1139-419 1999-468 2335-468 51 0 89 0 115 2l30 2h10 2 10c19 0 69-4 145-4 336 0 1195 49 2335 468 899 331 1399 396 1655 396 167 0 230-28 232-29l7-3v-6c97-554 140-1030 143-1592 0-570-65-1183-287-1637l-3-5-4-2-5 13-12 5c219 448 285 1058 285 1626-2 391-23 720-72 1108-18 146-36 266-49 349-7 42-12 74-16 96s-7 34-7 34l13 2-5-12c-2 0-62 27-221 27-251 0-749-65-1647-395-1142-421-2005-469-2344-469-102 0-156 4-157 4v13-13s-55-4-157-4c-338 0-1201 49-2344 469-897 330-1395 395-1646 395h-15c-56 0-103-4-158-14-13-2-25-5-38-9l-8-3h-2l-6 12 13-2s-2-12-6-34c-92-541-133-1005-137-1554 0-567 66-1177 285-1625l-8-6 5 13v-3 3-3 3s48-17 177-17c224 0 691 51 1585 326 1426 440 1813 452 1816 452h1295c2 0 389-12 1816-452 893-275 1361-326 1585-326h4c48 0 88 3 135 10 14 2 24 4 30 6l7 2h1v-3 3-3 3l5-13-12 6 12-7z"/></g></g><g id="g5490" class="com.sun.star.drawing.ClosedBezierShape"><g id="id4"><rect id="rect5493" style="fill:none" class="BoundingBox" height="16" width="188" y="5492" x="5066"/><path id="path5495" d="m5130 5503c1-1 2-1 3-2 10-6 19-9 30-9s20 3 29 8c8 3 15 4 23 4 13 0 24-3 35-10 1-1 2-1 3-2h-187c2 2 4 3 6 5 12 7 23 10 36 10 8 0 14-1 22-4z"/></g></g><g id="g5497" class="com.sun.star.drawing.ClosedBezierShape"><g id="id5"><rect id="rect5500" style="fill:none" class="BoundingBox" height="20" width="250" y="5491" x="4361"/><path id="path5502" d="m4537 5508c24 0 53 10 73-17h-249c49 13 91 18 141 18 12 0 23 0 35-1z"/></g></g><g id="g5504" class="com.sun.star.drawing.ClosedBezierShape"><g id="id6"><rect id="rect5507" style="fill:none" class="BoundingBox" height="26" width="46" y="5475" x="5649"/><path id="path5509" d="m5663 5497c5 4 22 3 23 0 2-7 6-15 8-22l-45 7v1c4 6 8 10 14 14z"/></g></g><g id="g5511" class="com.sun.star.drawing.PolyPolygonShape"><g id="id7"><rect id="rect5514" style="fill:none" class="BoundingBox" height="954" width="127" y="5825" x="4219"/><path id="path5516" d="m4331 6765v-13h-85v-900h72v913h13v-13 13h14v-940h-126v953h126v-13h-14z"/></g></g><g id="g5518" class="com.sun.star.drawing.PolyPolygonShape"><g id="id8"><rect id="rect5521" style="fill:none" class="BoundingBox" height="954" width="126" y="5825" x="5470"/><path id="path5523" d="m5582 6765v-13h-85v-900h72v913h13v-13 13h13v-940h-125v953h125v-13h-13z"/></g></g></g></g></g></g></svg>
