<svg id="svg6476" xmlns:rdf="http://www.w3.org/1999/02/22-rdf-syntax-ns#" style="stroke-linejoin:round;stroke-width:28.222;fill-rule:evenodd" xmlns="http://www.w3.org/2000/svg" xml:space="preserve" height="40.4mm" width="93.99mm" version="1.2" xmlns:ooo="http://xml.openoffice.org/svg/export" preserveAspectRatio="xMidYMid" xmlns:cc="http://creativecommons.org/ns#" viewBox="206 8990 9399 4040" xmlns:dc="http://purl.org/dc/elements/1.1/"><defs><clipPath id="presentation_clip_path" clipPathUnits="userSpaceOnUse"><rect id="rect6481" y="8990" x="206" height="4040" width="9399"/></clipPath></defs><metadata id="metadata6709"><rdf:RDF><cc:Work rdf:about=""><dc:format>image/svg+xml</dc:format><dc:type rdf:resource="http://purl.org/dc/dcmitype/StillImage"/><dc:title/></cc:Work></rdf:RDF></metadata><g id="g6518" class="SlideGroup"><g id="g6520"><g id="id1" clip-path="url(#presentation_clip_path)" class="Slide"><g id="g6523" class="Page"><g id="g6525" class="com.sun.star.drawing.ClosedBezierShape"><g id="id3"><rect id="rect6528" style="fill:none" class="BoundingBox" height="4041" width="9400" y="8990" x="206"/><path id="path6530" d="m9491 10652 11-8-924-1381c-55-82-118-142-204-191-97-56-193-82-305-82-61 0-113 7-171 25-463 132-1614 516-2389 1231l9 9v-13l-116 7v13-13h-19-932c-11 0-22 0-32 2v13-13l-127-8v13l9-9c-774-715-1926-1099-2388-1231-59-17-110-24-171-24-112 0-208 25-305 82-86 49-149 108-203 190l-925 1381c-7 12-14 22-21 34-56 98-82 195-82 308 0 75 11 138 36 209 334 917 774 1434 1007 1661 39 37 75 64 121 91 97 56 194 82 307 82v-13 13-13 13h1c37 0 68-3 105-9 1360-239 2206-840 2523-1105l-9-10v14h21v-14l-5 12c45 19 87 28 136 28h934 2c48 0 88-8 133-26l-6-13-8 10c318 266 1164 866 2523 1104 37 7 68 9 106 9 113 0 209-25 307-82 47-27 83-54 122-92 233-227 673-743 1007-1661 25-71 36-134 36-209 0-113-26-209-82-308-7-12-14-22-21-33l-11 7-12 8c8 11 14 21 21 33 54 93 79 186 79 294 0 71-11 132-35 199-331 914-770 1427-1e3 1651-37 35-71 61-115 87-94 54-186 79-294 79-36 0-66-3-101-9-1355-237-2195-835-2511-1098l-6-5-7 3c-42 17-80 25-125 25h-934c-46 0-84-8-126-27h-3-28l-3 4c-316 262-1157 861-2512 1098-35 6-65 9-101 9v13-13c-108 0-200-25-294-79-44-25-78-51-115-86-231-225-669-738-1e3 -1652-25-67-35-128-35-200 0-108 24-200 79-294 6-11 12-21 20-32l924-1381c52-79 112-135 194-183 93-54 185-78 292-78h1c58 0 107 7 162 23 461 133 1610 516 2378 1225l4 3 132 8c10 0 20-1 30-1h934 17l121-7 4-4c768-709 1917-1093 2378-1225 55-16 104-23 162-23 108 0 199 25 292 79 83 47 143 104 195 183l924 1381 11-7 3-1z"/></g></g><g id="g6532" class="com.sun.star.drawing.PolyPolygonShape"><g id="id4"><rect id="rect6535" style="fill:none" class="BoundingBox" height="954" width="127" y="10663" x="4218"/><path id="path6537" d="m4330 11603v-13h-85v-900h72v913h13v-13 13h14v-940h-126v953h126v-13h-14z"/></g></g><g id="g6539" class="com.sun.star.drawing.PolyPolygonShape"><g id="id5"><rect id="rect6542" style="fill:none" class="BoundingBox" height="954" width="126" y="10663" x="5469"/><path id="path6544" d="m5581 11603v-13h-85v-900h72v913h13v-13 13h13v-940h-125v953h125v-13h-13z"/></g></g><g id="g6546" class="com.sun.star.drawing.ClosedBezierShape"><g id="id6"><rect id="rect6549" style="fill:none" class="BoundingBox" height="332" width="223" y="9906" x="600"/><path id="path6551" d="m822 9906-222 331c10-7 21-14 31-22l186-280c2-10 3-19 4-29h1z"/></g></g><g id="g6553" class="com.sun.star.drawing.ClosedBezierShape"><g id="id7"><rect id="rect6556" style="fill:none" class="BoundingBox" height="442" width="1257" y="9004" x="1748"/><path id="path6558" d="m2933 9400c0 5 0 9-2 14l70 31c0-4 2-9 3-13l-71-32zm-979-360 10 17c147 43 346 107 574 194l-7-16c-230-88-431-152-577-195zm-203-36-3 13c35 0 64 3 99 9l-8-15c-31-4-57-7-88-7z"/></g></g><g id="g6560" class="com.sun.star.drawing.ClosedBezierShape"><g id="id8"><rect id="rect6563" style="fill:none" class="BoundingBox" height="40" width="71" y="9292" x="2673"/><path id="path6565" d="m2678 9292c-2 4-4 9-5 13l62 26c2-4 5-8 8-12l-65-27z"/></g></g><g id="g6567" class="com.sun.star.drawing.ClosedBezierShape"><g id="id9"><rect id="rect6570" style="fill:none" class="BoundingBox" height="645" width="378" y="11715" x="477"/><path id="path6572" d="m477 11715c55 113 104 207 167 316 69 118 130 216 208 328 0-7 0-14 2-21-74-107-133-201-199-314-61-106-110-198-163-308h-15v-1z"/></g></g><g id="g6574" class="com.sun.star.drawing.ClosedBezierShape"><g id="id10"><rect id="rect6577" style="fill:none" class="BoundingBox" height="155" width="386" y="12622" x="2684"/><path id="path6579" d="m3060 12622c-118 49-243 97-376 142l8 12c133-46 259-94 377-144l-9-10z"/></g></g><g id="g6581" class="com.sun.star.drawing.ClosedBezierShape"><g id="id11"><rect id="rect6584" style="fill:none" class="BoundingBox" height="79" width="216" y="12788" x="2404"/><path id="path6586" d="m2611 12788c-67 22-136 43-207 63 0 5 0 9 1 14 74-21 145-43 214-66l-9-11h1z"/></g></g><g id="g6588" class="com.sun.star.drawing.ClosedBezierShape"><g id="id12"><rect id="rect6591" style="fill:none" class="BoundingBox" height="752" width="127" y="10811" x="4218"/><path id="path6593" d="m4316 11177v368l27 17v-355c-9-10-18-20-27-29v-1zm-98-128v422c9 7 18 15 27 22v-405c-10-13-19-26-27-40v1zm27-232-27 4v12c8 25 17 49 27 73v-89zm99-6h-27v236c8 14 17 28 27 42v-277-1z"/></g></g><g id="g6595" class="com.sun.star.drawing.ClosedBezierShape"><g id="id13"><rect id="rect6598" style="fill:none" class="BoundingBox" height="18" width="139" y="11915" x="4402"/><path id="path6600" d="m4405 11915-3 13c17 3 31 4 48 4h90l-17-14h-73c-16 0-29-1-45-3z"/></g></g><g id="g6602" class="com.sun.star.drawing.PolyPolygonShape"><g id="id14"><rect id="rect6605" style="fill:none" class="BoundingBox" height="16" width="275" y="11918" x="4619"/><path id="path6607" d="m4883 11919h-264l12 14h262l-10-14z"/></g></g><g id="g6609" class="com.sun.star.drawing.ClosedBezierShape"><g id="id15"><rect id="rect6612" style="fill:none" class="BoundingBox" height="415" width="594" y="9004" x="8056"/><path id="path6614" d="m8452 9144c4 9 8 18 12 28 36 33 64 65 91 106l93 139c0-7 0-15 1-22l-83-124c-33-50-68-88-114-127zm-385-140h-11v13h12c108 0 199 25 293 78 15 10 28 18 43 29-6-10-13-20-20-29-6-4-11-7-17-11-95-55-189-80-299-80h-1z"/></g></g><g id="g6616" class="com.sun.star.drawing.ClosedBezierShape"><g id="id16"><rect id="rect6619" style="fill:none" class="BoundingBox" height="760" width="379" y="11318" x="9126"/><path id="path6621" d="m9501 11318c-15 36-29 66-48 101-92 224-183 408-304 618-8 14-15 26-23 40l20-9c5-7 8-13 12-20 141-244 244-458 346-720l-3-10z"/></g></g><g id="g6623" class="com.sun.star.drawing.ClosedBezierShape"><g id="id17"><rect id="rect6626" style="fill:none" class="BoundingBox" height="131" width="192" y="9835" x="3730"/><path id="path6628" d="m3745 9835-15 6c62 40 123 81 183 124l8-10c-58-41-116-81-176-120z"/></g></g><g id="g6630" class="com.sun.star.drawing.ClosedBezierShape"><g id="id18"><rect id="rect6633" style="fill:none" class="BoundingBox" height="148" width="253" y="9684" x="3477"/><path id="path6635" d="m3495 9684-18 5c79 45 157 92 235 142l17-5c-77-50-155-97-234-142z"/></g></g><g id="g6637" class="com.sun.star.drawing.ClosedBezierShape"><g id="id19"><rect id="rect6640" style="fill:none" class="BoundingBox" height="117" width="286" y="12896" x="8195"/><path id="path6642" d="m8469 12897c-14 10-26 18-41 26-75 44-147 67-233 77l8 12c85-10 155-34 230-77 16-10 30-19 46-30l-10-9v1z"/></g></g><g id="g6644" class="com.sun.star.drawing.ClosedBezierShape"><g id="id20"><rect id="rect6647" style="fill:none" class="BoundingBox" height="295" width="273" y="12579" x="8515"/><path id="path6649" d="m8776 12580c-77 95-147 172-234 257-9 9-18 18-27 26l9 10c9-9 19-17 28-27 88-86 158-162 235-257l-9-10-2 1z"/></g></g><g id="g6651" class="com.sun.star.drawing.ClosedBezierShape"><g id="id21"><rect id="rect6654" style="fill:none" class="BoundingBox" height="232" width="497" y="12470" x="6421"/><path id="path6656" d="m6421 12471c8 9 17 18 27 26 142 70 297 139 467 204l2-14c-181-69-346-143-495-217l-1 1z"/></g></g><g id="g6658" class="com.sun.star.drawing.ClosedBezierShape"><g id="id22"><rect id="rect6661" style="fill:none" class="BoundingBox" height="107" width="658" y="10171" x="4197"/><path id="path6663" d="m4845 10262h-250l16 13h242l-8-13zm-647-91c0 6 0 13 2 19 28 25 57 50 84 76l4 3 133 8c9 0 19-2 29-2h89l-25-13h-64c-10 0-21 0-31 1l-127-7c-31-29-63-57-95-85h1z"/></g></g><g id="g6665" class="com.sun.star.drawing.ClosedBezierShape"><g id="id23"><rect id="rect6668" style="fill:none" class="BoundingBox" height="61" width="59" y="10204" x="5522"/><path id="path6670" d="m5576 10204c-18 16-35 32-54 48 0 0 1 0 1 1 2 4 4 7 5 11 18-16 36-32 52-47-1-4-3-9-5-13h1z"/></g></g><g id="g6672" class="com.sun.star.drawing.ClosedBezierShape"><g id="id24"><rect id="rect6675" style="fill:none" class="BoundingBox" height="535" width="994" y="9741" x="5250"/><path id="path6677" d="m5330 10262h-80v13h77c1-5 2-9 3-13zm912-520-28 2c-156 93-283 178-427 288l-15 27c158-122 299-217 471-318l-1 1z"/></g></g><g id="g6679" class="com.sun.star.drawing.ClosedBezierShape"><g id="id25"><rect id="rect6682" style="fill:none" class="BoundingBox" height="205" width="477" y="9231" x="6815"/><path id="path6684" d="m7291 9231c-149 56-310 122-476 199l21 5c152-70 300-131 438-183l17-21z"/></g></g><g id="g6686" class="com.sun.star.drawing.ClosedBezierShape"><g id="id26"><rect id="rect6689" style="fill:none" class="BoundingBox" height="216" width="340" y="11889" x="5459"/><path id="path6691" d="m5653 12000-12 7c40 31 85 63 134 97h23c-53-37-101-72-144-104h-1zm-136-110-8 3c-17 8-32 13-50 17 0 4 1 9 2 13 19-4 35-10 53-17l49 39 13-6c-19-15-37-30-53-44l-6-5z"/></g></g><g id="g6693" class="com.sun.star.drawing.ClosedBezierShape"><g id="id27"><rect id="rect6696" style="fill:none" class="BoundingBox" height="156" width="105" y="11463" x="5491"/><path id="path6698" d="m5582 11604zm13-141c-9 9-18 19-27 29v98h-64l-12 27h103v-154z"/></g></g><g id="g6700" class="com.sun.star.drawing.ClosedBezierShape"><g id="id28"><rect id="rect6703" style="fill:none" class="BoundingBox" height="68" width="13" y="10832" x="9569"/><path id="path6705" d="m9570 10833v66l11-13c-3-18-7-36-12-54l1 1z"/></g></g></g></g></g></g></svg>
