<?xml version="1.0" encoding="UTF-8"?>
<!DOCTYPE svg PUBLIC "-//W3C//DTD SVG 1.1//EN" "http://www.w3.org/Graphics/SVG/1.1/DTD/svg11.dtd">
<svg version="1.2" width="86.56mm" height="28.4mm" viewBox="894 14145 8656 2840" preserveAspectRatio="xMidYMid" fill-rule="evenodd" stroke-width="28.222" stroke-linejoin="round" xmlns="http://www.w3.org/2000/svg" xmlns:ooo="http://xml.openoffice.org/svg/export" xmlns:xlink="http://www.w3.org/1999/xlink" xmlns:presentation="http://sun.com/xmlns/staroffice/presentation" xmlns:smil="http://www.w3.org/2001/SMIL20/" xmlns:anim="urn:oasis:names:tc:opendocument:xmlns:animation:1.0" xml:space="preserve">
 <defs class="ClipPathGroup">
  <clipPath id="presentation_clip_path" clipPathUnits="userSpaceOnUse">
   <rect x="894" y="14145" width="8656" height="2840"/>
  </clipPath>
 </defs>
 <defs class="TextShapeIndex">
  <g ooo:slide="id1" ooo:id-list="id3 id4 id5 id6 id7"/>
 </defs>
 <defs class="EmbeddedBulletChars">
  <g id="bullet-char-template(57356)" transform="scale(0.00048828125,-0.00048828125)">
   <path d="M 580,1141 L 1163,571 580,0 -4,571 580,1141 Z"/>
  </g>
  <g id="bullet-char-template(57354)" transform="scale(0.00048828125,-0.00048828125)">
   <path d="M 8,1128 L 1137,1128 1137,0 8,0 8,1128 Z"/>
  </g>
  <g id="bullet-char-template(10146)" transform="scale(0.00048828125,-0.00048828125)">
   <path d="M 174,0 L 602,739 174,1481 1456,739 174,0 Z M 1358,739 L 309,1346 659,739 1358,739 Z"/>
  </g>
  <g id="bullet-char-template(10132)" transform="scale(0.00048828125,-0.00048828125)">
   <path d="M 2015,739 L 1276,0 717,0 1260,543 174,543 174,936 1260,936 717,1481 1274,1481 2015,739 Z"/>
  </g>
  <g id="bullet-char-template(10007)" transform="scale(0.00048828125,-0.00048828125)">
   <path d="M 0,-2 C -7,14 -16,27 -25,37 L 356,567 C 262,823 215,952 215,954 215,979 228,992 255,992 264,992 276,990 289,987 310,991 331,999 354,1012 L 381,999 492,748 772,1049 836,1024 860,1049 C 881,1039 901,1025 922,1006 886,937 835,863 770,784 769,783 710,716 594,584 L 774,223 C 774,196 753,168 711,139 L 727,119 C 717,90 699,76 672,76 641,76 570,178 457,381 L 164,-76 C 142,-110 111,-127 72,-127 30,-127 9,-110 8,-76 1,-67 -2,-52 -2,-32 -2,-23 -1,-13 0,-2 Z"/>
  </g>
  <g id="bullet-char-template(10004)" transform="scale(0.00048828125,-0.00048828125)">
   <path d="M 285,-33 C 182,-33 111,30 74,156 52,228 41,333 41,471 41,549 55,616 82,672 116,743 169,778 240,778 293,778 328,747 346,684 L 369,508 C 377,444 397,411 428,410 L 1163,1116 C 1174,1127 1196,1133 1229,1133 1271,1133 1292,1118 1292,1087 L 1292,965 C 1292,929 1282,901 1262,881 L 442,47 C 390,-6 338,-33 285,-33 Z"/>
  </g>
  <g id="bullet-char-template(9679)" transform="scale(0.00048828125,-0.00048828125)">
   <path d="M 813,0 C 632,0 489,54 383,161 276,268 223,411 223,592 223,773 276,916 383,1023 489,1130 632,1184 813,1184 992,1184 1136,1130 1245,1023 1353,916 1407,772 1407,592 1407,412 1353,268 1245,161 1136,54 992,0 813,0 Z"/>
  </g>
  <g id="bullet-char-template(8226)" transform="scale(0.00048828125,-0.00048828125)">
   <path d="M 346,457 C 273,457 209,483 155,535 101,586 74,649 74,723 74,796 101,859 155,911 209,963 273,989 346,989 419,989 480,963 531,910 582,859 608,796 608,723 608,648 583,586 532,535 482,483 420,457 346,457 Z"/>
  </g>
  <g id="bullet-char-template(8211)" transform="scale(0.00048828125,-0.00048828125)">
   <path d="M -4,459 L 1135,459 1135,606 -4,606 -4,459 Z"/>
  </g>
 </defs>
 <defs class="TextEmbeddedBitmaps"/>
 <g class="SlideGroup">
  <g>
   <g id="id1" class="Slide" clip-path="url(#presentation_clip_path)">
    <g class="Page">
     <g class="com.sun.star.drawing.ClosedBezierShape">
      <g id="id3">
       <rect class="BoundingBox" stroke="none" fill="none" x="894" y="14144" width="8657" height="2843"/>
       <path fill="rgb(0,0,0)" stroke="none" d="M 9549,15636 C 9549,15591 9549,15544 9545,15497 L 9545,15497 C 9505,15055 9403,14687 9211,14287 9019,13887 7886,14413 6056,14855 L 5449,14848 5449,14843 5221,14845 4993,14843 4993,14848 4386,14855 C 2556,14413 1232,14287 1232,14287 1040,14687 939,15055 898,15497 895,15544 894,15591 894,15636 893,15636 898,15773 905,15843 L 907,15856 907,15861 C 909,15880 911,15899 914,15918 L 915,15929 C 918,15947 920,15966 923,15985 L 923,15990 C 926,16010 929,16029 933,16049 L 935,16061 C 938,16081 942,16101 946,16121 L 947,16131 C 951,16149 955,16169 959,16188 L 961,16195 C 965,16215 970,16235 975,16256 L 977,16268 C 982,16289 987,16309 993,16329 L 995,16338 C 1000,16357 1005,16377 1010,16396 L 1013,16405 C 1019,16426 1025,16447 1031,16468 L 1035,16481 C 1041,16502 1048,16522 1055,16544 L 1057,16550 C 1064,16570 1071,16590 1078,16610 L 1081,16621 C 1089,16642 1096,16663 1104,16684 L 1109,16697 C 1117,16719 1126,16741 1134,16762 L 1136,16766 C 1144,16787 1153,16808 1162,16829 L 1167,16841 C 1176,16863 1186,16884 1195,16906 L 1201,16918 C 1211,16941 1221,16963 1232,16985 1232,16985 1776,16932 2648,16780 2754,16761 2865,16741 2981,16719 L 3122,16693 3194,16679 C 3315,16655 3440,16630 3569,16603 L 3726,16569 C 3832,16546 3940,16522 4050,16497 4159,16472 4272,16445 4387,16417 L 4994,16425 4994,16430 5222,16427 5449,16430 5449,16425 6057,16417 C 6171,16445 6284,16472 6394,16497 6504,16523 6612,16547 6718,16569 L 6875,16603 C 7004,16630 7129,16655 7250,16679 L 7322,16693 7463,16719 C 7579,16741 7690,16761 7796,16780 8668,16933 9212,16985 9212,16985 9222,16963 9233,16941 9243,16918 L 9248,16906 C 9258,16884 9267,16863 9276,16841 L 9281,16829 C 9290,16808 9299,16787 9308,16766 L 9309,16762 C 9318,16741 9326,16719 9334,16697 L 9339,16684 C 9347,16663 9355,16642 9362,16621 L 9366,16610 C 9373,16590 9379,16570 9386,16550 L 9388,16544 C 9395,16522 9402,16501 9408,16480 L 9412,16467 C 9418,16447 9424,16426 9430,16405 L 9433,16396 C 9438,16377 9443,16357 9448,16338 L 9450,16329 C 9456,16309 9461,16288 9466,16268 L 9469,16255 C 9473,16235 9478,16214 9482,16194 L 9484,16187 C 9488,16168 9492,16149 9495,16130 L 9497,16120 C 9501,16100 9505,16081 9508,16061 L 9510,16049 C 9514,16029 9517,16009 9520,15989 L 9520,15985 C 9523,15966 9526,15947 9528,15928 L 9530,15917 C 9532,15898 9535,15879 9537,15860 L 9537,15855 9538,15842 C 9546,15773 9551,15636 9549,15636 Z M 1566,16350 C 1377,16350 1225,16031 1225,15636 1225,15242 1377,14923 1566,14923 1754,14923 1906,15242 1906,15636 1906,16031 1754,16350 1566,16350 Z M 2658,16197 C 2497,16197 2366,15946 2366,15636 2366,15327 2496,15076 2658,15076 2820,15076 2950,15327 2950,15636 2950,15946 2819,16197 2658,16197 Z M 3701,15986 C 3562,15986 3449,15830 3449,15637 3449,15444 3562,15287 3701,15287 3840,15287 3952,15444 3952,15637 3952,15830 3840,15986 3701,15986 Z M 6742,15986 C 6603,15986 6490,15830 6490,15637 6490,15444 6603,15287 6742,15287 6881,15287 6993,15444 6993,15637 6993,15830 6881,15986 6742,15986 Z M 7785,16197 C 7624,16197 7493,15946 7493,15636 7493,15327 7623,15076 7785,15076 7946,15076 8077,15327 8077,15636 8077,15946 7946,16197 7785,16197 Z M 8877,16350 C 8689,16350 8536,16031 8536,15636 8536,15242 8689,14923 8877,14923 9065,14923 9218,15242 9218,15636 9218,16031 9066,16350 8877,16350 Z"/>
      </g>
     </g>
     <g class="com.sun.star.drawing.PolyPolygonShape">
      <g id="id4">
       <rect class="BoundingBox" stroke="none" fill="none" x="4533" y="15243" width="127" height="954"/>
       <path fill="rgb(0,0,0)" stroke="none" d="M 4645,16183 L 4645,16170 4560,16170 4560,15270 4632,15270 4632,16183 4645,16183 4645,16170 4645,16183 4659,16183 4659,15243 4533,15243 4533,16196 4659,16196 4659,16183 4645,16183 Z"/>
      </g>
     </g>
     <g class="com.sun.star.drawing.PolyPolygonShape">
      <g id="id5">
       <rect class="BoundingBox" stroke="none" fill="none" x="5784" y="15243" width="126" height="954"/>
       <path fill="rgb(0,0,0)" stroke="none" d="M 5896,16183 L 5896,16170 5811,16170 5811,15270 5883,15270 5883,16183 5896,16183 5896,16170 5896,16183 5909,16183 5909,15243 5784,15243 5784,16196 5909,16196 5909,16183 5896,16183 Z"/>
      </g>
     </g>
     <g class="com.sun.star.drawing.PolyPolygonShape">
      <g id="id6">
       <rect class="BoundingBox" stroke="none" fill="none" x="4533" y="15243" width="127" height="954"/>
       <path fill="rgb(0,0,0)" stroke="none" d="M 4645,16183 L 4645,16170 4560,16170 4560,15270 4632,15270 4632,16183 4645,16183 4645,16170 4645,16183 4659,16183 4659,15243 4533,15243 4533,16196 4659,16196 4659,16183 4645,16183 Z"/>
      </g>
     </g>
     <g class="com.sun.star.drawing.PolyPolygonShape">
      <g id="id7">
       <rect class="BoundingBox" stroke="none" fill="none" x="5784" y="15243" width="126" height="954"/>
       <path fill="rgb(0,0,0)" stroke="none" d="M 5896,16183 L 5896,16170 5811,16170 5811,15270 5883,15270 5883,16183 5896,16183 5896,16170 5896,16183 5909,16183 5909,15243 5784,15243 5784,16196 5909,16196 5909,16183 5896,16183 Z"/>
      </g>
     </g>
    </g>
   </g>
  </g>
 </g>
</svg>