<svg id="svg5094" xmlns:rdf="http://www.w3.org/1999/02/22-rdf-syntax-ns#" xmlns="http://www.w3.org/2000/svg" height="17.021mm" width="56.713mm" version="1.1" xmlns:cc="http://creativecommons.org/ns#" xmlns:dc="http://purl.org/dc/elements/1.1/" viewBox="0 0 200.95286 60.31017">
 <metadata id="metadata5099">
  <rdf:RDF>
   <cc:Work rdf:about="">
    <dc:format>image/svg+xml</dc:format>
    <dc:type rdf:resource="http://purl.org/dc/dcmitype/StillImage"/>
    <dc:title/>
   </cc:Work>
  </rdf:RDF>
 </metadata>
 <g id="layer1" transform="translate(-19.764 -19.35)">
  <g id="g45" transform="translate(-543.15 -460.82)">
   <path id="path47" style="fill:#e96c4e" d="m607 496.6c-1.7-1-2.4-0.5-3.8 0.7-2.7 2.2-5.3 4.7-7.6 7.2-1.4 1.5-2.6 3.1-4 4.5-0.5 0.5-2.7 3.2-3.3 3.3-1.2 0.1-4.4-6.4-4.7-6.9-2-3.4-6.2-1-8.7 1-1.7 1.4-2.2 2.2-1.5 4.1 0.7 2.1 2.2 4.2 3.8 6 1.7 3.2 4 6.2 6.1 8.6 3.9 4.4 6.7 1.3 9.9-2.4 5.3-6.1 11-11.7 16.3-17.7 2.6-3 0.8-6.5-2.5-8.4zm-1.6 8.7c-0.5 0.5-1 1.1-1.5 1.6 0-0.7-0.2-1.4-0.6-2-0.2-0.2-0.5 0-0.4 0.2 0.4 0.6 0.5 1.4 0.5 2.2-1 1-1.9 2-2.9 3.1 0.1-0.4 0.1-0.8 0.2-1.1 0.2-0.8 0.5-1.4 0.6-2.2 0-0.3-0.5-0.3-0.5 0-0.1 0.7-0.4 1.4-0.6 2.1-0.2 0.6-0.2 1.3-0.5 1.9-0.1 0.1 0 0.2 0 0.3-0.6 0.7-1.3 1.4-1.9 2.1 0.1-1.1 0.4-2.3 0.5-3.4 0-0.2-0.3-0.2-0.3 0-0.1 1.3-0.6 2.6-0.6 3.9-1 1.1-2 2.3-3 3.4l-0.2 0.2c0.1-0.3 0.1-0.5 0.2-0.8 0.2-1.1 0.5-2.1 0.8-3.2 0.1-0.3-0.4-0.4-0.5-0.1-0.4 1.2-0.7 2.4-1 3.6-0.1 0.5-0.3 1-0.4 1.5-1.2 1.6-2.5 3.4-4 4.5-0.3 0.2-0.5 0.4-0.8 0.5-0.3-1 0.6-2.2 0.7-3.1 0-0.2-0.3-0.3-0.4 0-0.1 1-1.2 2.3-0.7 3.4-1.7 0.7-3 0-4.3-1.5 0.2-1.7 0.5-3.3 1-5 0.1-0.2-0.2-0.3-0.3-0.1-0.5 1.5-0.9 3-1.1 4.6-0.6-0.8-1.3-1.6-2-2.4 0.2-1.4 0.4-2.8 0.7-4.2 0-0.2-0.2-0.3-0.3-0.1-0.3 1.2-0.7 2.5-0.8 3.8-0.1-0.1-0.2-0.2-0.2-0.3 0.3-0.4 0.3-0.9-0.1-1.3-0.2-0.2-0.5-0.5-0.7-0.8 0.2-1.5 0.9-2.8 0.8-4.3 0-0.2-0.3-0.2-0.3 0 0.1 1.4-0.6 2.6-0.9 3.9-0.5-0.5-1-1.1-1.4-1.7v-0.1c0.5-1.6 1-3.3 1.1-5 0-0.3-0.4-0.3-0.4 0-0.2 1.6-0.6 3.1-1.1 4.6-0.7-1-1.4-2.1-1.8-3.2-1.1-2.7 0.4-2.9 3-4.1l1.6-0.7c1 0.2 2.2 2.8 2.8 3.6 0.9 1.3 1.8 3.4 3.1 4.3 1.8 1.4 2.8 0.3 4.2-1 3.5-3.5 6.6-7.4 10.2-10.8 1.4-1.3 3.4-3.8 5.5-2.9 3.4 1.5 0.5 4.6-1 6.1z"/>
   <path id="path49" style="fill:#e96c4e" d="m586.4 517.8c0-0.2-0.4-0.1-0.4 0.1 0.3 1.8 0.1 3.6-0.4 5.4-0.1 0.3 0.4 0.5 0.5 0.1 0.5-1.8 0.7-3.7 0.3-5.6z"/>
  </g>
  <g id="g51" transform="translate(-543.15 -460.82)">
   <g id="g53">
    <path id="path55" style="fill:#198fa1" d="m625.9 509.8c-2 2-3.9 4.1-5.5 6.4-0.2 0.3 0.3 0.5 0.4 0.3 1.6-2.3 3.5-4.3 5.4-6.3 0.2-0.3-0.1-0.6-0.3-0.4z"/>
    <path id="path57" style="fill:#198fa1" d="m626.1 521.6c-1.3 1.3-2.5 2.5-3.7 3.9-0.7 0.8-1.7 1.6-2 2.7-0.1 0.3 0.4 0.5 0.5 0.1 0.3-1.2 1.7-2.3 2.5-3.2 1-1.1 2-2.2 3.1-3.2 0.1-0.2-0.2-0.5-0.4-0.3z"/>
    <path id="path59" style="fill:#198fa1" d="m626.6 524.2c-1.8 2-3.7 3.9-5.5 5.8-0.2 0.2 0.1 0.6 0.4 0.4 1.8-2 3.6-3.9 5.4-5.9 0.1-0.2-0.2-0.5-0.3-0.3z"/>
    <path id="path61" style="fill:#198fa1" d="m623.6 529.7c-0.3 0.4-0.6 0.9-0.9 1.3-0.2 0.3 0.3 0.6 0.5 0.3 0.3-0.4 0.6-0.9 0.9-1.3 0.2-0.4-0.3-0.6-0.5-0.3z"/>
    <path id="path63" style="fill:#198fa1" d="m759.8 482.5c-1.9-0.7-4.3-0.8-6.7-0.6-22.4 0.1-44.7 0.3-67.1-0.5-11.6-0.4-23.1-1-34.8-0.7-6.1 0.2-12.2 0.4-18.3 0.9-4.6 0.3-9.4 0.9-14 0.6-1.6-1.6-4.4-1.6-6.6-1.7-5-0.3-10.1-0.3-15.1-0.3-10.1-0.1-20.6 0-30.6 1.6-0.1 0-0.2 0.1-0.3 0.1-0.9 0.2-1.6 0.7-2 1.8-0.5 1.4-0.1 3.2-0.1 4.7 0.1 2.3 0.1 4.6-0.1 6.9-0.5 10.2-0.9 20.4-0.9 30.6 0 3.1-0.8 7.3 0.3 10.2 1 2.6 4.9 3.2 7.2 3.5 4.4 0.7 8.8 0.4 13.2 0.6 4.6 0.2 9.1 0.4 13.7 0.2 5.2-0.2 10.4-0.5 15.5-0.8 1.3-0.1 2.7 0.1 4-0.1 12.4 0.1 24.8 0.3 37.1-0.1 14.7-0.5 29.6 0.4 44.4 0.8 15.1 0.4 30.1-0.6 45.2 0 3.1 0.1 6.1 0.1 9.2 0.1 2.1 0 4.6 0.3 6.5-0.9 2.2-1.4 2.7-3.8 2.5-6.2 2.1-12.5 1.3-25.9 1.7-38.6 0.2-4.3 1-10.2-3.9-12.1zm-142.4 45.8c0 1.6 0.1 3.3 0.1 4.9s0.3 2.7-0.8 3.2c-0.5 0.3-1.4 0.4-2.3 0.4l0.3-0.6c0.1-0.2-0.2-0.4-0.3-0.2-0.1 0.3-0.3 0.5-0.4 0.8-1.1 0-2.3-0.1-3.1 0-0.4 0-0.8 0.1-1.2 0.1 0.6-1 1.3-1.9 1.9-2.8 0.2-0.2-0.2-0.5-0.4-0.2-0.7 1.1-1.5 2-2.1 3.1-0.9 0.1-1.8 0.2-2.6 0.3 0.8-1.1 1.6-2.3 2.3-3.4 0.2-0.2-0.2-0.5-0.4-0.2-0.9 1.2-1.7 2.5-2.6 3.6-0.8 0.1-1.6 0.1-2.4 0.2h-0.3c0.5-1.1 1.1-2 1.8-2.9 0.2-0.2-0.2-0.5-0.4-0.2-0.7 1-1.5 2-2 3.2-1.8 0.1-3.6 0.1-5.5 0.1 0.6-1.1 1.3-2.1 1.9-3.1 0.2-0.2-0.2-0.5-0.4-0.2-0.7 1.1-1.5 2.1-2.1 3.3h-3.1c0.6-0.8 1.1-1.6 1.6-2.5 0.1-0.2-0.2-0.4-0.3-0.2-0.6 0.9-1.2 1.8-1.9 2.7h-3s0.1 0 0.1-0.1c0.6-1.1 1-2.3 1.9-3.2 0.2-0.2-0.1-0.5-0.3-0.3-0.9 0.9-1.7 2.1-2 3.4 0 0.1 0.1 0.4 0.2 0.4-2.9 0-5.8 0.2-8.6 0.2h-0.1c0.6-1 1.1-2.3 1.8-3.2 0.1-0.2-0.2-0.5-0.3-0.3-0.7 1-1.4 1.9-2 2.9-1.7 0-3.4 0-5.2-0.1 0.2 0 0.2-0.3 0.1-0.4 0.3-0.8 1-1.5 1.5-2.1 0.2-0.2-0.1-0.5-0.3-0.3-0.7 0.8-1.5 1.5-1.8 2.5v0.2c-1.8-0.1-3.6-0.4-5.3-0.8-2.6-0.7-2.9-0.7-3.1-3-0.1-1.3-0.1-2.7-0.1-4 0.1 0 0.1 0 0.2-0.1 1.3-1.8 2.4-3.7 3.4-5.7 0.1-0.2-0.2-0.4-0.3-0.2-1 1.8-2.1 3.5-3.3 5.2v-1.3-2c1.2-1.6 2.2-3.2 3.5-4.7 0.2-0.2-0.1-0.5-0.3-0.3-1.1 1.3-2.2 2.6-3.2 4.1 0-1 0-2 0.1-3.1 0.7-1 1.4-2.1 2.1-3.1 0.1-0.2-0.2-0.4-0.3-0.2-0.6 0.9-1.2 1.7-1.8 2.5 0-1.2 0.1-2.4 0.1-3.5 0.3-0.4 0.6-0.8 0.9-1.2 0.6-0.9 1.2-1.9 1.8-2.8 0.1-0.2-0.2-0.4-0.3-0.2-0.7 1-1.4 2.1-2.1 3.1-0.1 0.1-0.1 0.2-0.2 0.3 0-0.9 0.1-1.9 0.1-2.8 1.3-1.9 2.7-3.6 4.1-5.4 0.1-0.2-0.2-0.4-0.3-0.2-1.2 1.6-2.5 3.1-3.7 4.7 0-0.7 0-1.4 0.1-2.1 0.4-0.6 0.8-1.2 1.3-1.8 0.9-1.2 1.7-2.3 2.5-3.5 0.2-0.2-0.2-0.5-0.4-0.2-1.1 1.5-2.2 3.1-3.4 4.6 0-0.8 0-1.7 0.1-2.5 1-1.4 2-2.7 3-4.1 0.1-0.2-0.2-0.4-0.3-0.3-0.9 1.2-1.8 2.3-2.7 3.5v-1.8c0.7-1 1.5-2 2.3-2.9 0.2-0.2-0.1-0.5-0.3-0.3-0.7 0.8-1.3 1.6-2 2.4v-2.2c1-1.8 2.3-3.4 3.6-5 0.1-0.2-0.2-0.4-0.3-0.2-1.1 1.4-2.3 2.8-3.2 4.3 0-0.9 0-1.9 0.1-2.8 1.2-2.1 3.3-3.8 4.1-6.1 0.1-0.2-0.2-0.2-0.3-0.1-0.7 2-2.6 3.5-3.8 5.3v-2.6c0.8-1 1.6-2 2.4-3.1 0.1-0.2-0.2-0.4-0.3-0.2-0.7 0.9-1.4 1.7-2.1 2.6v-2.4-0.1c0.1 0 0.1 0 0.2-0.1 1.3-1.8 2.7-3.6 3.9-5.5 0.1-0.2-0.2-0.3-0.3-0.2-1.2 1.8-2.5 3.6-3.8 5.3-0.1-1.9-0.8-4.4 0.5-5.7 0.5-0.5 1.3-0.8 2.1-0.9 0.4 0 0.8-0.1 1.2-0.1h3.5c4.1-0.3 8.2-0.5 12.3-0.8 8.4-0.2 16.9-0.1 25.2 0.3 2.9 0.1 4.9 0 5.6 3.2 0.4 1.6 0.3 3.6 0.3 5.3 0 4-0.4 8-0.6 12.1-0.7 7.9 0 16.3 0.2 24.4zm143-33.8l-0.3 8.4c-0.3 7.6 0.1 15.5-0.5 23.2-0.4 0.1-0.7 0.4-0.7 0.9-0.1 1.5 0.1 3.3 0 4.9-0.1 0.5-0.2 1-0.2 1.5v0.4c-0.4 1.4-1.2 2.5-2.8 3.2-1.3 0.6-3.6 0.3-5.7 0.1 1.9-0.8 3.7-2.4 5.8-2.6 0.3 0 0.3-0.5 0-0.5-2.6-0.1-4.6 2.5-7.1 3-0.5 0-1-0.1-1.4-0.1h-2.5c2.3-0.8 4.5-1.7 6.7-2.6 0.3-0.1 0.1-0.6-0.2-0.4-2.4 1-4.7 2-7.1 2.9-0.1 0-0.1 0.1-0.1 0.2h-3.1c2.4-1.1 4.8-2.2 7.3-3.2 0.3-0.1 0.2-0.6-0.1-0.5-2.8 1.1-5.5 2.4-8.2 3.7-1.3 0-2.6 0-4-0.1 2.5-1.1 5-2.3 7.5-3.4 0.3-0.1 0.2-0.7-0.2-0.5-2.9 1.2-5.8 2.6-8.6 3.9h-2.5c2.6-1.3 5.3-2.5 7.8-4.1 0.3-0.2 0-0.6-0.2-0.4-2.8 1.7-5.7 3-8.5 4.5h-2.2-2.5c2.9-1.3 5.9-2.7 8.7-4.3 0.3-0.2 0-0.6-0.3-0.5-3.2 1.7-6.3 3.3-9.6 4.8h-3.2c2.7-1.5 5.5-2.9 8-4.6 0.3-0.2 0-0.7-0.3-0.5-2.9 1.8-5.8 3.3-8.7 5.1h-4c3.4-1.6 6.6-3.4 10-5.1 0.3-0.2 0-0.6-0.3-0.5-3.7 1.7-7.1 3.8-10.7 5.5h-4.6c1-0.5 2-1.1 2.9-1.6 2.2-1.1 4.3-2.3 6.5-3.2 0.3-0.1 0-0.6-0.3-0.5-2 0.9-3.9 1.9-5.8 2.9-1.5 0.8-3 1.8-4.6 2.4h-2.5c2.1-1.2 4.2-2.4 6.4-3.5 0.3-0.2 0-0.6-0.3-0.5-2.3 1.3-4.7 2.7-7 4h-2.4c1.9-1 3.7-2 5.7-2.9 0.3-0.1 0-0.5-0.2-0.4-2.1 1-4.1 2.2-6.2 3.3h-3.9c1.7-0.9 3.3-1.8 5-2.6 0.3-0.2 0-0.6-0.3-0.5-2 1-3.9 2.1-5.8 3.1h-3.5c0.1-0.1 0.3-0.2 0.4-0.3 1.2-0.7 2.5-1.3 3.7-1.9 0.3-0.1 0-0.6-0.3-0.5-1.1 0.5-2.1 1-3.1 1.6-0.6 0.3-1.2 0.7-1.8 1h-3.2c2.1-1.1 4.1-2.4 6.2-3.7 0.2-0.1 0-0.5-0.2-0.4-2.2 1.4-4.4 2.9-6.7 4.1h-2.2c-1.9 0-3.9-0.1-5.8-0.1 2-1.2 4-2.5 6-3.7 0.3-0.2 0-0.6-0.2-0.4-2.2 1.4-4.3 2.8-6.5 4.1-1.2 0-2.4-0.1-3.6-0.1 2.3-1.3 4.5-2.5 6.7-4 0.2-0.1 0-0.5-0.2-0.3-2.3 1.6-4.8 2.9-7.2 4.4-1.1 0-2.2-0.1-3.3-0.1 1.4-0.9 2.7-1.8 4.1-2.6 0.2-0.1 0-0.5-0.2-0.4-1.6 0.9-3.1 2-4.6 2.9-1.1 0-2.1-0.1-3.2-0.1 1.4-0.9 2.9-1.8 4.3-2.7 0.2-0.1 0-0.5-0.2-0.4l-4.8 3h-0.4-2.6c1.3-0.9 2.6-1.7 3.9-2.6 0.3-0.2 0-0.6-0.3-0.4l-4.5 3h-3.4l2.7-1.8c0.2-0.2 0-0.5-0.2-0.4-1.1 0.7-2.1 1.4-3.2 2.1-1.5 0-3 0.1-4.5 0.1l2.7-1.8c0.3-0.2 0-0.6-0.3-0.4-1.1 0.8-2.2 1.6-3.4 2.3-1.5 0-2.9 0.1-4.4 0.1 1.4-0.9 2.7-1.9 4.1-2.9 0.3-0.2 0-0.6-0.3-0.4-1.5 1.1-3 2.2-4.5 3.2h-1.3-1.6c1.4-1 2.9-2 4.4-2.9 0.2-0.1 0-0.5-0.2-0.4-1.7 1-3.2 2.2-4.8 3.3-1.2 0-2.5 0-3.7 0.1l0.1-0.1c1.3-1 2.7-1.9 4-2.9 0.3-0.2 0-0.6-0.3-0.5-1.2 0.9-2.5 1.7-3.7 2.6-0.4 0.3-0.7 0.6-1.1 0.9-1 0-1.9 0-2.9 0.1 1-0.9 2-1.8 2.9-2.7 0.2-0.2-0.1-0.6-0.4-0.4-1 1-2.1 2.1-3.3 3.1-1.1 0-2.2 0.1-3.3 0.1 1.1-0.8 2.1-1.7 3.2-2.6 0.2-0.2 0-0.5-0.3-0.3-1.2 0.9-2.3 2-3.5 2.9h-2.9c1.2-0.9 2.3-1.9 3.5-2.8 0.2-0.2-0.1-0.5-0.3-0.3-1.3 1-2.5 2.2-3.9 3.2-1.3 0-2.6 0.1-3.8 0.1 1.3-1.1 2.7-2.1 4.1-3.2 0.2-0.2 0-0.6-0.2-0.4-1.6 1.1-3.1 2.3-4.6 3.6-0.9 0.1-1.8 0.1-2.7 0.2l4.5-3.6c0.2-0.2-0.1-0.5-0.3-0.3-1.6 1.3-3.2 2.6-4.8 4-0.8 0.1-1.6 0.1-2.3 0.2 1.7-1.7 3.5-3.4 5.2-5 0.2-0.2-0.1-0.5-0.3-0.3-1.9 1.7-3.7 3.6-5.5 5.4-0.4 0-0.7 0.1-1.1 0.1 0.3-0.6 0.5-1.4 0.6-2.2 0.5-0.6 0.9-1.2 1.4-1.7 0.8-0.9 1.7-1.8 2.7-2.6 0.2-0.1-0.1-0.5-0.2-0.3-1 0.7-1.8 1.6-2.7 2.5-0.2 0.2-0.3 0.5-0.5 0.8h-0.2v0.4c0 0.1-0.2 0.2-0.3 0.3 0.2-2.6-0.5-5.7-0.5-7.8v-1l0.1-0.1c1.7-2.2 3.5-4.4 5.4-6.5 0.2-0.2-0.1-0.5-0.3-0.3-1.7 2-3.5 4-5.1 6.1v-2.2c0.1 0 0.2 0 0.3-0.1 1.6-2.4 3.8-4.3 5.8-6.3 0.2-0.2-0.1-0.5-0.3-0.3-2 2-4.2 3.9-5.8 6.2v-2.2c1.8-1.9 3.4-4 5.1-6 0.2-0.2-0.1-0.5-0.3-0.3-1.6 1.8-3.2 3.6-4.8 5.5 0-1.5-0.1-3.1-0.1-4.6l0.1-0.1c1.7-2.5 3.7-4.6 5.8-6.8 0.2-0.2-0.1-0.5-0.3-0.3-1.9 2-3.9 4-5.6 6.2 0-0.6 0-1.3-0.1-1.9v-0.3c0.1 0.1 0.2 0.1 0.4 0 1.6-1.7 3-3.7 4.6-5.5 0.2-0.2-0.1-0.6-0.3-0.3-1.5 1.8-3 3.7-4.6 5.4 0-0.8-0.1-1.7-0.1-2.5 0.5-1 1.4-1.8 2.1-2.6 0.7-0.9 1.5-1.7 2.2-2.6 0.1-0.2-0.1-0.4-0.2-0.2-0.9 1-1.8 2-2.7 3.1-0.5 0.5-1 1-1.4 1.6v-2.1c1.5-1.9 3-3.7 4.5-5.5 0.2-0.2-0.1-0.5-0.3-0.3-1.4 1.7-2.8 3.3-4.2 5 0-0.8 0.1-1.7 0.1-2.5 1.1-1.3 2.1-2.6 3.1-3.9 0.1-0.2-0.2-0.4-0.3-0.3l-2.7 3.3c0-0.8 0.1-1.6 0.1-2.4 1.5-1.8 2.8-3.8 4.4-5.5 0.2-0.2-0.1-0.5-0.3-0.3-1.5 1.5-2.8 3.2-4.1 4.9 0-0.5 0.1-0.9 0.1-1.4v-1.1c1.4-1.7 2.7-3.4 4-5.2 0.2-0.2-0.1-0.5-0.3-0.3-1.2 1.5-2.4 3.1-3.7 4.6 0-0.6 0.1-1.1 0.1-1.7 0.1-0.1 0.1-0.3 0-0.3 0.8-1.6 2.1-2.9 3.3-4.2 0.2-0.2-0.1-0.6-0.3-0.3-1 1.1-2.1 2.2-2.9 3.5v-1.3-0.7c0.8-1.4 1.8-2.7 2.6-4 0.1-0.2-0.2-0.4-0.3-0.2-0.7 1.2-1.6 2.2-2.3 3.4 0-1.7 0-3.8-0.4-5.1 9.5 1.7 20.1 0 29.7-0.2 11.9-0.2 23.8 0.3 35.7 0.8 22.7 0.9 45.4 0.8 68.1 0.9 2.5 0.1 5.3-0.4 6.9 2.2 0.6 1.3-0.1 4.9-0.2 6.7z"/>
    <path id="path65" style="fill:#198fa1" d="m569.6 527.5c-0.5 0.8-1.1 1.7-1.6 2.5s-1.2 1.5-1.7 2.2c-0.2 0.3 0.2 0.5 0.4 0.2 0.5-0.8 1.2-1.5 1.7-2.3s1-1.7 1.6-2.6c0 0-0.3-0.2-0.4 0z"/>
    <path id="path67" style="fill:#198fa1" d="m570.3 529.7c-0.9 1.7-2.2 3.2-3.4 4.7-0.2 0.2 0.2 0.5 0.4 0.2 1.1-1.6 2.3-3.1 3.2-4.9 0.1 0-0.1-0.1-0.2 0z"/>
    <path id="path69" style="fill:#198fa1" d="m571.6 531.2c-0.6 1.4-1.5 2.7-2 4.2-0.1 0.3 0.4 0.4 0.4 0.1 0.4-1.5 1.3-2.7 1.9-4.2 0.1-0.1-0.2-0.2-0.3-0.1z"/>
    <path id="path71" style="fill:#198fa1" d="m573.6 532.8c-0.1 0.6-0.6 1.1-0.9 1.6-0.4 0.6-0.7 1.2-1.1 1.8-0.2 0.2 0.2 0.5 0.4 0.2 0.4-0.6 0.7-1.3 1.1-2 0.3-0.5 0.7-1 0.8-1.6 0-0.1-0.3-0.2-0.3 0z"/>
    <path id="path73" style="fill:#198fa1" d="m579.2 534.7c-0.4 0.7-0.8 1.5-1.3 2.2-0.1 0.2 0.2 0.4 0.3 0.3 0.6-0.6 0.9-1.5 1.3-2.2 0.1-0.3-0.2-0.5-0.3-0.3z"/>
    <path id="path75" style="fill:#198fa1" d="m584 535.6v0.3-0.3z"/>
    <path id="path77" style="fill:#198fa1" d="m587.3 535.4c-0.4 0.7-0.9 1.3-1.3 2-0.2 0.2 0.2 0.5 0.4 0.2l1.3-2c0.1-0.2-0.3-0.5-0.4-0.2z"/>
    <path id="path79" style="fill:#198fa1" d="m601.6 534.3c-0.7 0.9-1.3 1.8-1.8 2.8-0.1 0.3 0.3 0.6 0.5 0.3 0.4-1 1.1-2 1.7-2.9 0.2-0.2-0.2-0.5-0.4-0.2z"/>
    <path id="path81" style="fill:#198fa1" d="m613.5 533.8c-0.7 0.9-1.8 1.6-2.2 2.7-0.1 0.2 0.2 0.4 0.3 0.3l0.3-0.2c0.1-0.1 0.1-0.2 0-0.3 0.5-0.8 1.2-1.4 1.8-2.1 0.2-0.3-0.1-0.6-0.2-0.4z"/>
    <path id="path83" style="fill:#198fa1" d="m693.6 532c-1.1 0.8-2.3 1.6-3.5 2.3-1 0.6-2.2 1-3.2 1.7-0.1 0.1 0 0.2 0.1 0.1 1-0.7 2.2-1.1 3.2-1.6 1.2-0.7 2.4-1.4 3.6-2.2 0.2-0.1 0-0.4-0.2-0.3z"/>
    <path id="path85" style="fill:#198fa1" d="m755 535.6v0.5-0.5z"/>
   </g>
  </g>
  <g id="g87" transform="matrix(.68329 0 0 1 -342.61 -460.82)">
   <text id="text89" style="font-size:30px;font-family:MyriadPro-Cond;fill:#198fa1" transform="translate(630.25 521.5)" font-size="30">Изготовить</text>
  </g>
 </g>
</svg>
