<?xml version="1.0" encoding="UTF-8" standalone="no"?>
<!-- Created with Inkscape (http://www.inkscape.org/) -->

<svg
   xmlns:dc="http://purl.org/dc/elements/1.1/"
   xmlns:cc="http://creativecommons.org/ns#"
   xmlns:rdf="http://www.w3.org/1999/02/22-rdf-syntax-ns#"
   xmlns:svg="http://www.w3.org/2000/svg"
   xmlns="http://www.w3.org/2000/svg"
   xmlns:sodipodi="http://sodipodi.sourceforge.net/DTD/sodipodi-0.dtd"
   xmlns:inkscape="http://www.inkscape.org/namespaces/inkscape"
   width="210mm"
   height="297mm"
   viewBox="0 0 744.09448819 1052.3622047"
   id="svg4900"
   version="1.1"
   inkscape:version="0.91 r13725"
   inkscape:export-filename="C:\Users\Natali\menu.png"
   inkscape:export-xdpi="90"
   inkscape:export-ydpi="90"
   sodipodi:docname="Menu.svg">
  <defs
     id="defs4902" />
  <sodipodi:namedview
     id="base"
     pagecolor="#ffffff"
     bordercolor="#666666"
     borderopacity="1.0"
     inkscape:pageopacity="0.0"
     inkscape:pageshadow="2"
     inkscape:zoom="1.1388086"
     inkscape:cx="181.56921"
     inkscape:cy="821.74978"
     inkscape:document-units="px"
     inkscape:current-layer="layer1"
     showgrid="false"
     inkscape:window-width="1366"
     inkscape:window-height="705"
     inkscape:window-x="-8"
     inkscape:window-y="-8"
     inkscape:window-maximized="1" />
  <metadata
     id="metadata4905">
    <rdf:RDF>
      <cc:Work
         rdf:about="">
        <dc:format>image/svg+xml</dc:format>
        <dc:type
           rdf:resource="http://purl.org/dc/dcmitype/StillImage" />
        <dc:title></dc:title>
      </cc:Work>
    </rdf:RDF>
  </metadata>
  <g
     inkscape:label="Layer 1"
     inkscape:groupmode="layer"
     id="layer1">
    <g
       transform="translate(-42.941124,241.09624)"
       id="g3601">
      <g
         id="g3603">
        <g
           id="g3605">
          <path
             id="path3607"
             d="m 45,38.9 c -0.5,0.2 -0.9,0.6 -1.5,0.4 C 43.3,39.2 43.1,39 42.9,38.9 42,38.7 41.2,39.7 40.3,39.1 40,39 39.8,39.5 40,39.7 c 0.9,0.8 1.6,-0.1 2.5,0.1 0.4,0.1 0.8,0.6 1.2,0.7 0.5,0.1 1,-0.3 1.5,-0.5 0.4,-0.2 0.3,-1.3 -0.2,-1.1 z"
             inkscape:connector-curvature="0"
             style="fill:#198fa1" />
          <path
             id="path3609"
             d="m 51.4,38.9 c -0.9,-0.1 -1.8,0.1 -2.6,0.4 -0.7,0.2 -1.2,-0.2 -1.9,-0.2 -0.2,0 -0.3,0.6 0,0.6 0.6,0 1.1,0.6 1.7,0.5 0.4,-0.1 0.8,-0.3 1.2,-0.3 0.5,0 1.1,0.1 1.6,0 0.5,0 0.5,-0.9 0,-1 z"
             inkscape:connector-curvature="0"
             style="fill:#198fa1" />
          <path
             id="path3611"
             d="m 59.1,38.9 c -0.8,0.1 -1.5,0.7 -2.3,0.7 -0.8,0 -1.5,-0.4 -2.2,-0.5 0,-0.1 0.1,-0.2 0.1,-0.3 0.1,-0.2 -0.1,-0.4 -0.2,-0.2 -0.1,0.2 -0.2,0.4 -0.3,0.5 -0.1,0.1 -0.1,0.3 0,0.3 1.6,1.6 3.3,1.2 5,0.5 0.4,-0.1 0.4,-1.1 -0.1,-1 z"
             inkscape:connector-curvature="0"
             style="fill:#198fa1" />
          <path
             id="path3613"
             d="m 66.5,38.6 c -0.2,1.3 -4.3,0.5 -5.1,0.6 -0.2,0 -0.2,0.4 0,0.5 1.8,0.2 3.7,0.9 5.4,0.2 0.1,0 0.2,-0.2 0.3,-0.4 0,-0.2 0,-0.4 0.1,-0.5 0,-0.8 -0.6,-1.1 -0.7,-0.4 z"
             inkscape:connector-curvature="0"
             style="fill:#198fa1" />
          <path
             id="path3615"
             d="m 74.3,38.4 c -0.7,1.2 -1.6,-0.3 -2.5,-0.1 -0.3,0.1 -0.5,0.3 -0.7,0.4 -0.7,0.5 -0.9,0.4 -1.5,-0.1 -0.1,0 -0.1,0.1 -0.1,0.2 0.3,0.3 0.6,0.8 0.9,0.9 0.7,0.2 1.1,-0.8 1.9,-0.5 1,0.4 1.6,1.2 2.4,-0.1 0.3,-0.5 -0.2,-1.2 -0.4,-0.7 z"
             inkscape:connector-curvature="0"
             style="fill:#198fa1" />
          <path
             id="path3617"
             d="m 83.5,38.2 c -2,-0.1 -3.9,0.1 -5.9,0.3 -0.2,0 -0.2,0.4 0,0.4 1.9,0.2 3.9,0.4 5.9,0.3 0.5,0.1 0.5,-1 0,-1 z"
             inkscape:connector-curvature="0"
             style="fill:#198fa1" />
          <path
             id="path3619"
             d="m 91.2,38.2 c -1.8,-0.1 -3.6,0.2 -5.4,0.4 -0.1,0 -0.1,0.2 0,0.2 1.8,0.3 3.6,0.5 5.4,0.4 0.5,0.1 0.5,-1 0,-1 z"
             inkscape:connector-curvature="0"
             style="fill:#198fa1" />
          <path
             id="path3621"
             d="m 99.5,38 c -0.1,0.8 -2.5,0.4 -3,0.4 -0.4,0 -0.8,-0.1 -1.2,-0.1 -0.5,0.1 -0.8,0.3 -1.3,0.3 -0.1,0 -0.1,0.1 0,0.1 0.5,0.1 0.9,-0.1 1.3,0 0.5,0 1,0.3 1.6,0.3 1,0.1 2,0.3 3,0 0.1,0 0.2,-0.2 0.3,-0.4 0,-0.2 0,-0.4 0.1,-0.6 -0.1,-0.4 -0.7,-0.7 -0.8,0 z"
             inkscape:connector-curvature="0"
             style="fill:#198fa1" />
          <path
             id="path3623"
             d="m 109.3,38.2 c -1.9,-0.1 -4,-0.1 -5.9,0.3 0,0 0,0.1 0,0.1 1.9,0.5 4,0.6 5.9,0.6 0.4,0 0.4,-1 0,-1 z"
             inkscape:connector-curvature="0"
             style="fill:#198fa1" />
          <path
             id="path3625"
             d="m 118.8,38.4 c -2.2,-0.2 -4.6,0 -6.8,0.3 0,0 -0.1,0.1 0,0.1 2.2,0.3 4.5,0.7 6.8,0.6 0.4,0 0.4,-1 0,-1 z"
             inkscape:connector-curvature="0"
             style="fill:#198fa1" />
          <path
             id="path3627"
             d="m 128.5,37 c -0.6,1.1 -2.2,0.9 -3.1,0.9 -1,0 -2,-0.2 -2.9,-0.1 -0.2,0 -0.2,0.4 0,0.5 1.2,0.2 2.5,0.5 3.7,0.6 1,0.1 2.2,0.1 3,-1 0.3,-0.6 -0.4,-1.5 -0.7,-0.9 z"
             inkscape:connector-curvature="0"
             style="fill:#198fa1" />
          <path
             id="path3629"
             d="M 45,81.6 C 44.5,81.4 44.1,81 43.5,81.3 43.3,81.4 43.1,81.6 42.9,81.7 42,81.9 41.2,80.9 40.3,81.6 40,81.7 39.7,81.2 40,81 c 0.9,-0.9 1.6,0 2.5,-0.2 0.4,-0.1 0.8,-0.6 1.2,-0.7 0.5,-0.1 1,0.3 1.5,0.5 0.4,0.2 0.2,1.2 -0.2,1 z"
             inkscape:connector-curvature="0"
             style="fill:#198fa1" />
          <path
             id="path3631"
             d="m 51.4,81.5 c -0.9,0.1 -1.8,0 -2.6,-0.3 -0.7,-0.2 -1.2,0.3 -1.9,0.2 -0.2,0 -0.3,-0.6 0,-0.6 0.6,0 1.1,-0.6 1.7,-0.5 0.4,0.1 0.8,0.2 1.2,0.3 0.5,0 1.1,-0.1 1.6,-0.1 0.4,0 0.4,0.9 0,1 z"
             inkscape:connector-curvature="0"
             style="fill:#198fa1" />
          <path
             id="path3633"
             d="m 59.1,81.3 c -0.8,-0.1 -1.5,-0.7 -2.3,-0.7 -0.8,0 -1.5,0.5 -2.2,0.5 0,0.1 0.1,0.2 0.1,0.3 0.1,0.2 -0.1,0.4 -0.2,0.2 -0.1,-0.2 -0.2,-0.3 -0.3,-0.5 -0.1,-0.1 -0.1,-0.3 0,-0.3 1.6,-1.6 3.3,-1.3 5,-0.6 0.4,0.2 0.3,1.2 -0.1,1.1 z"
             inkscape:connector-curvature="0"
             style="fill:#198fa1" />
          <path
             id="path3635"
             d="M 66.4,81.4 C 66.2,80.1 62.1,81 61.3,81 c -0.2,0 -0.2,-0.4 0,-0.5 1.8,-0.2 3.7,-1 5.4,-0.3 0.1,0 0.2,0.2 0.3,0.4 0,0.2 0.1,0.4 0.1,0.5 0.1,0.6 -0.6,0.9 -0.7,0.3 z"
             inkscape:connector-curvature="0"
             style="fill:#198fa1" />
          <path
             id="path3637"
             d="m 74.2,81.4 c -0.7,-1.2 -1.6,0.3 -2.5,0.1 -0.3,-0.1 -0.5,-0.2 -0.7,-0.4 -0.7,-0.5 -0.9,-0.3 -1.5,0.1 -0.1,0.1 -0.1,-0.1 -0.1,-0.1 0.3,-0.3 0.6,-0.8 0.9,-0.9 0.7,-0.2 1.2,0.8 2,0.4 0.9,-0.5 1.6,-1.2 2.4,0.1 0.3,0.4 -0.2,1.2 -0.5,0.7 z"
             inkscape:connector-curvature="0"
             style="fill:#198fa1" />
          <path
             id="path3639"
             d="m 83.5,81.3 c -2,0.1 -3.9,0 -5.9,-0.2 -0.2,0 -0.2,-0.4 0,-0.4 1.9,-0.3 3.9,-0.5 5.9,-0.5 0.5,0.1 0.5,1.1 0,1.1 z"
             inkscape:connector-curvature="0"
             style="fill:#198fa1" />
          <path
             id="path3641"
             d="m 91.2,81.1 c -1.8,0.1 -3.6,-0.1 -5.4,-0.3 -0.1,0 -0.1,-0.2 0,-0.2 1.8,-0.3 3.6,-0.6 5.4,-0.6 0.5,0.1 0.5,1.1 0,1.1 z"
             inkscape:connector-curvature="0"
             style="fill:#198fa1" />
          <path
             id="path3643"
             d="m 99.5,81.2 c -0.1,-0.7 -2.5,-0.4 -3,-0.4 -0.4,0 -0.8,0.1 -1.2,0.1 -0.5,-0.1 -0.8,-0.3 -1.3,-0.3 -0.1,0 -0.1,-0.1 0,-0.1 0.4,-0.1 0.9,0 1.3,0 0.5,-0.1 1,-0.3 1.6,-0.4 1,-0.2 2,-0.4 3,-0.1 0.1,0 0.2,0.2 0.3,0.4 0,0.2 0,0.4 0.1,0.5 -0.1,0.6 -0.7,0.9 -0.8,0.3 z"
             inkscape:connector-curvature="0"
             style="fill:#198fa1" />
          <path
             id="path3645"
             d="m 109.3,81.3 c -1.9,0.1 -4,0.1 -5.9,-0.3 0,0 0,-0.1 0,-0.1 1.9,-0.5 4,-0.6 5.9,-0.6 0.4,0 0.5,1 0,1 z"
             inkscape:connector-curvature="0"
             style="fill:#198fa1" />
          <path
             id="path3647"
             d="m 118.8,81 c -2.2,0.2 -4.6,0 -6.8,-0.3 0,0 -0.1,-0.1 0,-0.1 2.2,-0.3 4.5,-0.7 6.8,-0.6 0.4,0.1 0.4,1 0,1 z"
             inkscape:connector-curvature="0"
             style="fill:#198fa1" />
          <path
             id="path3649"
             d="m 128.4,81.4 c -0.6,-1.1 -2.2,-0.9 -3.1,-0.9 -1,0 -2,0.3 -2.9,0.1 -0.2,0 -0.2,-0.4 0,-0.5 1.2,-0.3 2.5,-0.5 3.7,-0.7 1,-0.1 2.2,-0.2 3,0.9 0.3,0.8 -0.3,1.7 -0.7,1.1 z"
             inkscape:connector-curvature="0"
             style="fill:#198fa1" />
          <path
             id="path3651"
             d="m 136.4,38.9 c -0.5,0.2 -0.9,0.6 -1.5,0.4 -0.2,-0.1 -0.4,-0.3 -0.6,-0.4 -0.9,-0.2 -1.7,0.8 -2.6,0.2 -0.3,-0.2 -0.5,0.3 -0.2,0.5 0.9,0.8 1.6,-0.1 2.5,0.1 0.4,0.1 0.8,0.6 1.2,0.7 0.5,0.1 1,-0.3 1.5,-0.5 0.3,-0.1 0.1,-1.2 -0.3,-1 z"
             inkscape:connector-curvature="0"
             style="fill:#198fa1" />
          <path
             id="path3653"
             d="m 142.8,38.9 c -0.9,-0.1 -1.8,0.1 -2.6,0.4 -0.7,0.2 -1.2,-0.2 -1.9,-0.2 -0.2,0 -0.3,0.6 0,0.6 0.6,0 1.1,0.6 1.7,0.5 0.4,-0.1 0.8,-0.3 1.2,-0.3 0.5,0 1.1,0.1 1.6,0 0.4,0 0.4,-0.9 0,-1 z"
             inkscape:connector-curvature="0"
             style="fill:#198fa1" />
          <path
             id="path3655"
             d="m 150.5,38.9 c -0.8,0.1 -1.5,0.7 -2.3,0.7 -0.8,0 -1.5,-0.4 -2.2,-0.5 0,-0.1 0.1,-0.2 0.1,-0.3 0.1,-0.2 -0.1,-0.4 -0.2,-0.2 -0.1,0.2 -0.2,0.4 -0.3,0.5 -0.1,0.1 -0.1,0.3 0,0.3 1.6,1.6 3.3,1.2 5,0.5 0.4,-0.1 0.3,-1.1 -0.1,-1 z"
             inkscape:connector-curvature="0"
             style="fill:#198fa1" />
          <path
             id="path3657"
             d="m 157.8,38.6 c -0.2,1.3 -4.3,0.5 -5.1,0.6 -0.2,0 -0.2,0.4 0,0.5 1.8,0.2 3.7,0.9 5.4,0.2 0.1,0 0.2,-0.2 0.3,-0.4 0,-0.2 0,-0.4 0.1,-0.5 0.1,-0.8 -0.6,-1.1 -0.7,-0.4 z"
             inkscape:connector-curvature="0"
             style="fill:#198fa1" />
          <path
             id="path3659"
             d="m 165.6,38.4 c -0.7,1.2 -1.6,-0.3 -2.5,-0.1 -0.3,0.1 -0.5,0.3 -0.7,0.4 -0.7,0.5 -0.9,0.4 -1.5,-0.1 -0.1,0 -0.1,0.1 -0.1,0.2 0.3,0.3 0.6,0.8 0.9,0.9 0.7,0.2 1.1,-0.8 1.9,-0.5 1,0.4 1.6,1.2 2.4,-0.1 0.4,-0.5 -0.1,-1.2 -0.4,-0.7 z"
             inkscape:connector-curvature="0"
             style="fill:#198fa1" />
          <path
             id="path3661"
             d="m 174.9,38.2 c -2,-0.1 -3.9,0.1 -5.9,0.3 -0.2,0 -0.2,0.4 0,0.4 1.9,0.2 3.9,0.4 5.9,0.3 0.5,0.1 0.5,-1 0,-1 z"
             inkscape:connector-curvature="0"
             style="fill:#198fa1" />
          <path
             id="path3663"
             d="m 182.6,38.2 c -1.8,-0.1 -3.6,0.2 -5.4,0.4 -0.1,0 -0.1,0.2 0,0.2 1.8,0.3 3.6,0.5 5.4,0.4 0.4,0.1 0.4,-1 0,-1 z"
             inkscape:connector-curvature="0"
             style="fill:#198fa1" />
          <path
             id="path3665"
             d="m 190.8,38 c -0.1,0.8 -2.5,0.4 -3,0.4 -0.4,0 -0.8,-0.1 -1.2,-0.1 -0.5,0.1 -0.8,0.3 -1.3,0.3 -0.1,0 -0.1,0.1 0,0.1 0.5,0.1 0.9,-0.1 1.3,0 0.5,0 1,0.3 1.6,0.3 1,0.1 2,0.3 3,0 0.1,0 0.2,-0.2 0.3,-0.4 0,-0.2 0,-0.4 0.1,-0.6 0,-0.4 -0.7,-0.7 -0.8,0 z"
             inkscape:connector-curvature="0"
             style="fill:#198fa1" />
          <path
             id="path3667"
             d="m 200.6,38.2 c -1.9,-0.1 -4,-0.1 -5.9,0.3 0,0 0,0.1 0,0.1 1.9,0.5 4,0.6 5.9,0.6 0.5,0 0.5,-1 0,-1 z"
             inkscape:connector-curvature="0"
             style="fill:#198fa1" />
          <path
             id="path3669"
             d="m 210.1,38.4 c -2.2,-0.2 -4.6,0 -6.8,0.3 0,0 -0.1,0.1 0,0.1 2.2,0.3 4.5,0.7 6.8,0.6 0.5,0 0.5,-1 0,-1 z"
             inkscape:connector-curvature="0"
             style="fill:#198fa1" />
          <path
             id="path3671"
             d="m 219.8,37 c -0.6,1.1 -2.2,0.9 -3.1,0.9 -1,0 -2,-0.2 -2.9,-0.1 -0.2,0 -0.2,0.4 0,0.5 1.2,0.2 2.5,0.5 3.7,0.6 1,0.1 2.2,0.1 3,-1 0.3,-0.6 -0.3,-1.5 -0.7,-0.9 z"
             inkscape:connector-curvature="0"
             style="fill:#198fa1" />
          <path
             id="path3673"
             d="m 223.3,84.3 c -7.9,-0.2 -15.7,0.1 -23.5,0.3 -8,0.2 -16,-0.3 -24.1,-0.1 -8.1,0.2 -16,-0.3 -24,-0.6 -6,-0.3 -11.9,0.2 -17.9,1 -0.4,0 -0.8,-0.1 -1.2,-0.1 -0.1,-0.3 -0.3,-0.6 -0.6,-0.6 -7.9,-0.2 -15.7,0.1 -23.5,0.3 -8,0.2 -16,-0.3 -24.1,-0.1 -8.1,0.2 -16,-0.3 -24,-0.6 -7.4,-0.3 -14.5,0.4 -21.8,1.6 -0.2,0 -0.4,0.1 -0.5,0.3 -1.1,0.1 -2.5,0.2 -2.9,-0.2 -1.2,-1 -0.7,-1.8 -0.4,-3.7 0.6,-3.4 1.7,-6.7 2.4,-10 1,-4.5 3.4,-11.5 3.2,-16.2 -0.1,-1.7 -1.3,-3.9 -1.8,-5.3 -1,-2.9 -1.9,-5.9 -2.8,-8.8 C 35,39 33,35.4 34.8,34 c 0.8,-0.6 2,-0.6 3.2,-0.6 0.1,0.3 0.3,0.5 0.5,0.4 7.3,1.2 14.4,1.9 21.8,1.6 8,-0.4 16,-0.8 24,-0.6 8,0.2 16,-0.4 24.1,-0.2 7.4,0.2 14.7,0.5 22.1,0.3 0.9,0.2 1.8,0.3 2.8,0.3 1.5,-0.1 2.9,-0.2 4.4,-0.3 4.6,0.5 9.2,0.7 14,0.5 8,-0.4 16,-0.8 24,-0.6 8,0.2 16,-0.4 24.1,-0.2 7.9,0.2 15.7,0.5 23.5,0.3 1,0 1,-2.1 0,-2.2 -15.9,-1.2 -31.7,-0.4 -47.6,-0.9 -8.1,-0.2 -16,0.2 -24,0.6 -7.3,0.4 -14.5,-0.5 -21.8,-0.6 -0.3,0 -0.5,0.3 -0.6,0.6 -14.9,-0.9 -29.9,-0.3 -44.9,-0.7 -8.1,-0.2 -16,0.2 -24,0.6 C 53,33.1 45.8,32.1 38.5,32 c -0.1,0 -0.1,0 -0.2,0 -2.2,-0.3 -4.8,-0.6 -6.2,0.8 -0.2,0.2 -0.4,0.6 -0.3,1 1.2,4.4 2.8,8.8 4.1,13.2 1.2,4.1 3.2,7.8 2.3,12.2 -1.1,5.3 -2.1,10.6 -3.3,15.7 -0.9,3.5 -2.7,7.8 -2.2,11.7 0,0.4 0.3,0.6 0.5,0.7 2.1,1.1 4.8,0.7 7,0.3 0.1,0 0.2,-0.1 0.3,-0.2 6.6,-0.2 13.2,-1 19.9,-0.6 8,0.5 16,0.8 24,0.6 14.7,-0.4 29.3,0.2 44,-0.7 1.6,0.4 3,0.6 4.7,0.5 1.1,-0.1 2.2,0 3.3,0 0,0 0.1,0 0.1,0 0.1,0 0.2,0 0.3,0 1.8,0 3.6,0 5.3,-0.3 3.2,-0.2 6.4,-0.3 9.7,-0.1 8,0.5 16,0.8 24,0.6 15.9,-0.5 31.7,0.3 47.6,-0.9 0.9,0 0.9,-2.1 -0.1,-2.2 z"
             inkscape:connector-curvature="0"
             style="fill:#198fa1" />
          <path
             id="path3675"
             d="m 136.3,81.6 c -0.5,-0.2 -0.9,-0.6 -1.5,-0.3 -0.2,0.1 -0.4,0.3 -0.6,0.4 -0.9,0.2 -1.7,-0.8 -2.6,-0.1 -0.3,0.2 -0.5,-0.3 -0.2,-0.5 0.9,-0.9 1.6,0 2.5,-0.2 0.4,-0.1 0.8,-0.6 1.2,-0.7 0.5,-0.1 1,0.3 1.5,0.5 0.4,0.1 0.2,1.1 -0.3,0.9 z"
             inkscape:connector-curvature="0"
             style="fill:#198fa1" />
          <path
             id="path3677"
             d="m 142.7,81.5 c -0.9,0.1 -1.8,0 -2.6,-0.3 -0.7,-0.2 -1.2,0.3 -1.9,0.2 -0.2,0 -0.3,-0.6 0,-0.6 0.6,0 1.1,-0.6 1.7,-0.5 0.4,0.1 0.8,0.2 1.2,0.3 0.5,0 1.1,-0.1 1.6,-0.1 0.5,0 0.5,0.9 0,1 z"
             inkscape:connector-curvature="0"
             style="fill:#198fa1" />
          <path
             id="path3679"
             d="m 150.4,81.3 c -0.8,-0.1 -1.5,-0.7 -2.3,-0.7 -0.8,0 -1.5,0.5 -2.2,0.5 0,0.1 0.1,0.2 0.1,0.3 0.1,0.2 -0.1,0.4 -0.2,0.2 -0.1,-0.2 -0.2,-0.3 -0.3,-0.5 -0.1,-0.1 -0.1,-0.3 0,-0.3 1.6,-1.6 3.3,-1.3 5,-0.6 0.4,0.2 0.4,1.2 -0.1,1.1 z"
             inkscape:connector-curvature="0"
             style="fill:#198fa1" />
          <path
             id="path3681"
             d="m 157.8,81.4 c -0.2,-1.3 -4.3,-0.4 -5.1,-0.4 -0.2,0 -0.2,-0.4 0,-0.5 1.8,-0.2 3.7,-1 5.4,-0.3 0.1,0 0.2,0.2 0.3,0.4 0,0.2 0.1,0.4 0.1,0.5 0.1,0.6 -0.6,0.9 -0.7,0.3 z"
             inkscape:connector-curvature="0"
             style="fill:#198fa1" />
          <path
             id="path3683"
             d="m 165.6,81.4 c -0.7,-1.2 -1.6,0.3 -2.5,0.1 -0.3,-0.1 -0.5,-0.2 -0.7,-0.4 -0.7,-0.5 -0.9,-0.3 -1.5,0.1 -0.1,0.1 -0.1,-0.1 -0.1,-0.1 0.3,-0.3 0.6,-0.8 0.9,-0.9 0.7,-0.2 1.2,0.8 2,0.4 0.9,-0.5 1.6,-1.2 2.4,0.1 0.3,0.4 -0.2,1.2 -0.5,0.7 z"
             inkscape:connector-curvature="0"
             style="fill:#198fa1" />
          <path
             id="path3685"
             d="m 174.9,81.3 c -2,0.1 -3.9,0 -5.9,-0.2 -0.2,0 -0.2,-0.4 0,-0.4 1.9,-0.3 3.9,-0.5 5.9,-0.5 0.4,0.1 0.4,1.1 0,1.1 z"
             inkscape:connector-curvature="0"
             style="fill:#198fa1" />
          <path
             id="path3687"
             d="m 182.5,81.1 c -1.8,0.1 -3.6,-0.1 -5.4,-0.3 -0.1,0 -0.1,-0.2 0,-0.2 1.8,-0.3 3.6,-0.6 5.4,-0.6 0.5,0.1 0.5,1.1 0,1.1 z"
             inkscape:connector-curvature="0"
             style="fill:#198fa1" />
          <path
             id="path3689"
             d="m 190.8,81.2 c -0.1,-0.7 -2.5,-0.4 -3,-0.4 -0.4,0 -0.8,0.1 -1.2,0.1 -0.5,-0.1 -0.8,-0.3 -1.3,-0.3 -0.1,0 -0.1,-0.1 0,-0.1 0.4,-0.1 0.9,0 1.3,0 0.5,-0.1 1,-0.3 1.6,-0.4 1,-0.2 2,-0.4 3,-0.1 0.1,0 0.2,0.2 0.3,0.4 0,0.2 0,0.4 0.1,0.5 0,0.6 -0.7,0.9 -0.8,0.3 z"
             inkscape:connector-curvature="0"
             style="fill:#198fa1" />
          <path
             id="path3691"
             d="m 200.6,81.3 c -1.9,0.1 -4,0.1 -5.9,-0.3 0,0 0,-0.1 0,-0.1 1.9,-0.5 4,-0.6 5.9,-0.6 0.5,0 0.5,1 0,1 z"
             inkscape:connector-curvature="0"
             style="fill:#198fa1" />
          <path
             id="path3693"
             d="m 210.1,81 c -2.2,0.2 -4.6,0 -6.8,-0.3 0,0 -0.1,-0.1 0,-0.1 2.2,-0.3 4.5,-0.7 6.8,-0.6 0.5,0.1 0.5,1 0,1 z"
             inkscape:connector-curvature="0"
             style="fill:#198fa1" />
          <path
             id="path3695"
             d="m 219.8,81.4 c -0.6,-1.1 -2.2,-0.9 -3.1,-0.9 -1,0 -2,0.3 -2.9,0.1 -0.2,0 -0.2,-0.4 0,-0.5 1.2,-0.3 2.5,-0.5 3.7,-0.7 1,-0.1 2.2,-0.2 3,0.9 0.3,0.8 -0.4,1.7 -0.7,1.1 z"
             inkscape:connector-curvature="0"
             style="fill:#198fa1" />
        </g>
        <g
           id="g3697">
          <path
             id="path3699"
             d="m 227.7,38.9 c -0.5,0.2 -0.9,0.6 -1.5,0.4 -0.2,-0.1 -0.4,-0.3 -0.6,-0.4 -0.9,-0.2 -1.7,0.8 -2.6,0.2 -0.3,-0.2 -0.5,0.3 -0.2,0.5 0.9,0.8 1.6,-0.1 2.5,0.1 0.4,0.1 0.8,0.6 1.2,0.7 0.5,0.1 1,-0.3 1.5,-0.5 0.3,-0.1 0.1,-1.2 -0.3,-1 z"
             inkscape:connector-curvature="0"
             style="fill:#198fa1" />
          <path
             id="path3701"
             d="m 234.1,38.9 c -0.9,-0.1 -1.8,0.1 -2.6,0.4 -0.7,0.2 -1.2,-0.2 -1.9,-0.2 -0.2,0 -0.3,0.6 0,0.6 0.6,0 1.1,0.6 1.7,0.5 0.4,-0.1 0.8,-0.3 1.2,-0.3 0.5,0 1.1,0.1 1.6,0 0.5,0 0.5,-0.9 0,-1 z"
             inkscape:connector-curvature="0"
             style="fill:#198fa1" />
          <path
             id="path3703"
             d="m 241.8,38.9 c -0.8,0.1 -1.5,0.7 -2.3,0.7 -0.8,0 -1.5,-0.4 -2.2,-0.5 0,-0.1 0.1,-0.2 0.1,-0.3 0.1,-0.2 -0.1,-0.4 -0.2,-0.2 -0.1,0.2 -0.2,0.4 -0.3,0.5 -0.1,0.1 -0.1,0.3 0,0.3 1.6,1.6 3.3,1.2 5,0.5 0.4,-0.1 0.4,-1.1 -0.1,-1 z"
             inkscape:connector-curvature="0"
             style="fill:#198fa1" />
          <path
             id="path3705"
             d="m 249.2,38.6 c -0.2,1.3 -4.3,0.5 -5.1,0.6 -0.2,0 -0.2,0.4 0,0.5 1.8,0.2 3.7,0.9 5.4,0.2 0.1,0 0.2,-0.2 0.3,-0.4 0,-0.2 0,-0.4 0.1,-0.5 0,-0.8 -0.6,-1.1 -0.7,-0.4 z"
             inkscape:connector-curvature="0"
             style="fill:#198fa1" />
          <path
             id="path3707"
             d="m 257,38.4 c -0.7,1.2 -1.6,-0.3 -2.5,-0.1 -0.3,0.1 -0.5,0.3 -0.7,0.4 -0.7,0.5 -0.9,0.4 -1.5,-0.1 -0.1,0 -0.1,0.1 -0.1,0.2 0.3,0.3 0.6,0.8 0.9,0.9 0.7,0.2 1.1,-0.8 1.9,-0.5 1,0.4 1.6,1.2 2.4,-0.1 0.3,-0.5 -0.2,-1.2 -0.4,-0.7 z"
             inkscape:connector-curvature="0"
             style="fill:#198fa1" />
          <path
             id="path3709"
             d="m 266.2,38.2 c -2,-0.1 -3.9,0.1 -5.9,0.3 -0.2,0 -0.2,0.4 0,0.4 1.9,0.2 3.9,0.4 5.9,0.3 0.5,0.1 0.5,-1 0,-1 z"
             inkscape:connector-curvature="0"
             style="fill:#198fa1" />
          <path
             id="path3711"
             d="m 273.9,38.2 c -1.8,-0.1 -3.6,0.2 -5.4,0.4 -0.1,0 -0.1,0.2 0,0.2 1.8,0.3 3.6,0.5 5.4,0.4 0.5,0.1 0.5,-1 0,-1 z"
             inkscape:connector-curvature="0"
             style="fill:#198fa1" />
          <path
             id="path3713"
             d="m 282.2,38 c -0.1,0.8 -2.5,0.4 -3,0.4 -0.4,0 -0.8,-0.1 -1.2,-0.1 -0.5,0.1 -0.8,0.3 -1.3,0.3 -0.1,0 -0.1,0.1 0,0.1 0.5,0.1 0.9,-0.1 1.3,0 0.5,0 1,0.3 1.6,0.3 1,0.1 2,0.3 3,0 0.1,0 0.2,-0.2 0.3,-0.4 0,-0.2 0,-0.4 0.1,-0.6 -0.1,-0.4 -0.7,-0.7 -0.8,0 z"
             inkscape:connector-curvature="0"
             style="fill:#198fa1" />
          <path
             id="path3715"
             d="m 292,38.2 c -1.9,-0.1 -4,-0.1 -5.9,0.3 0,0 0,0.1 0,0.1 1.9,0.5 4,0.6 5.9,0.6 0.4,0 0.4,-1 0,-1 z"
             inkscape:connector-curvature="0"
             style="fill:#198fa1" />
          <path
             id="path3717"
             d="m 301.5,38.4 c -2.2,-0.2 -4.6,0 -6.8,0.3 0,0 -0.1,0.1 0,0.1 2.2,0.3 4.5,0.7 6.8,0.6 0.4,0 0.4,-1 0,-1 z"
             inkscape:connector-curvature="0"
             style="fill:#198fa1" />
          <path
             id="path3719"
             d="m 311.1,37 c -0.6,1.1 -2.2,0.9 -3.1,0.9 -1,0 -2,-0.2 -2.9,-0.1 -0.2,0 -0.2,0.4 0,0.5 1.2,0.2 2.5,0.5 3.7,0.6 1,0.1 2.2,0.1 3,-1 0.4,-0.6 -0.3,-1.5 -0.7,-0.9 z"
             inkscape:connector-curvature="0"
             style="fill:#198fa1" />
          <path
             id="path3721"
             d="m 227.7,81.6 c -0.5,-0.2 -0.9,-0.6 -1.5,-0.3 -0.2,0.1 -0.4,0.3 -0.6,0.4 -0.9,0.2 -1.7,-0.8 -2.6,-0.1 -0.3,0.2 -0.5,-0.3 -0.2,-0.5 0.9,-0.9 1.6,0 2.5,-0.2 0.4,-0.1 0.8,-0.6 1.2,-0.7 0.5,-0.1 1,0.3 1.5,0.5 0.3,0.1 0.1,1.1 -0.3,0.9 z"
             inkscape:connector-curvature="0"
             style="fill:#198fa1" />
          <path
             id="path3723"
             d="m 234.1,81.5 c -0.9,0.1 -1.8,0 -2.6,-0.3 -0.7,-0.2 -1.2,0.3 -1.9,0.2 -0.2,0 -0.3,-0.6 0,-0.6 0.6,0 1.1,-0.6 1.7,-0.5 0.4,0.1 0.8,0.2 1.2,0.3 0.5,0 1.1,-0.1 1.6,-0.1 0.4,0 0.4,0.9 0,1 z"
             inkscape:connector-curvature="0"
             style="fill:#198fa1" />
          <path
             id="path3725"
             d="m 241.8,81.3 c -0.8,-0.1 -1.5,-0.7 -2.3,-0.7 -0.8,0 -1.5,0.5 -2.2,0.5 0,0.1 0.1,0.2 0.1,0.3 0.1,0.2 -0.1,0.4 -0.2,0.2 -0.1,-0.2 -0.2,-0.3 -0.3,-0.5 -0.1,-0.1 -0.1,-0.3 0,-0.3 1.6,-1.6 3.3,-1.3 5,-0.6 0.4,0.2 0.3,1.2 -0.1,1.1 z"
             inkscape:connector-curvature="0"
             style="fill:#198fa1" />
          <path
             id="path3727"
             d="M 249.1,81.4 C 248.9,80.1 244.8,81 244,81 c -0.2,0 -0.2,-0.4 0,-0.5 1.8,-0.2 3.7,-1 5.4,-0.3 0.1,0 0.2,0.2 0.3,0.4 0,0.2 0.1,0.4 0.1,0.5 0.1,0.6 -0.6,0.9 -0.7,0.3 z"
             inkscape:connector-curvature="0"
             style="fill:#198fa1" />
          <path
             id="path3729"
             d="m 256.9,81.4 c -0.7,-1.2 -1.6,0.3 -2.5,0.1 -0.3,-0.1 -0.5,-0.2 -0.7,-0.4 -0.7,-0.5 -0.9,-0.3 -1.5,0.1 -0.1,0.1 -0.1,-0.1 -0.1,-0.1 0.3,-0.3 0.6,-0.8 0.9,-0.9 0.7,-0.2 1.2,0.8 2,0.4 0.9,-0.5 1.6,-1.2 2.4,0.1 0.3,0.4 -0.2,1.2 -0.5,0.7 z"
             inkscape:connector-curvature="0"
             style="fill:#198fa1" />
          <path
             id="path3731"
             d="m 266.2,81.3 c -2,0.1 -3.9,0 -5.9,-0.2 -0.2,0 -0.2,-0.4 0,-0.4 1.9,-0.3 3.9,-0.5 5.9,-0.5 0.5,0.1 0.5,1.1 0,1.1 z"
             inkscape:connector-curvature="0"
             style="fill:#198fa1" />
          <path
             id="path3733"
             d="m 273.9,81.1 c -1.8,0.1 -3.6,-0.1 -5.4,-0.3 -0.1,0 -0.1,-0.2 0,-0.2 1.8,-0.3 3.6,-0.6 5.4,-0.6 0.5,0.1 0.5,1.1 0,1.1 z"
             inkscape:connector-curvature="0"
             style="fill:#198fa1" />
          <path
             id="path3735"
             d="m 282.2,81.2 c -0.1,-0.7 -2.5,-0.4 -3,-0.4 -0.4,0 -0.8,0.1 -1.2,0.1 -0.5,-0.1 -0.8,-0.3 -1.3,-0.3 -0.1,0 -0.1,-0.1 0,-0.1 0.4,-0.1 0.9,0 1.3,0 0.5,-0.1 1,-0.3 1.6,-0.4 1,-0.2 2,-0.4 3,-0.1 0.1,0 0.2,0.2 0.3,0.4 0,0.2 0,0.4 0.1,0.5 -0.1,0.6 -0.7,0.9 -0.8,0.3 z"
             inkscape:connector-curvature="0"
             style="fill:#198fa1" />
          <path
             id="path3737"
             d="m 292,81.3 c -1.9,0.1 -4,0.1 -5.9,-0.3 0,0 0,-0.1 0,-0.1 1.9,-0.5 4,-0.6 5.9,-0.6 0.4,0 0.5,1 0,1 z"
             inkscape:connector-curvature="0"
             style="fill:#198fa1" />
          <path
             id="path3739"
             d="m 301.5,81 c -2.2,0.2 -4.6,0 -6.8,-0.3 0,0 -0.1,-0.1 0,-0.1 2.2,-0.3 4.5,-0.7 6.8,-0.6 0.4,0.1 0.4,1 0,1 z"
             inkscape:connector-curvature="0"
             style="fill:#198fa1" />
          <path
             id="path3741"
             d="m 311.1,81.4 c -0.6,-1.1 -2.2,-0.9 -3.1,-0.9 -1,0 -2,0.3 -2.9,0.1 -0.2,0 -0.2,-0.4 0,-0.5 1.2,-0.3 2.5,-0.5 3.7,-0.7 1,-0.1 2.2,-0.2 3,0.9 0.3,0.8 -0.3,1.7 -0.7,1.1 z"
             inkscape:connector-curvature="0"
             style="fill:#198fa1" />
          <path
             id="path3743"
             d="m 406,32.9 c -15.9,-1.2 -31.7,-0.4 -47.6,-0.9 -8.1,-0.2 -16,0.2 -24,0.6 -7.3,0.4 -14.5,-0.5 -21.8,-0.6 -0.3,0 -0.5,0.3 -0.6,0.6 -15,-0.8 -30,-0.2 -44.9,-0.6 -8.1,-0.2 -16,0.2 -24,0.6 -7.3,0.4 -14.5,-0.5 -21.8,-0.6 -0.9,0 -0.9,2 0,2 0.5,0.1 1.1,0.2 1.6,0.3 -1.3,0.1 -2.6,0.2 -3.9,0.6 -0.1,0 -0.1,0.4 0,0.3 2.6,-0.4 5.3,-0.1 7.9,-0.1 0.5,0 1,0 1.5,-0.1 4.9,0.5 9.7,0.8 14.6,0.6 8,-0.4 16,-0.8 24,-0.6 8,0.2 16,-0.4 24.1,-0.2 7.4,0.2 14.7,0.5 22.1,0.3 0.9,0.2 1.8,0.3 2.8,0.3 1.5,-0.1 2.9,-0.2 4.4,-0.3 4.6,0.5 9.2,0.7 14,0.5 8,-0.4 16,-0.8 24,-0.6 8,0.2 16,-0.4 24.1,-0.2 7.9,0.2 15.7,0.5 23.5,0.3 1,-0.1 1,-2.2 0,-2.2 z"
             inkscape:connector-curvature="0"
             style="fill:#198fa1" />
          <path
             id="path3745"
             d="m 319.1,38.9 c -0.5,0.2 -0.9,0.6 -1.5,0.4 -0.2,-0.1 -0.4,-0.3 -0.6,-0.4 -0.9,-0.2 -1.7,0.8 -2.6,0.2 -0.3,-0.2 -0.5,0.3 -0.2,0.5 0.9,0.8 1.6,-0.1 2.5,0.1 0.4,0.1 0.8,0.6 1.2,0.7 0.5,0.1 1,-0.3 1.5,-0.5 0.3,-0.1 0.1,-1.2 -0.3,-1 z"
             inkscape:connector-curvature="0"
             style="fill:#198fa1" />
          <path
             id="path3747"
             d="m 325.5,38.9 c -0.9,-0.1 -1.8,0.1 -2.6,0.4 -0.7,0.2 -1.2,-0.2 -1.9,-0.2 -0.2,0 -0.3,0.6 0,0.6 0.6,0 1.1,0.6 1.7,0.5 0.4,-0.1 0.8,-0.3 1.2,-0.3 0.5,0 1.1,0.1 1.6,0 0.4,0 0.4,-0.9 0,-1 z"
             inkscape:connector-curvature="0"
             style="fill:#198fa1" />
          <path
             id="path3749"
             d="m 333.2,38.9 c -0.8,0.1 -1.5,0.7 -2.3,0.7 -0.8,0 -1.5,-0.4 -2.2,-0.5 0,-0.1 0.1,-0.2 0.1,-0.3 0.1,-0.2 -0.1,-0.4 -0.2,-0.2 -0.1,0.2 -0.2,0.4 -0.3,0.5 -0.1,0.1 -0.1,0.3 0,0.3 1.6,1.6 3.3,1.2 5,0.5 0.4,-0.1 0.3,-1.1 -0.1,-1 z"
             inkscape:connector-curvature="0"
             style="fill:#198fa1" />
          <path
             id="path3751"
             d="m 340.5,38.6 c -0.2,1.3 -4.3,0.5 -5.1,0.6 -0.2,0 -0.2,0.4 0,0.5 1.8,0.2 3.7,0.9 5.4,0.2 0.1,0 0.2,-0.2 0.3,-0.4 0,-0.2 0,-0.4 0.1,-0.5 0.1,-0.8 -0.6,-1.1 -0.7,-0.4 z"
             inkscape:connector-curvature="0"
             style="fill:#198fa1" />
          <path
             id="path3753"
             d="m 348.3,38.4 c -0.7,1.2 -1.6,-0.3 -2.5,-0.1 -0.3,0.1 -0.5,0.3 -0.7,0.4 -0.7,0.5 -0.9,0.4 -1.5,-0.1 -0.1,0 -0.1,0.1 -0.1,0.2 0.3,0.3 0.6,0.8 0.9,0.9 0.7,0.2 1.1,-0.8 1.9,-0.5 1,0.4 1.6,1.2 2.4,-0.1 0.4,-0.5 -0.1,-1.2 -0.4,-0.7 z"
             inkscape:connector-curvature="0"
             style="fill:#198fa1" />
          <path
             id="path3755"
             d="m 357.6,38.2 c -2,-0.1 -3.9,0.1 -5.9,0.3 -0.2,0 -0.2,0.4 0,0.4 1.9,0.2 3.9,0.4 5.9,0.3 0.5,0.1 0.5,-1 0,-1 z"
             inkscape:connector-curvature="0"
             style="fill:#198fa1" />
          <path
             id="path3757"
             d="m 365.3,38.2 c -1.8,-0.1 -3.6,0.2 -5.4,0.4 -0.1,0 -0.1,0.2 0,0.2 1.8,0.3 3.6,0.5 5.4,0.4 0.4,0.1 0.4,-1 0,-1 z"
             inkscape:connector-curvature="0"
             style="fill:#198fa1" />
          <path
             id="path3759"
             d="m 373.5,38 c -0.1,0.8 -2.5,0.4 -3,0.4 -0.4,0 -0.8,-0.1 -1.2,-0.1 -0.5,0.1 -0.8,0.3 -1.3,0.3 -0.1,0 -0.1,0.1 0,0.1 0.5,0.1 0.9,-0.1 1.3,0 0.5,0 1,0.3 1.6,0.3 1,0.1 2,0.3 3,0 0.1,0 0.2,-0.2 0.3,-0.4 0,-0.2 0,-0.4 0.1,-0.6 0,-0.4 -0.7,-0.7 -0.8,0 z"
             inkscape:connector-curvature="0"
             style="fill:#198fa1" />
          <path
             id="path3761"
             d="m 383.3,38.2 c -1.9,-0.1 -4,-0.1 -5.9,0.3 0,0 0,0.1 0,0.1 1.9,0.5 4,0.6 5.9,0.6 0.5,0 0.5,-1 0,-1 z"
             inkscape:connector-curvature="0"
             style="fill:#198fa1" />
          <path
             id="path3763"
             d="m 392.8,38.4 c -2.2,-0.2 -4.6,0 -6.8,0.3 0,0 -0.1,0.1 0,0.1 2.2,0.3 4.5,0.7 6.8,0.6 0.5,0 0.5,-1 0,-1 z"
             inkscape:connector-curvature="0"
             style="fill:#198fa1" />
          <path
             id="path3765"
             d="m 402.5,37 c -0.6,1.1 -2.2,0.9 -3.1,0.9 -1,0 -2,-0.2 -2.9,-0.1 -0.2,0 -0.2,0.4 0,0.5 1.2,0.2 2.5,0.5 3.7,0.6 1,0.1 2.2,0.1 3,-1 0.3,-0.6 -0.3,-1.5 -0.7,-0.9 z"
             inkscape:connector-curvature="0"
             style="fill:#198fa1" />
          <path
             id="path3767"
             d="m 406,84.3 c -7.9,-0.2 -15.7,0.1 -23.5,0.3 -8,0.2 -16,-0.3 -24.1,-0.1 -8.1,0.2 -16,-0.3 -24,-0.6 -6,-0.3 -11.9,0.2 -17.9,1 -0.4,0 -0.8,-0.1 -1.2,-0.1 -0.1,-0.3 -0.3,-0.6 -0.6,-0.6 -7.9,-0.2 -15.7,0.1 -23.5,0.3 -8,0.2 -16,-0.3 -24.1,-0.1 -8.1,0.2 -16,-0.3 -24,-0.6 -7.4,-0.3 -14.5,0.4 -21.8,1.6 -0.4,0 -0.7,0.5 -0.6,1 -2.4,-0.2 -4.6,-0.6 -7.1,-0.5 -0.1,0 -0.1,0.1 0,0.1 2.9,0 5.6,1.2 8.5,1.4 1.4,0.1 2.9,-0.1 4.3,-0.1 1.2,0 2.4,0 3.5,-0.5 4.4,-0.3 8.8,-0.5 13.2,-0.3 8,0.5 16,0.8 24,0.6 14.7,-0.4 29.3,0.2 44,-0.7 1.6,0.4 3,0.6 4.7,0.5 1.1,-0.1 2.2,0 3.3,0 0,0 0.1,0 0.1,0 0.1,0 0.2,0 0.3,0 1.8,0 3.6,0 5.3,-0.3 3.2,-0.2 6.4,-0.3 9.7,-0.1 8,0.5 16,0.8 24,0.6 15.9,-0.5 31.7,0.3 47.6,-0.9 0.9,0.3 0.9,-1.8 -0.1,-1.9 z"
             inkscape:connector-curvature="0"
             style="fill:#198fa1" />
          <path
             id="path3769"
             d="m 319,81.6 c -0.5,-0.2 -0.9,-0.6 -1.5,-0.3 -0.2,0.1 -0.4,0.3 -0.6,0.4 -0.9,0.2 -1.7,-0.8 -2.6,-0.1 -0.3,0.2 -0.5,-0.3 -0.2,-0.5 0.9,-0.9 1.6,0 2.5,-0.2 0.4,-0.1 0.8,-0.6 1.2,-0.7 0.5,-0.1 1,0.3 1.5,0.5 0.4,0.1 0.2,1.1 -0.3,0.9 z"
             inkscape:connector-curvature="0"
             style="fill:#198fa1" />
          <path
             id="path3771"
             d="m 325.4,81.5 c -0.9,0.1 -1.8,0 -2.6,-0.3 -0.7,-0.2 -1.2,0.3 -1.9,0.2 -0.2,0 -0.3,-0.6 0,-0.6 0.6,0 1.1,-0.6 1.7,-0.5 0.4,0.1 0.8,0.2 1.2,0.3 0.5,0 1.1,-0.1 1.6,-0.1 0.5,0 0.5,0.9 0,1 z"
             inkscape:connector-curvature="0"
             style="fill:#198fa1" />
          <path
             id="path3773"
             d="m 333.1,81.3 c -0.8,-0.1 -1.5,-0.7 -2.3,-0.7 -0.8,0 -1.5,0.5 -2.2,0.5 0,0.1 0.1,0.2 0.1,0.3 0.1,0.2 -0.1,0.4 -0.2,0.2 -0.1,-0.2 -0.2,-0.3 -0.3,-0.5 -0.1,-0.1 -0.1,-0.3 0,-0.3 1.6,-1.6 3.3,-1.3 5,-0.6 0.4,0.2 0.4,1.2 -0.1,1.1 z"
             inkscape:connector-curvature="0"
             style="fill:#198fa1" />
          <path
             id="path3775"
             d="m 340.5,81.4 c -0.2,-1.3 -4.3,-0.4 -5.1,-0.4 -0.2,0 -0.2,-0.4 0,-0.5 1.8,-0.2 3.7,-1 5.4,-0.3 0.1,0 0.2,0.2 0.3,0.4 0,0.2 0.1,0.4 0.1,0.5 0.1,0.6 -0.6,0.9 -0.7,0.3 z"
             inkscape:connector-curvature="0"
             style="fill:#198fa1" />
          <path
             id="path3777"
             d="m 348.3,81.4 c -0.7,-1.2 -1.6,0.3 -2.5,0.1 -0.3,-0.1 -0.5,-0.2 -0.7,-0.4 -0.7,-0.5 -0.9,-0.3 -1.5,0.1 -0.1,0.1 -0.1,-0.1 -0.1,-0.1 0.3,-0.3 0.6,-0.8 0.9,-0.9 0.7,-0.2 1.2,0.8 2,0.4 0.9,-0.5 1.6,-1.2 2.4,0.1 0.3,0.4 -0.2,1.2 -0.5,0.7 z"
             inkscape:connector-curvature="0"
             style="fill:#198fa1" />
          <path
             id="path3779"
             d="m 357.6,81.3 c -2,0.1 -3.9,0 -5.9,-0.2 -0.2,0 -0.2,-0.4 0,-0.4 1.9,-0.3 3.9,-0.5 5.9,-0.5 0.4,0.1 0.4,1.1 0,1.1 z"
             inkscape:connector-curvature="0"
             style="fill:#198fa1" />
          <path
             id="path3781"
             d="m 365.2,81.1 c -1.8,0.1 -3.6,-0.1 -5.4,-0.3 -0.1,0 -0.1,-0.2 0,-0.2 1.8,-0.3 3.6,-0.6 5.4,-0.6 0.5,0.1 0.5,1.1 0,1.1 z"
             inkscape:connector-curvature="0"
             style="fill:#198fa1" />
          <path
             id="path3783"
             d="m 373.5,81.2 c -0.1,-0.7 -2.5,-0.4 -3,-0.4 -0.4,0 -0.8,0.1 -1.2,0.1 -0.5,-0.1 -0.8,-0.3 -1.3,-0.3 -0.1,0 -0.1,-0.1 0,-0.1 0.4,-0.1 0.9,0 1.3,0 0.5,-0.1 1,-0.3 1.6,-0.4 1,-0.2 2,-0.4 3,-0.1 0.1,0 0.2,0.2 0.3,0.4 0,0.2 0,0.4 0.1,0.5 0,0.6 -0.7,0.9 -0.8,0.3 z"
             inkscape:connector-curvature="0"
             style="fill:#198fa1" />
          <path
             id="path3785"
             d="m 383.3,81.3 c -1.9,0.1 -4,0.1 -5.9,-0.3 0,0 0,-0.1 0,-0.1 1.9,-0.5 4,-0.6 5.9,-0.6 0.5,0 0.5,1 0,1 z"
             inkscape:connector-curvature="0"
             style="fill:#198fa1" />
          <path
             id="path3787"
             d="m 392.8,81 c -2.2,0.2 -4.6,0 -6.8,-0.3 0,0 -0.1,-0.1 0,-0.1 2.2,-0.3 4.5,-0.7 6.8,-0.6 0.5,0.1 0.5,1 0,1 z"
             inkscape:connector-curvature="0"
             style="fill:#198fa1" />
          <path
             id="path3789"
             d="m 402.5,81.4 c -0.6,-1.1 -2.2,-0.9 -3.1,-0.9 -1,0 -2,0.3 -2.9,0.1 -0.2,0 -0.2,-0.4 0,-0.5 1.2,-0.3 2.5,-0.5 3.7,-0.7 1,-0.1 2.2,-0.2 3,0.9 0.3,0.8 -0.4,1.7 -0.7,1.1 z"
             inkscape:connector-curvature="0"
             style="fill:#198fa1" />
        </g>
        <g
           id="g3791">
          <path
             id="path3793"
             d="m 410.4,38.9 c -0.5,0.2 -0.9,0.6 -1.5,0.4 -0.2,-0.1 -0.4,-0.3 -0.6,-0.4 -0.9,-0.2 -1.7,0.8 -2.6,0.2 -0.3,-0.2 -0.5,0.3 -0.2,0.5 0.9,0.8 1.6,-0.1 2.5,0.1 0.4,0.1 0.8,0.6 1.2,0.7 0.5,0.1 1,-0.3 1.5,-0.5 0.3,-0.1 0.1,-1.2 -0.3,-1 z"
             inkscape:connector-curvature="0"
             style="fill:#198fa1" />
          <path
             id="path3795"
             d="m 416.8,38.9 c -0.9,-0.1 -1.8,0.1 -2.6,0.4 -0.7,0.2 -1.2,-0.2 -1.9,-0.2 -0.2,0 -0.3,0.6 0,0.6 0.6,0 1.1,0.6 1.7,0.5 0.4,-0.1 0.8,-0.3 1.2,-0.3 0.5,0 1.1,0.1 1.6,0 0.5,0 0.5,-0.9 0,-1 z"
             inkscape:connector-curvature="0"
             style="fill:#198fa1" />
          <path
             id="path3797"
             d="m 424.5,38.9 c -0.8,0.1 -1.5,0.7 -2.3,0.7 -0.8,0 -1.5,-0.4 -2.2,-0.5 0,-0.1 0.1,-0.2 0.1,-0.3 0.1,-0.2 -0.1,-0.4 -0.2,-0.2 -0.1,0.2 -0.2,0.4 -0.3,0.5 -0.1,0.1 -0.1,0.3 0,0.3 1.6,1.6 3.3,1.2 5,0.5 0.4,-0.1 0.4,-1.1 -0.1,-1 z"
             inkscape:connector-curvature="0"
             style="fill:#198fa1" />
          <path
             id="path3799"
             d="m 431.9,38.6 c -0.2,1.3 -4.3,0.5 -5.1,0.6 -0.2,0 -0.2,0.4 0,0.5 1.8,0.2 3.7,0.9 5.4,0.2 0.1,0 0.2,-0.2 0.3,-0.4 0,-0.2 0,-0.4 0.1,-0.5 0,-0.8 -0.6,-1.1 -0.7,-0.4 z"
             inkscape:connector-curvature="0"
             style="fill:#198fa1" />
          <path
             id="path3801"
             d="m 439.6,38.4 c -0.7,1.2 -1.6,-0.3 -2.5,-0.1 -0.3,0.1 -0.5,0.3 -0.7,0.4 -0.7,0.5 -0.9,0.4 -1.5,-0.1 -0.1,0 -0.1,0.1 -0.1,0.2 0.3,0.3 0.6,0.8 0.9,0.9 0.7,0.2 1.1,-0.8 1.9,-0.5 1,0.4 1.6,1.2 2.4,-0.1 0.4,-0.5 -0.1,-1.2 -0.4,-0.7 z"
             inkscape:connector-curvature="0"
             style="fill:#198fa1" />
          <path
             id="path3803"
             d="m 448.9,38.2 c -2,-0.1 -3.9,0.1 -5.9,0.3 -0.2,0 -0.2,0.4 0,0.4 1.9,0.2 3.9,0.4 5.9,0.3 0.5,0.1 0.5,-1 0,-1 z"
             inkscape:connector-curvature="0"
             style="fill:#198fa1" />
          <path
             id="path3805"
             d="m 456.6,38.2 c -1.8,-0.1 -3.6,0.2 -5.4,0.4 -0.1,0 -0.1,0.2 0,0.2 1.8,0.3 3.6,0.5 5.4,0.4 0.5,0.1 0.5,-1 0,-1 z"
             inkscape:connector-curvature="0"
             style="fill:#198fa1" />
          <path
             id="path3807"
             d="m 464.9,38 c -0.1,0.8 -2.5,0.4 -3,0.4 -0.4,0 -0.8,-0.1 -1.2,-0.1 -0.5,0.1 -0.8,0.3 -1.3,0.3 -0.1,0 -0.1,0.1 0,0.1 0.5,0.1 0.9,-0.1 1.3,0 0.5,0 1,0.3 1.6,0.3 1,0.1 2,0.3 3,0 0.1,0 0.2,-0.2 0.3,-0.4 0,-0.2 0,-0.4 0.1,-0.6 -0.1,-0.4 -0.7,-0.7 -0.8,0 z"
             inkscape:connector-curvature="0"
             style="fill:#198fa1" />
          <path
             id="path3809"
             d="m 474.7,38.2 c -1.9,-0.1 -4,-0.1 -5.9,0.3 0,0 0,0.1 0,0.1 1.9,0.5 4,0.6 5.9,0.6 0.4,0 0.4,-1 0,-1 z"
             inkscape:connector-curvature="0"
             style="fill:#198fa1" />
          <path
             id="path3811"
             d="m 484.2,38.4 c -2.2,-0.2 -4.6,0 -6.8,0.3 0,0 -0.1,0.1 0,0.1 2.2,0.3 4.5,0.7 6.8,0.6 0.4,0 0.4,-1 0,-1 z"
             inkscape:connector-curvature="0"
             style="fill:#198fa1" />
          <path
             id="path3813"
             d="m 493.8,37 c -0.6,1.1 -2.2,0.9 -3.1,0.9 -1,0 -2,-0.2 -2.9,-0.1 -0.2,0 -0.2,0.4 0,0.5 1.2,0.2 2.5,0.5 3.7,0.6 1,0.1 2.2,0.1 3,-1 0.4,-0.6 -0.3,-1.5 -0.7,-0.9 z"
             inkscape:connector-curvature="0"
             style="fill:#198fa1" />
          <path
             id="path3815"
             d="m 410.4,81.6 c -0.5,-0.2 -0.9,-0.6 -1.5,-0.3 -0.2,0.1 -0.4,0.3 -0.6,0.4 -0.9,0.2 -1.7,-0.8 -2.6,-0.1 -0.3,0.2 -0.5,-0.3 -0.2,-0.5 0.9,-0.9 1.6,0 2.5,-0.2 0.4,-0.1 0.8,-0.6 1.2,-0.7 0.5,-0.1 1,0.3 1.5,0.5 0.3,0.1 0.1,1.1 -0.3,0.9 z"
             inkscape:connector-curvature="0"
             style="fill:#198fa1" />
          <path
             id="path3817"
             d="m 416.8,81.5 c -0.9,0.1 -1.8,0 -2.6,-0.3 -0.7,-0.2 -1.2,0.3 -1.9,0.2 -0.2,0 -0.3,-0.6 0,-0.6 0.6,0 1.1,-0.6 1.7,-0.5 0.4,0.1 0.8,0.2 1.2,0.3 0.5,0 1.1,-0.1 1.6,-0.1 0.4,0 0.4,0.9 0,1 z"
             inkscape:connector-curvature="0"
             style="fill:#198fa1" />
          <path
             id="path3819"
             d="m 424.5,81.3 c -0.8,-0.1 -1.5,-0.7 -2.3,-0.7 -0.8,0 -1.5,0.5 -2.2,0.5 0,0.1 0.1,0.2 0.1,0.3 0.1,0.2 -0.1,0.4 -0.2,0.2 -0.1,-0.2 -0.2,-0.3 -0.3,-0.5 -0.1,-0.1 -0.1,-0.3 0,-0.3 1.6,-1.6 3.3,-1.3 5,-0.6 0.4,0.2 0.3,1.2 -0.1,1.1 z"
             inkscape:connector-curvature="0"
             style="fill:#198fa1" />
          <path
             id="path3821"
             d="m 431.8,81.4 c -0.2,-1.3 -4.3,-0.4 -5.1,-0.4 -0.2,0 -0.2,-0.4 0,-0.5 1.8,-0.2 3.7,-1 5.4,-0.3 0.1,0 0.2,0.2 0.3,0.4 0,0.2 0.1,0.4 0.1,0.5 0.1,0.6 -0.6,0.9 -0.7,0.3 z"
             inkscape:connector-curvature="0"
             style="fill:#198fa1" />
          <path
             id="path3823"
             d="m 439.6,81.4 c -0.7,-1.2 -1.6,0.3 -2.5,0.1 -0.3,-0.1 -0.5,-0.2 -0.7,-0.4 -0.7,-0.5 -0.9,-0.3 -1.5,0.1 -0.1,0.1 -0.1,-0.1 -0.1,-0.1 0.3,-0.3 0.6,-0.8 0.9,-0.9 0.7,-0.2 1.2,0.8 2,0.4 0.9,-0.5 1.6,-1.2 2.4,0.1 0.3,0.4 -0.2,1.2 -0.5,0.7 z"
             inkscape:connector-curvature="0"
             style="fill:#198fa1" />
          <path
             id="path3825"
             d="m 448.9,81.3 c -2,0.1 -3.9,0 -5.9,-0.2 -0.2,0 -0.2,-0.4 0,-0.4 1.9,-0.3 3.9,-0.5 5.9,-0.5 0.5,0.1 0.5,1.1 0,1.1 z"
             inkscape:connector-curvature="0"
             style="fill:#198fa1" />
          <path
             id="path3827"
             d="m 456.6,81.1 c -1.8,0.1 -3.6,-0.1 -5.4,-0.3 -0.1,0 -0.1,-0.2 0,-0.2 1.8,-0.3 3.6,-0.6 5.4,-0.6 0.5,0.1 0.5,1.1 0,1.1 z"
             inkscape:connector-curvature="0"
             style="fill:#198fa1" />
          <path
             id="path3829"
             d="m 464.9,81.2 c -0.1,-0.7 -2.5,-0.4 -3,-0.4 -0.4,0 -0.8,0.1 -1.2,0.1 -0.5,-0.1 -0.8,-0.3 -1.3,-0.3 -0.1,0 -0.1,-0.1 0,-0.1 0.4,-0.1 0.9,0 1.3,0 0.5,-0.1 1,-0.3 1.6,-0.4 1,-0.2 2,-0.4 3,-0.1 0.1,0 0.2,0.2 0.3,0.4 0,0.2 0,0.4 0.1,0.5 -0.1,0.6 -0.7,0.9 -0.8,0.3 z"
             inkscape:connector-curvature="0"
             style="fill:#198fa1" />
          <path
             id="path3831"
             d="m 474.7,81.3 c -1.9,0.1 -4,0.1 -5.9,-0.3 0,0 0,-0.1 0,-0.1 1.9,-0.5 4,-0.6 5.9,-0.6 0.4,0 0.4,1 0,1 z"
             inkscape:connector-curvature="0"
             style="fill:#198fa1" />
          <path
             id="path3833"
             d="m 484.2,81 c -2.2,0.2 -4.6,0 -6.8,-0.3 0,0 -0.1,-0.1 0,-0.1 2.2,-0.3 4.5,-0.7 6.8,-0.6 0.4,0.1 0.4,1 0,1 z"
             inkscape:connector-curvature="0"
             style="fill:#198fa1" />
          <path
             id="path3835"
             d="m 493.8,81.4 c -0.6,-1.1 -2.2,-0.9 -3.1,-0.9 -1,0 -2,0.3 -2.9,0.1 -0.2,0 -0.2,-0.4 0,-0.5 1.2,-0.3 2.5,-0.5 3.7,-0.7 1,-0.1 2.2,-0.2 3,0.9 0.3,0.8 -0.3,1.7 -0.7,1.1 z"
             inkscape:connector-curvature="0"
             style="fill:#198fa1" />
          <path
             id="path3837"
             d="M 588.7,32.9 C 572.8,31.7 557,32.5 541.1,32 c -8.1,-0.2 -16,0.2 -24,0.6 -7.3,0.4 -14.5,-0.5 -21.8,-0.6 -0.3,0 -0.5,0.3 -0.6,0.6 -14.9,-0.9 -29.9,-0.3 -44.9,-0.7 -8.1,-0.2 -16,0.2 -24,0.6 -7.3,0.4 -14.5,-0.5 -21.8,-0.6 -0.9,0 -0.9,2 0,2 0.2,0 0.4,0.1 0.6,0.1 -0.2,0.1 -0.5,0.1 -0.7,0.2 -0.2,0.1 -0.1,0.5 0,0.5 0.7,-0.1 1.4,0.1 2.2,0.1 0.8,0.1 1.6,-0.1 2.4,-0.2 5.8,0.8 11.5,1.2 17.4,0.9 8,-0.4 16,-0.8 24,-0.6 8,0.2 16,-0.4 24.1,-0.2 7.4,0.2 14.7,0.5 22.1,0.3 0.9,0.2 1.8,0.3 2.8,0.3 1.5,-0.1 2.9,-0.2 4.4,-0.3 4.6,0.5 9.2,0.7 14,0.5 8,-0.4 16,-0.8 24,-0.6 8,0.2 16,-0.4 24.1,-0.2 7.9,0.2 15.7,0.5 23.5,0.3 0.8,0 0.8,-2.1 -0.2,-2.1 z"
             inkscape:connector-curvature="0"
             style="fill:#198fa1" />
          <path
             id="path3839"
             d="m 501.7,38.9 c -0.5,0.2 -0.9,0.6 -1.5,0.4 -0.2,-0.1 -0.4,-0.3 -0.6,-0.4 -0.9,-0.2 -1.7,0.8 -2.6,0.2 -0.3,-0.2 -0.5,0.3 -0.2,0.5 0.9,0.8 1.6,-0.1 2.5,0.1 0.4,0.1 0.8,0.6 1.2,0.7 0.5,0.1 1,-0.3 1.5,-0.5 0.4,-0.1 0.2,-1.2 -0.3,-1 z"
             inkscape:connector-curvature="0"
             style="fill:#198fa1" />
          <path
             id="path3841"
             d="m 508.2,38.9 c -0.9,-0.1 -1.8,0.1 -2.6,0.4 -0.7,0.2 -1.2,-0.2 -1.9,-0.2 -0.2,0 -0.3,0.6 0,0.6 0.6,0 1.1,0.6 1.7,0.5 0.4,-0.1 0.8,-0.3 1.2,-0.3 0.5,0 1.1,0.1 1.6,0 0.4,0 0.4,-0.9 0,-1 z"
             inkscape:connector-curvature="0"
             style="fill:#198fa1" />
          <path
             id="path3843"
             d="m 515.9,38.9 c -0.8,0.1 -1.5,0.7 -2.3,0.7 -0.8,0 -1.5,-0.4 -2.2,-0.5 0,-0.1 0.1,-0.2 0.1,-0.3 0.1,-0.2 -0.1,-0.4 -0.2,-0.2 -0.1,0.2 -0.2,0.4 -0.3,0.5 -0.1,0.1 -0.1,0.3 0,0.3 1.6,1.6 3.3,1.2 5,0.5 0.4,-0.1 0.3,-1.1 -0.1,-1 z"
             inkscape:connector-curvature="0"
             style="fill:#198fa1" />
          <path
             id="path3845"
             d="m 523.2,38.6 c -0.2,1.3 -4.3,0.5 -5.1,0.6 -0.2,0 -0.2,0.4 0,0.5 1.8,0.2 3.7,0.9 5.4,0.2 0.1,0 0.2,-0.2 0.3,-0.4 0,-0.2 0,-0.4 0.1,-0.5 0.1,-0.8 -0.6,-1.1 -0.7,-0.4 z"
             inkscape:connector-curvature="0"
             style="fill:#198fa1" />
          <path
             id="path3847"
             d="m 531,38.4 c -0.7,1.2 -1.6,-0.3 -2.5,-0.1 -0.3,0.1 -0.5,0.3 -0.7,0.4 -0.7,0.5 -0.9,0.4 -1.5,-0.1 -0.1,0 -0.1,0.1 -0.1,0.2 0.3,0.3 0.6,0.8 0.9,0.9 0.7,0.2 1.1,-0.8 1.9,-0.5 1,0.4 1.6,1.2 2.4,-0.1 0.4,-0.5 -0.1,-1.2 -0.4,-0.7 z"
             inkscape:connector-curvature="0"
             style="fill:#198fa1" />
          <path
             id="path3849"
             d="m 540.3,38.2 c -2,-0.1 -3.9,0.1 -5.9,0.3 -0.2,0 -0.2,0.4 0,0.4 1.9,0.2 3.9,0.4 5.9,0.3 0.5,0.1 0.5,-1 0,-1 z"
             inkscape:connector-curvature="0"
             style="fill:#198fa1" />
          <path
             id="path3851"
             d="m 548,38.2 c -1.8,-0.1 -3.6,0.2 -5.4,0.4 -0.1,0 -0.1,0.2 0,0.2 1.8,0.3 3.6,0.5 5.4,0.4 0.4,0.1 0.4,-1 0,-1 z"
             inkscape:connector-curvature="0"
             style="fill:#198fa1" />
          <path
             id="path3853"
             d="m 556.2,38 c -0.1,0.8 -2.5,0.4 -3,0.4 -0.4,0 -0.8,-0.1 -1.2,-0.1 -0.5,0.1 -0.8,0.3 -1.3,0.3 -0.1,0 -0.1,0.1 0,0.1 0.5,0.1 0.9,-0.1 1.3,0 0.5,0 1,0.3 1.6,0.3 1,0.1 2,0.3 3,0 0.1,0 0.2,-0.2 0.3,-0.4 0,-0.2 0,-0.4 0.1,-0.6 0,-0.4 -0.7,-0.7 -0.8,0 z"
             inkscape:connector-curvature="0"
             style="fill:#198fa1" />
          <path
             id="path3855"
             d="m 566,38.2 c -1.9,-0.1 -4,-0.1 -5.9,0.3 0,0 0,0.1 0,0.1 1.9,0.5 4,0.6 5.9,0.6 0.5,0 0.5,-1 0,-1 z"
             inkscape:connector-curvature="0"
             style="fill:#198fa1" />
          <path
             id="path3857"
             d="m 575.5,38.4 c -2.2,-0.2 -4.6,0 -6.8,0.3 0,0 -0.1,0.1 0,0.1 2.2,0.3 4.5,0.7 6.8,0.6 0.5,0 0.5,-1 0,-1 z"
             inkscape:connector-curvature="0"
             style="fill:#198fa1" />
          <path
             id="path3859"
             d="m 585.2,37 c -0.6,1.1 -2.2,0.9 -3.1,0.9 -1,0 -2,-0.2 -2.9,-0.1 -0.2,0 -0.2,0.4 0,0.5 1.2,0.2 2.5,0.5 3.7,0.6 1,0.1 2.2,0.1 3,-1 0.3,-0.6 -0.3,-1.5 -0.7,-0.9 z"
             inkscape:connector-curvature="0"
             style="fill:#198fa1" />
          <path
             id="path3861"
             d="m 588.7,84.3 c -7.9,-0.2 -15.7,0.1 -23.5,0.3 -8,0.2 -16,-0.3 -24.1,-0.1 -8.1,0.2 -16,-0.3 -24,-0.6 -6,-0.3 -11.9,0.2 -17.9,1 -0.4,0 -0.8,-0.1 -1.2,-0.1 -0.1,-0.3 -0.3,-0.6 -0.6,-0.6 -7.9,-0.2 -15.7,0.1 -23.5,0.3 -8,0.2 -16,-0.3 -24.1,-0.1 -8.1,0.2 -16,-0.3 -24,-0.6 -6.5,-0.3 -12.8,0.2 -19.2,1.2 -1.2,0 -2.5,0 -3.7,0.1 -0.1,0 -0.1,0.1 0,0.2 0.4,0 0.9,0.1 1.3,0.1 -0.1,0 -0.2,0 -0.2,0 -0.5,0 -0.7,0.5 -0.6,1.1 -3.2,0.2 -6.5,0.2 -9.7,0.2 -0.1,0 -0.1,0.2 0,0.2 5,0.5 10,0.9 15.1,0.3 5.7,-0.3 11.4,-0.8 17.1,-0.5 8,0.5 16,0.8 24,0.6 14.7,-0.4 29.3,0.2 44,-0.7 1.6,0.4 3,0.6 4.7,0.5 1.1,-0.1 2.2,0 3.3,0 0,0 0.1,0 0.1,0 0.1,0 0.2,0 0.3,0 1.8,0 3.6,0 5.3,-0.3 3.2,-0.2 6.4,-0.3 9.7,-0.1 8,0.5 16,0.8 24,0.6 15.9,-0.5 31.7,0.3 47.6,-0.9 0.8,0.1 0.8,-2 -0.2,-2.1 z"
             inkscape:connector-curvature="0"
             style="fill:#198fa1" />
          <path
             id="path3863"
             d="m 501.7,81.6 c -0.5,-0.2 -0.9,-0.6 -1.5,-0.3 -0.2,0.1 -0.4,0.3 -0.6,0.4 -0.9,0.2 -1.7,-0.8 -2.6,-0.1 -0.3,0.2 -0.5,-0.3 -0.2,-0.5 0.9,-0.9 1.6,0 2.5,-0.2 0.4,-0.1 0.8,-0.6 1.2,-0.7 0.5,-0.1 1,0.3 1.5,0.5 0.4,0.1 0.2,1.1 -0.3,0.9 z"
             inkscape:connector-curvature="0"
             style="fill:#198fa1" />
          <path
             id="path3865"
             d="m 508.1,81.5 c -0.9,0.1 -1.8,0 -2.6,-0.3 -0.7,-0.2 -1.2,0.3 -1.9,0.2 -0.2,0 -0.3,-0.6 0,-0.6 0.6,0 1.1,-0.6 1.7,-0.5 0.4,0.1 0.8,0.2 1.2,0.3 0.5,0 1.1,-0.1 1.6,-0.1 0.5,0 0.5,0.9 0,1 z"
             inkscape:connector-curvature="0"
             style="fill:#198fa1" />
          <path
             id="path3867"
             d="m 515.8,81.3 c -0.8,-0.1 -1.5,-0.7 -2.3,-0.7 -0.8,0 -1.5,0.5 -2.2,0.5 0,0.1 0.1,0.2 0.1,0.3 0.1,0.2 -0.1,0.4 -0.2,0.2 -0.1,-0.2 -0.2,-0.3 -0.3,-0.5 -0.1,-0.1 -0.1,-0.3 0,-0.3 1.6,-1.6 3.3,-1.3 5,-0.6 0.4,0.2 0.4,1.2 -0.1,1.1 z"
             inkscape:connector-curvature="0"
             style="fill:#198fa1" />
          <path
             id="path3869"
             d="M 523.2,81.4 C 523,80.1 518.9,81 518.1,81 c -0.2,0 -0.2,-0.4 0,-0.5 1.8,-0.2 3.7,-1 5.4,-0.3 0.1,0 0.2,0.2 0.3,0.4 0,0.2 0.1,0.4 0.1,0.5 0.1,0.6 -0.6,0.9 -0.7,0.3 z"
             inkscape:connector-curvature="0"
             style="fill:#198fa1" />
          <path
             id="path3871"
             d="m 531,81.4 c -0.7,-1.2 -1.6,0.3 -2.5,0.1 -0.3,-0.1 -0.5,-0.2 -0.7,-0.4 -0.7,-0.5 -0.9,-0.3 -1.5,0.1 -0.1,0.1 -0.1,-0.1 -0.1,-0.1 0.3,-0.3 0.6,-0.8 0.9,-0.9 0.7,-0.2 1.2,0.8 2,0.4 0.9,-0.5 1.6,-1.2 2.4,0.1 0.2,0.4 -0.2,1.2 -0.5,0.7 z"
             inkscape:connector-curvature="0"
             style="fill:#198fa1" />
          <path
             id="path3873"
             d="m 540.3,81.3 c -2,0.1 -3.9,0 -5.9,-0.2 -0.2,0 -0.2,-0.4 0,-0.4 1.9,-0.3 3.9,-0.5 5.9,-0.5 0.4,0.1 0.4,1.1 0,1.1 z"
             inkscape:connector-curvature="0"
             style="fill:#198fa1" />
          <path
             id="path3875"
             d="m 547.9,81.1 c -1.8,0.1 -3.6,-0.1 -5.4,-0.3 -0.1,0 -0.1,-0.2 0,-0.2 1.8,-0.3 3.6,-0.6 5.4,-0.6 0.5,0.1 0.5,1.1 0,1.1 z"
             inkscape:connector-curvature="0"
             style="fill:#198fa1" />
          <path
             id="path3877"
             d="m 556.2,81.2 c -0.1,-0.7 -2.5,-0.4 -3,-0.4 -0.4,0 -0.8,0.1 -1.2,0.1 -0.5,-0.1 -0.8,-0.3 -1.3,-0.3 -0.1,0 -0.1,-0.1 0,-0.1 0.4,-0.1 0.9,0 1.3,0 0.5,-0.1 1,-0.3 1.6,-0.4 1,-0.2 2,-0.4 3,-0.1 0.1,0 0.2,0.2 0.3,0.4 0,0.2 0,0.4 0.1,0.5 -0.1,0.6 -0.7,0.9 -0.8,0.3 z"
             inkscape:connector-curvature="0"
             style="fill:#198fa1" />
          <path
             id="path3879"
             d="m 566,81.3 c -1.9,0.1 -4,0.1 -5.9,-0.3 0,0 0,-0.1 0,-0.1 1.9,-0.5 4,-0.6 5.9,-0.6 0.5,0 0.5,1 0,1 z"
             inkscape:connector-curvature="0"
             style="fill:#198fa1" />
          <path
             id="path3881"
             d="m 575.5,81 c -2.2,0.2 -4.6,0 -6.8,-0.3 0,0 -0.1,-0.1 0,-0.1 2.2,-0.3 4.5,-0.7 6.8,-0.6 0.5,0.1 0.5,1 0,1 z"
             inkscape:connector-curvature="0"
             style="fill:#198fa1" />
          <path
             id="path3883"
             d="m 585.2,81.4 c -0.6,-1.1 -2.2,-0.9 -3.1,-0.9 -1,0 -2,0.3 -2.9,0.1 -0.2,0 -0.2,-0.4 0,-0.5 1.2,-0.3 2.5,-0.5 3.7,-0.7 1,-0.1 2.2,-0.2 3,0.9 0.3,0.8 -0.4,1.7 -0.7,1.1 z"
             inkscape:connector-curvature="0"
             style="fill:#198fa1" />
        </g>
        <g
           id="g3885">
          <path
             id="path3887"
             d="m 596.7,38.9 c -0.5,0.2 -0.9,0.6 -1.5,0.4 -0.2,-0.1 -0.4,-0.3 -0.6,-0.4 -0.9,-0.2 -1.7,0.8 -2.6,0.2 -0.3,-0.2 -0.5,0.3 -0.2,0.5 0.9,0.8 1.6,-0.1 2.5,0.1 0.4,0.1 0.8,0.6 1.2,0.7 0.5,0.1 1,-0.3 1.5,-0.5 0.4,-0.1 0.2,-1.2 -0.3,-1 z"
             inkscape:connector-curvature="0"
             style="fill:#198fa1" />
          <path
             id="path3889"
             d="m 603.1,38.9 c -0.9,-0.1 -1.8,0.1 -2.6,0.4 -0.7,0.2 -1.2,-0.2 -1.9,-0.2 -0.2,0 -0.3,0.6 0,0.6 0.6,0 1.1,0.6 1.7,0.5 0.4,-0.1 0.8,-0.3 1.2,-0.3 0.5,0 1.1,0.1 1.6,0 0.5,0 0.5,-0.9 0,-1 z"
             inkscape:connector-curvature="0"
             style="fill:#198fa1" />
          <path
             id="path3891"
             d="m 610.8,38.9 c -0.8,0.1 -1.5,0.7 -2.3,0.7 -0.8,0 -1.5,-0.4 -2.2,-0.5 0,-0.1 0.1,-0.2 0.1,-0.3 0.1,-0.2 -0.1,-0.4 -0.2,-0.2 -0.1,0.2 -0.2,0.4 -0.3,0.5 -0.1,0.1 -0.1,0.3 0,0.3 1.6,1.6 3.3,1.2 5,0.5 0.4,-0.1 0.4,-1.1 -0.1,-1 z"
             inkscape:connector-curvature="0"
             style="fill:#198fa1" />
          <path
             id="path3893"
             d="m 618.2,38.6 c -0.2,1.3 -4.3,0.5 -5.1,0.6 -0.2,0 -0.2,0.4 0,0.5 1.8,0.2 3.7,0.9 5.4,0.2 0.1,0 0.2,-0.2 0.3,-0.4 0,-0.2 0,-0.4 0.1,-0.5 0.1,-0.8 -0.6,-1.1 -0.7,-0.4 z"
             inkscape:connector-curvature="0"
             style="fill:#198fa1" />
          <path
             id="path3895"
             d="m 626,38.4 c -0.7,1.2 -1.6,-0.3 -2.5,-0.1 -0.3,0.1 -0.5,0.3 -0.7,0.4 -0.7,0.5 -0.9,0.4 -1.5,-0.1 -0.1,0 -0.1,0.1 -0.1,0.2 0.3,0.3 0.6,0.8 0.9,0.9 0.7,0.2 1.1,-0.8 1.9,-0.5 1,0.4 1.6,1.2 2.4,-0.1 0.3,-0.5 -0.1,-1.2 -0.4,-0.7 z"
             inkscape:connector-curvature="0"
             style="fill:#198fa1" />
          <path
             id="path3897"
             d="m 635.3,38.2 c -2,-0.1 -3.9,0.1 -5.9,0.3 -0.2,0 -0.2,0.4 0,0.4 1.9,0.2 3.9,0.4 5.9,0.3 0.4,0.1 0.4,-1 0,-1 z"
             inkscape:connector-curvature="0"
             style="fill:#198fa1" />
          <path
             id="path3899"
             d="m 642.9,38.2 c -1.8,-0.1 -3.6,0.2 -5.4,0.4 -0.1,0 -0.1,0.2 0,0.2 1.8,0.3 3.6,0.5 5.4,0.4 0.5,0.1 0.5,-1 0,-1 z"
             inkscape:connector-curvature="0"
             style="fill:#198fa1" />
          <path
             id="path3901"
             d="m 651.2,38 c -0.1,0.8 -2.5,0.4 -3,0.4 -0.4,0 -0.8,-0.1 -1.2,-0.1 -0.5,0.1 -0.8,0.3 -1.3,0.3 -0.1,0 -0.1,0.1 0,0.1 0.5,0.1 0.9,-0.1 1.3,0 0.5,0 1,0.3 1.6,0.3 1,0.1 2,0.3 3,0 0.1,0 0.2,-0.2 0.3,-0.4 0,-0.2 0,-0.4 0.1,-0.6 -0.1,-0.4 -0.7,-0.7 -0.8,0 z"
             inkscape:connector-curvature="0"
             style="fill:#198fa1" />
          <path
             id="path3903"
             d="m 661,38.2 c -1.9,-0.1 -4,-0.1 -5.9,0.3 0,0 0,0.1 0,0.1 1.9,0.5 4,0.6 5.9,0.6 0.4,0 0.5,-1 0,-1 z"
             inkscape:connector-curvature="0"
             style="fill:#198fa1" />
          <path
             id="path3905"
             d="m 670.5,38.4 c -2.2,-0.2 -4.6,0 -6.8,0.3 0,0 -0.1,0.1 0,0.1 2.2,0.3 4.5,0.7 6.8,0.6 0.4,0 0.4,-1 0,-1 z"
             inkscape:connector-curvature="0"
             style="fill:#198fa1" />
          <path
             id="path3907"
             d="m 680.2,37 c -0.6,1.1 -2.2,0.9 -3.1,0.9 -1,0 -2,-0.2 -2.9,-0.1 -0.2,0 -0.2,0.4 0,0.5 1.2,0.2 2.5,0.5 3.7,0.6 1,0.1 2.2,0.1 3,-1 0.3,-0.6 -0.4,-1.5 -0.7,-0.9 z"
             inkscape:connector-curvature="0"
             style="fill:#198fa1" />
          <path
             id="path3909"
             d="m 596.7,81.6 c -0.5,-0.2 -0.9,-0.6 -1.5,-0.3 -0.2,0.1 -0.4,0.3 -0.6,0.4 -0.9,0.2 -1.7,-0.8 -2.6,-0.1 -0.3,0.2 -0.5,-0.3 -0.2,-0.5 0.9,-0.9 1.6,0 2.5,-0.2 0.4,-0.1 0.8,-0.6 1.2,-0.7 0.5,-0.1 1,0.3 1.5,0.5 0.3,0.1 0.1,1.1 -0.3,0.9 z"
             inkscape:connector-curvature="0"
             style="fill:#198fa1" />
          <path
             id="path3911"
             d="m 603.1,81.5 c -0.9,0.1 -1.8,0 -2.6,-0.3 -0.7,-0.2 -1.2,0.3 -1.9,0.2 -0.2,0 -0.3,-0.6 0,-0.6 0.6,0 1.1,-0.6 1.7,-0.5 0.4,0.1 0.8,0.2 1.2,0.3 0.5,0 1.1,-0.1 1.6,-0.1 0.4,0 0.4,0.9 0,1 z"
             inkscape:connector-curvature="0"
             style="fill:#198fa1" />
          <path
             id="path3913"
             d="m 610.8,81.3 c -0.8,-0.1 -1.5,-0.7 -2.3,-0.7 -0.8,0 -1.5,0.5 -2.2,0.5 0,0.1 0.1,0.2 0.1,0.3 0.1,0.2 -0.1,0.4 -0.2,0.2 -0.1,-0.2 -0.2,-0.3 -0.3,-0.5 -0.1,-0.1 -0.1,-0.3 0,-0.3 1.6,-1.6 3.3,-1.3 5,-0.6 0.4,0.2 0.4,1.2 -0.1,1.1 z"
             inkscape:connector-curvature="0"
             style="fill:#198fa1" />
          <path
             id="path3915"
             d="M 618.1,81.4 C 617.9,80.1 613.8,81 613,81 c -0.2,0 -0.2,-0.4 0,-0.5 1.8,-0.2 3.7,-1 5.4,-0.3 0.1,0 0.2,0.2 0.3,0.4 0,0.2 0.1,0.4 0.1,0.5 0.1,0.6 -0.5,0.9 -0.7,0.3 z"
             inkscape:connector-curvature="0"
             style="fill:#198fa1" />
          <path
             id="path3917"
             d="m 625.9,81.4 c -0.7,-1.2 -1.6,0.3 -2.5,0.1 -0.3,-0.1 -0.5,-0.2 -0.7,-0.4 -0.7,-0.5 -0.9,-0.3 -1.5,0.1 -0.1,0.1 -0.1,-0.1 -0.1,-0.1 0.3,-0.3 0.6,-0.8 0.9,-0.9 0.7,-0.2 1.2,0.8 2,0.4 0.9,-0.5 1.6,-1.2 2.4,0.1 0.3,0.4 -0.2,1.2 -0.5,0.7 z"
             inkscape:connector-curvature="0"
             style="fill:#198fa1" />
          <path
             id="path3919"
             d="m 635.2,81.3 c -2,0.1 -3.9,0 -5.9,-0.2 -0.2,0 -0.2,-0.4 0,-0.4 1.9,-0.3 3.9,-0.5 5.9,-0.5 0.5,0.1 0.5,1.1 0,1.1 z"
             inkscape:connector-curvature="0"
             style="fill:#198fa1" />
          <path
             id="path3921"
             d="m 642.9,81.1 c -1.8,0.1 -3.6,-0.1 -5.4,-0.3 -0.1,0 -0.1,-0.2 0,-0.2 1.8,-0.3 3.6,-0.6 5.4,-0.6 0.5,0.1 0.5,1.1 0,1.1 z"
             inkscape:connector-curvature="0"
             style="fill:#198fa1" />
          <path
             id="path3923"
             d="m 651.2,81.2 c -0.1,-0.7 -2.5,-0.4 -3,-0.4 -0.4,0 -0.8,0.1 -1.2,0.1 -0.5,-0.1 -0.8,-0.3 -1.3,-0.3 -0.1,0 -0.1,-0.1 0,-0.1 0.4,-0.1 0.9,0 1.3,0 0.5,-0.1 1,-0.3 1.6,-0.4 1,-0.2 2,-0.4 3,-0.1 0.1,0 0.2,0.2 0.3,0.4 0,0.2 0,0.4 0.1,0.5 -0.1,0.6 -0.7,0.9 -0.8,0.3 z"
             inkscape:connector-curvature="0"
             style="fill:#198fa1" />
          <path
             id="path3925"
             d="m 661,81.3 c -1.9,0.1 -4,0.1 -5.9,-0.3 0,0 0,-0.1 0,-0.1 1.9,-0.5 4,-0.6 5.9,-0.6 0.5,0 0.5,1 0,1 z"
             inkscape:connector-curvature="0"
             style="fill:#198fa1" />
          <path
             id="path3927"
             d="m 670.5,81 c -2.2,0.2 -4.6,0 -6.8,-0.3 0,0 -0.1,-0.1 0,-0.1 2.2,-0.3 4.5,-0.7 6.8,-0.6 0.4,0.1 0.4,1 0,1 z"
             inkscape:connector-curvature="0"
             style="fill:#198fa1" />
          <path
             id="path3929"
             d="m 680.1,81.4 c -0.6,-1.1 -2.2,-0.9 -3.1,-0.9 -1,0 -2,0.3 -2.9,0.1 -0.2,0 -0.2,-0.4 0,-0.5 1.2,-0.3 2.5,-0.5 3.7,-0.7 1,-0.1 2.2,-0.2 3,0.9 0.4,0.8 -0.3,1.7 -0.7,1.1 z"
             inkscape:connector-curvature="0"
             style="fill:#198fa1" />
          <path
             id="path3931"
             d="m 688.1,38.9 c -0.5,0.2 -0.9,0.6 -1.5,0.4 -0.2,-0.1 -0.4,-0.3 -0.6,-0.4 -0.9,-0.2 -1.7,0.8 -2.6,0.2 -0.3,-0.2 -0.5,0.3 -0.2,0.5 0.9,0.8 1.6,-0.1 2.5,0.1 0.4,0.1 0.8,0.6 1.2,0.7 0.5,0.1 1,-0.3 1.5,-0.5 0.3,-0.1 0.1,-1.2 -0.3,-1 z"
             inkscape:connector-curvature="0"
             style="fill:#198fa1" />
          <path
             id="path3933"
             d="m 694.5,38.9 c -0.9,-0.1 -1.8,0.1 -2.6,0.4 -0.7,0.2 -1.2,-0.2 -1.9,-0.2 -0.2,0 -0.3,0.6 0,0.6 0.6,0 1.1,0.6 1.7,0.5 0.4,-0.1 0.8,-0.3 1.2,-0.3 0.5,0 1.1,0.1 1.6,0 0.4,0 0.4,-0.9 0,-1 z"
             inkscape:connector-curvature="0"
             style="fill:#198fa1" />
          <path
             id="path3935"
             d="m 702.2,38.9 c -0.8,0.1 -1.5,0.7 -2.3,0.7 -0.8,0 -1.5,-0.4 -2.2,-0.5 0,-0.1 0.1,-0.2 0.1,-0.3 0.1,-0.2 -0.1,-0.4 -0.2,-0.2 -0.1,0.2 -0.2,0.4 -0.3,0.5 -0.1,0.1 -0.1,0.3 0,0.3 1.6,1.6 3.3,1.2 5,0.5 0.4,-0.1 0.3,-1.1 -0.1,-1 z"
             inkscape:connector-curvature="0"
             style="fill:#198fa1" />
          <path
             id="path3937"
             d="m 709.5,38.6 c -0.2,1.3 -4.3,0.5 -5.1,0.6 -0.2,0 -0.2,0.4 0,0.5 1.8,0.2 3.7,0.9 5.4,0.2 0.1,0 0.2,-0.2 0.3,-0.4 0,-0.2 0,-0.4 0.1,-0.5 0.1,-0.8 -0.6,-1.1 -0.7,-0.4 z"
             inkscape:connector-curvature="0"
             style="fill:#198fa1" />
          <path
             id="path3939"
             d="m 717.3,38.4 c -0.7,1.2 -1.6,-0.3 -2.5,-0.1 -0.3,0.1 -0.5,0.3 -0.7,0.4 -0.7,0.5 -0.9,0.4 -1.5,-0.1 -0.1,0 -0.1,0.1 -0.1,0.2 0.3,0.3 0.6,0.8 0.9,0.9 0.7,0.2 1.1,-0.8 1.9,-0.5 1,0.4 1.6,1.2 2.4,-0.1 0.4,-0.5 -0.1,-1.2 -0.4,-0.7 z"
             inkscape:connector-curvature="0"
             style="fill:#198fa1" />
          <path
             id="path3941"
             d="m 726.6,38.2 c -2,-0.1 -3.9,0.1 -5.9,0.3 -0.2,0 -0.2,0.4 0,0.4 1.9,0.2 3.9,0.4 5.9,0.3 0.5,0.1 0.5,-1 0,-1 z"
             inkscape:connector-curvature="0"
             style="fill:#198fa1" />
          <path
             id="path3943"
             d="m 734.3,38.2 c -1.8,-0.1 -3.6,0.2 -5.4,0.4 -0.1,0 -0.1,0.2 0,0.2 1.8,0.3 3.6,0.5 5.4,0.4 0.5,0.1 0.5,-1 0,-1 z"
             inkscape:connector-curvature="0"
             style="fill:#198fa1" />
          <path
             id="path3945"
             d="m 742.5,38 c -0.1,0.8 -2.5,0.4 -3,0.4 -0.4,0 -0.8,-0.1 -1.2,-0.1 -0.5,0.1 -0.8,0.3 -1.3,0.3 -0.1,0 -0.1,0.1 0,0.1 0.5,0.1 0.9,-0.1 1.3,0 0.5,0 1,0.3 1.6,0.3 1,0.1 2,0.3 3,0 0.1,0 0.2,-0.2 0.3,-0.4 0,-0.2 0,-0.4 0.1,-0.6 0,-0.4 -0.6,-0.7 -0.8,0 z"
             inkscape:connector-curvature="0"
             style="fill:#198fa1" />
          <path
             id="path3947"
             d="m 752.3,38.2 c -1.9,-0.1 -4,-0.1 -5.9,0.3 0,0 0,0.1 0,0.1 1.9,0.5 4,0.6 5.9,0.6 0.5,0 0.5,-1 0,-1 z"
             inkscape:connector-curvature="0"
             style="fill:#198fa1" />
          <path
             id="path3949"
             d="m 761.8,38.4 c -2.2,-0.2 -4.6,0 -6.8,0.3 0,0 -0.1,0.1 0,0.1 2.2,0.3 4.5,0.7 6.8,0.6 0.5,0 0.5,-1 0,-1 z"
             inkscape:connector-curvature="0"
             style="fill:#198fa1" />
          <path
             id="path3951"
             d="m 771.5,37 c -0.6,1.1 -2.2,0.9 -3.1,0.9 -1,0 -2,-0.2 -2.9,-0.1 -0.2,0 -0.2,0.4 0,0.5 1.2,0.2 2.5,0.5 3.7,0.6 1,0.1 2.2,0.1 3,-1 0.3,-0.6 -0.3,-1.5 -0.7,-0.9 z"
             inkscape:connector-curvature="0"
             style="fill:#198fa1" />
          <path
             id="path3953"
             d="m 776.4,71 c -1,-2.9 -2.5,-5.7 -3.4,-8.8 -1.3,-4.7 0.5,-8.2 1.8,-12.6 1.1,-3.6 2,-7.6 2.6,-11.5 0.6,-3.6 0,-4.4 -1.7,-4.6 -0.1,-0.4 -0.3,-0.7 -0.7,-0.7 -15.9,-1.2 -31.7,-0.4 -47.6,-0.9 -8.1,-0.2 -16,0.2 -24,0.6 -7.3,0.4 -14.5,-0.5 -21.8,-0.6 -0.3,0 -0.5,0.3 -0.6,0.6 -15,-0.7 -30,-0.1 -44.9,-0.5 -8.1,-0.2 -16,0.2 -24,0.6 -4.5,0.3 -8.9,0 -13.3,-0.2 0,-0.3 -0.1,-0.6 -0.4,-0.5 -0.9,0.2 -1.8,0.3 -2.8,0.4 -1.8,-0.1 -3.6,-0.2 -5.4,-0.2 -0.3,0 -0.5,0.3 -0.6,0.6 -1.8,0.1 -3.6,0.3 -5.4,0.8 -0.4,0.1 -0.3,1.1 0.1,1.1 0.2,0 0.3,0 0.5,0 0,0.1 0.1,0.1 0.1,0.2 0,0 0,0 0,0 -0.1,0.1 0,0.4 0.1,0.4 0.8,-0.4 1.9,-0.2 2.9,0.1 0,0.1 0,0.1 0.1,0.1 0.1,0 0.2,0 0.3,0 0.4,0.1 0.7,0.1 1,0.2 1.6,0.1 3.2,0 4.8,-0.2 0,0 0.1,0 0.1,0 0.5,0 1.1,0 1.6,0 0.5,0 1,0 1.5,-0.1 4.9,0.5 9.7,0.8 14.6,0.6 8,-0.4 16,-0.8 24,-0.6 8,0.2 16,-0.4 24.1,-0.2 7.4,0.2 14.7,0.5 22.1,0.3 0.9,0.2 1.8,0.3 2.8,0.3 1.5,-0.1 2.9,-0.2 4.4,-0.3 4.6,0.5 9.2,0.7 14,0.5 8,-0.4 16,-0.8 24,-0.6 8,0.2 16,-0.4 24.1,-0.2 7.9,0.2 15.7,0.5 23.5,0.3 0.1,0 0.2,0 0.3,-0.1 1.1,0.6 1.2,1.6 0.6,4.4 -0.8,3.8 -1.7,7.5 -2.8,11.1 -1.1,3.6 -3,6.9 -2.1,10.8 1.1,4.7 3.4,9.1 4.9,13.6 0.7,2.2 1.4,4.4 1.9,6.7 0.3,1.4 0.5,2 0.6,2.3 -0.1,-0.2 -0.4,-0.7 -0.7,-0.5 -1.2,0.9 -4.1,0.4 -5.5,0.8 -0.1,0 -0.2,0.1 -0.3,0.2 -6.8,-0.1 -13.6,0.2 -20.4,0.4 -8,0.2 -16,-0.3 -24.1,-0.1 -8.1,0.2 -16,-0.3 -24,-0.6 -6,-0.3 -11.9,0.2 -17.9,1 -0.4,0 -0.8,-0.1 -1.2,-0.1 -0.1,-0.3 -0.3,-0.6 -0.6,-0.6 -7.9,-0.2 -15.7,0.1 -23.5,0.3 -8,0.2 -16,-0.3 -24.1,-0.1 -8.1,0.2 -16,-0.3 -24,-0.6 -6.3,-0.3 -12.5,0.2 -18.7,1.1 -0.4,-0.2 -0.8,-0.2 -1.2,-0.2 -0.5,-0.1 -1.1,-0.1 -1.6,0 -1.5,-0.1 -3.2,-0.3 -4.7,-0.1 -0.4,0.1 -0.6,0.8 -0.3,1.1 0,0 0,0 0,0 -0.1,0.1 -0.1,0.2 -0.1,0.3 -1,-0.1 -1.9,-0.1 -3,0 -0.1,0 -0.1,0.1 0,0.1 2.9,0 5.6,1.2 8.5,1.4 1.4,0.1 2.9,-0.1 4.3,-0.1 1.2,0 2.4,0 3.5,-0.5 4.4,-0.3 8.8,-0.5 13.2,-0.3 8,0.5 16,0.8 24,0.6 14.7,-0.4 29.3,0.2 44,-0.7 1.6,0.4 3,0.6 4.7,0.5 1.1,-0.1 2.2,0 3.3,0 0,0 0.1,0 0.1,0 0.1,0 0.2,0 0.3,0 1.8,0 3.6,0 5.3,-0.3 3.2,-0.2 6.4,-0.3 9.7,-0.1 8,0.5 16,0.8 24,0.6 15.9,-0.5 31.7,0.3 47.6,-0.9 0.1,0 0.3,-0.1 0.4,-0.2 2.2,0 4.4,-0.1 4.5,-3.4 0.3,-3.6 -2.4,-9.4 -3.4,-12.2 z"
             inkscape:connector-curvature="0"
             style="fill:#198fa1" />
          <path
             id="path3955"
             d="m 688,81.6 c -0.5,-0.2 -0.9,-0.6 -1.5,-0.3 -0.2,0.1 -0.4,0.3 -0.6,0.4 -0.9,0.2 -1.7,-0.8 -2.6,-0.1 -0.3,0.2 -0.5,-0.3 -0.2,-0.5 0.9,-0.9 1.6,0 2.5,-0.2 0.4,-0.1 0.8,-0.6 1.2,-0.7 0.5,-0.1 1,0.3 1.5,0.5 0.4,0.1 0.2,1.1 -0.3,0.9 z"
             inkscape:connector-curvature="0"
             style="fill:#198fa1" />
          <path
             id="path3957"
             d="m 694.5,81.5 c -0.9,0.1 -1.8,0 -2.6,-0.3 -0.7,-0.2 -1.2,0.3 -1.9,0.2 -0.2,0 -0.3,-0.6 0,-0.6 0.6,0 1.1,-0.6 1.7,-0.5 0.4,0.1 0.8,0.2 1.2,0.3 0.5,0 1.1,-0.1 1.6,-0.1 0.4,0 0.4,0.9 0,1 z"
             inkscape:connector-curvature="0"
             style="fill:#198fa1" />
          <path
             id="path3959"
             d="m 702.1,81.3 c -0.8,-0.1 -1.5,-0.7 -2.3,-0.7 -0.8,0 -1.5,0.5 -2.2,0.5 0,0.1 0.1,0.2 0.1,0.3 0.1,0.2 -0.1,0.4 -0.2,0.2 -0.1,-0.2 -0.2,-0.3 -0.3,-0.5 -0.1,-0.1 -0.1,-0.3 0,-0.3 1.6,-1.6 3.3,-1.3 5,-0.6 0.4,0.2 0.4,1.2 -0.1,1.1 z"
             inkscape:connector-curvature="0"
             style="fill:#198fa1" />
          <path
             id="path3961"
             d="m 709.5,81.4 c -0.2,-1.3 -4.3,-0.4 -5.1,-0.4 -0.2,0 -0.2,-0.4 0,-0.5 1.8,-0.2 3.7,-1 5.4,-0.3 0.1,0 0.2,0.2 0.3,0.4 0,0.2 0.1,0.4 0.1,0.5 0.1,0.6 -0.6,0.9 -0.7,0.3 z"
             inkscape:connector-curvature="0"
             style="fill:#198fa1" />
          <path
             id="path3963"
             d="m 717.3,81.4 c -0.7,-1.2 -1.6,0.3 -2.5,0.1 -0.3,-0.1 -0.5,-0.2 -0.7,-0.4 -0.7,-0.5 -0.9,-0.3 -1.5,0.1 -0.1,0.1 -0.1,-0.1 -0.1,-0.1 0.3,-0.3 0.6,-0.8 0.9,-0.9 0.7,-0.2 1.2,0.8 2,0.4 0.9,-0.5 1.6,-1.2 2.4,0.1 0.3,0.4 -0.2,1.2 -0.5,0.7 z"
             inkscape:connector-curvature="0"
             style="fill:#198fa1" />
          <path
             id="path3965"
             d="m 726.6,81.3 c -2,0.1 -3.9,0 -5.9,-0.2 -0.2,0 -0.2,-0.4 0,-0.4 1.9,-0.3 3.9,-0.5 5.9,-0.5 0.4,0.1 0.5,1.1 0,1.1 z"
             inkscape:connector-curvature="0"
             style="fill:#198fa1" />
          <path
             id="path3967"
             d="m 734.3,81.1 c -1.8,0.1 -3.6,-0.1 -5.4,-0.3 -0.1,0 -0.1,-0.2 0,-0.2 1.8,-0.3 3.6,-0.6 5.4,-0.6 0.4,0.1 0.4,1.1 0,1.1 z"
             inkscape:connector-curvature="0"
             style="fill:#198fa1" />
          <path
             id="path3969"
             d="m 742.5,81.2 c -0.1,-0.7 -2.5,-0.4 -3,-0.4 -0.4,0 -0.8,0.1 -1.2,0.1 -0.5,-0.1 -0.8,-0.3 -1.3,-0.3 -0.1,0 -0.1,-0.1 0,-0.1 0.4,-0.1 0.9,0 1.3,0 0.5,-0.1 1,-0.3 1.6,-0.4 1,-0.2 2,-0.4 3,-0.1 0.1,0 0.2,0.2 0.3,0.4 0,0.2 0,0.4 0.1,0.5 0,0.6 -0.7,0.9 -0.8,0.3 z"
             inkscape:connector-curvature="0"
             style="fill:#198fa1" />
          <path
             id="path3971"
             d="m 752.4,81.3 c -1.9,0.1 -4,0.1 -5.9,-0.3 0,0 0,-0.1 0,-0.1 1.9,-0.5 4,-0.6 5.9,-0.6 0.4,0 0.4,1 0,1 z"
             inkscape:connector-curvature="0"
             style="fill:#198fa1" />
          <path
             id="path3973"
             d="m 761.8,81 c -2.2,0.2 -4.6,0 -6.8,-0.3 0,0 -0.1,-0.1 0,-0.1 2.2,-0.3 4.5,-0.7 6.8,-0.6 0.5,0.1 0.5,1 0,1 z"
             inkscape:connector-curvature="0"
             style="fill:#198fa1" />
          <path
             id="path3975"
             d="m 771.5,81.4 c -0.6,-1.1 -2.2,-0.9 -3.1,-0.9 -1,0 -2,0.3 -2.9,0.1 -0.2,0 -0.2,-0.4 0,-0.5 1.2,-0.3 2.5,-0.5 3.7,-0.7 1,-0.1 2.2,-0.2 3,0.9 0.3,0.8 -0.3,1.7 -0.7,1.1 z"
             inkscape:connector-curvature="0"
             style="fill:#198fa1" />
        </g>
        <path
           id="path3977"
           d="m 39.1,43.8 c -0.3,-0.6 -0.6,-1.2 -0.8,-1.8 -0.2,-0.5 -0.5,-1 -0.6,-1.6 0,-0.2 -0.3,-0.2 -0.3,0.1 0,0.6 0.3,1 0.4,1.5 0.3,0.7 0.6,1.4 0.9,2.1 0.2,0.4 0.6,0.1 0.4,-0.3 z"
           inkscape:connector-curvature="0"
           style="fill:#198fa1" />
        <path
           id="path3979"
           d="m 42,51.7 c -0.3,-0.8 -0.6,-1.5 -0.9,-2.3 -0.3,-0.6 -0.7,-1.2 -0.8,-2 -0.1,-0.4 -0.4,-0.2 -0.4,0.2 0.1,0.7 0.4,1.3 0.6,1.9 0.3,0.9 0.6,1.8 1,2.6 0.2,0.4 0.6,0 0.5,-0.4 z"
           inkscape:connector-curvature="0"
           style="fill:#198fa1" />
        <path
           id="path3981"
           d="m 42.6,56 c -0.1,1 -0.5,2 -0.8,2.9 -0.2,0.9 -0.5,1.8 -0.6,2.7 -0.1,0.5 0.4,0.7 0.6,0.2 0.2,-1.1 0.4,-2.1 0.7,-3.2 C 42.7,57.8 43,57 43,56 c 0.1,-0.4 -0.3,-0.3 -0.4,0 z"
           inkscape:connector-curvature="0"
           style="fill:#198fa1" />
        <path
           id="path3983"
           d="m 39.8,67.9 c -0.7,2.3 -1.4,4.8 -1.7,7.3 -0.1,0.4 0.4,0.6 0.5,0.2 0.5,-2.4 0.9,-4.9 1.6,-7.2 0,-0.3 -0.3,-0.5 -0.4,-0.3 z"
           inkscape:connector-curvature="0"
           style="fill:#198fa1" />
        <path
           id="path3985"
           d="m 37.7,77.8 c -0.3,1.1 -0.7,2 -0.8,3.1 0,0.5 0.5,0.5 0.5,0 0.1,-1.1 0.5,-2 0.7,-3 0,-0.3 -0.3,-0.4 -0.4,-0.1 z"
           inkscape:connector-curvature="0"
           style="fill:#198fa1" />
        <path
           id="path3987"
           d="m 772.8,41.5 c -0.5,1.7 -1.2,3.3 -1.7,5 -0.1,0.4 0.3,0.7 0.4,0.3 0.5,-1.7 1.1,-3.3 1.6,-5.1 0,-0.3 -0.3,-0.4 -0.3,-0.2 z"
           inkscape:connector-curvature="0"
           style="fill:#198fa1" />
        <path
           id="path3989"
           d="m 769.5,50.6 c -0.9,1.8 -1.5,3.9 -2,6 -0.1,0.4 0.3,0.6 0.4,0.3 0.6,-2 1.1,-4.1 1.9,-5.9 0.3,-0.4 -0.1,-0.7 -0.3,-0.4 z"
           inkscape:connector-curvature="0"
           style="fill:#198fa1" />
        <path
           id="path3991"
           d="m 768.4,64.9 c -0.4,-1.4 -0.7,-2.7 -0.9,-4.1 -0.1,-0.3 -0.4,-0.2 -0.4,0.1 0.2,1.4 0.5,2.8 0.9,4.2 0.1,0.4 0.5,0.2 0.4,-0.2 z"
           inkscape:connector-curvature="0"
           style="fill:#198fa1" />
        <path
           id="path3993"
           d="m 772.5,74.2 c -0.6,-1.5 -1,-3.2 -1.9,-4.4 -0.2,-0.3 -0.5,0.1 -0.3,0.4 0.8,1.2 1.2,2.9 1.7,4.4 0.2,0.5 0.7,0.1 0.5,-0.4 z"
           inkscape:connector-curvature="0"
           style="fill:#198fa1" />
        <path
           id="path3995"
           d="m 774.7,78.7 c -0.4,-0.4 -0.5,-1.1 -0.7,-1.7 -0.1,-0.4 -0.6,-0.1 -0.4,0.4 0.2,0.7 0.4,1.3 0.8,1.8 0.2,0.4 0.6,-0.2 0.3,-0.5 z"
           inkscape:connector-curvature="0"
           style="fill:#198fa1" />
      </g>
      <path
         id="path3997"
         d="m 140.2,57.5 c 0,-2.3 -0.4,-4.5 -0.4,-6.8 0,-1.5 0.3,-2.8 -0.6,-4.1 -0.1,-0.1 -0.1,-0.1 -0.2,-0.2 0,-0.1 0,-0.3 0,-0.4 0,-0.6 -0.9,-0.6 -0.9,0 0,0.1 0,0.3 0,0.4 -0.3,0.2 -0.5,0.6 -0.2,1 0.1,0.1 0.1,0.2 0.2,0.4 -0.2,9 0.1,18 -0.3,27 0,0.8 1.3,1.1 1.5,0.3 0,-0.1 0,-0.1 0,-0.1 0,0 0,0 0,0 0,0 0,-0.1 0,-0.1 0.4,-2.8 0.5,-5.6 0.5,-8.5 -0.1,-3 0.4,-6 0.4,-8.9 z"
         inkscape:connector-curvature="0"
         style="fill:#198fa1" />
      <path
         id="path3999"
         d="m 656.2,57.5 c 0,-2.3 -0.4,-4.5 -0.4,-6.8 0,-1.5 0.3,-2.8 -0.6,-4.1 -0.1,-0.1 -0.1,-0.1 -0.2,-0.2 0,-0.1 0,-0.3 0,-0.4 0,-0.6 -0.9,-0.6 -0.9,0 0,0.1 0,0.3 0,0.4 -0.3,0.2 -0.5,0.6 -0.2,1 0.1,0.1 0.1,0.2 0.2,0.4 -0.2,9 0.1,18 -0.3,27 0,0.8 1.3,1.1 1.5,0.3 0,-0.1 0,-0.1 0,-0.1 0,0 0,0 0,0 0,0 0,-0.1 0,-0.1 0.4,-2.8 0.5,-5.6 0.5,-8.5 -0.1,-3 0.4,-6 0.4,-8.9 z"
         inkscape:connector-curvature="0"
         style="fill:#198fa1" />
      <path
         id="path4001"
         d="m 527.2,57.5 c 0,-2.3 -0.4,-4.5 -0.4,-6.8 0,-1.5 0.3,-2.8 -0.6,-4.1 -0.1,-0.1 -0.1,-0.1 -0.2,-0.2 0,-0.1 0,-0.3 0,-0.4 0,-0.6 -0.9,-0.6 -0.9,0 0,0.1 0,0.3 0,0.4 -0.3,0.2 -0.5,0.6 -0.2,1 0.1,0.1 0.1,0.2 0.2,0.4 -0.2,9 0.1,18 -0.3,27 0,0.8 1.3,1.1 1.5,0.3 0,-0.1 0,-0.1 0,-0.1 0,0 0,0 0,0 0,0 0,-0.1 0,-0.1 0.4,-2.8 0.5,-5.6 0.5,-8.5 -0.1,-3 0.4,-6 0.4,-8.9 z"
         inkscape:connector-curvature="0"
         style="fill:#198fa1" />
      <path
         id="path4003"
         d="m 398.2,57.5 c 0,-2.3 -0.4,-4.5 -0.4,-6.8 0,-1.5 0.3,-2.8 -0.6,-4.1 -0.1,-0.1 -0.1,-0.1 -0.2,-0.2 0,-0.1 0,-0.3 0,-0.4 0,-0.6 -0.9,-0.6 -0.9,0 0,0.1 0,0.3 0,0.4 -0.3,0.2 -0.5,0.6 -0.2,1 0.1,0.1 0.1,0.2 0.2,0.4 -0.2,9 0.1,18 -0.3,27 0,0.8 1.3,1.1 1.5,0.3 0,-0.1 0,-0.1 0,-0.1 0,0 0,0 0,0 0,0 0,-0.1 0,-0.1 0.4,-2.8 0.5,-5.6 0.5,-8.5 -0.1,-3 0.4,-6 0.4,-8.9 z"
         inkscape:connector-curvature="0"
         style="fill:#198fa1" />
      <path
         id="path4005"
         d="m 269.2,57.5 c 0,-2.3 -0.4,-4.5 -0.4,-6.8 0,-1.5 0.3,-2.8 -0.6,-4.1 -0.1,-0.1 -0.1,-0.1 -0.2,-0.2 0,-0.1 0,-0.3 0,-0.4 0,-0.6 -0.9,-0.6 -0.9,0 0,0.1 0,0.3 0,0.4 -0.3,0.2 -0.5,0.6 -0.2,1 0.1,0.1 0.1,0.2 0.2,0.4 -0.2,9 0.1,18 -0.3,27 0,0.8 1.3,1.1 1.5,0.3 0,-0.1 0,-0.1 0,-0.1 0,0 0,0 0,0 0,0 0,-0.1 0,-0.1 0.4,-2.8 0.5,-5.6 0.5,-8.5 -0.1,-3 0.4,-6 0.4,-8.9 z"
         inkscape:connector-curvature="0"
         style="fill:#198fa1" />
    </g>
    <text
       y="305.41992"
       x="13.97911"
       id="text4007"
       font-size="18.9312"
       style="font-size:14.2770319px;font-family:MyriadPro-Cond;fill:#198fa1"> </text>
    <text
       y="305.24487"
       x="113.22783"
       id="text4011"
       font-size="18.9312"
       style="font-size:15.14714813px;font-family:MyriadPro-Cond;fill:#198fa1"></text>
    <text
       y="306.1846"
       x="240.34073"
       id="text4013"
       font-size="18.9312"
       style="font-size:12.49603271px;font-family:MyriadPro-Cond;fill:#198fa1"> </text>
    <text
       y="307.96661"
       x="384.22412"
       id="text4021"
       font-size="18.9312"
       style="font-size:16.38152504px;font-family:MyriadPro-Cond;fill:#198fa1"></text>
    <text
       y="305.62549"
       x="516.43518"
       id="text4023"
       font-size="18.9312"
       style="font-size:13.25512218px;font-family:MyriadPro-Cond;fill:#198fa1"></text>
    <text
       y="306.03906"
       x="645.54364"
       id="text4025"
       font-size="18.9312"
       style="font-size:15.06833363px;font-family:MyriadPro-Cond;fill:#198fa1"> </text>
  </g>
</svg>
