<?xml version="1.0" encoding="utf-8"?>
<!-- Generator: Adobe Illustrator 21.0.0, SVG Export Plug-In . SVG Version: 6.00 Build 0)  -->
<svg version="1.1" id="Слой_1" xmlns="http://www.w3.org/2000/svg" xmlns:xlink="http://www.w3.org/1999/xlink" x="0px" y="0px"
	 viewBox="0 0 369 186.4" style="enable-background:new 0 0 369 186.4;" xml:space="preserve">
<style type="text/css">
	.st0{fill:#E7F5F8;}
</style>
<g>
	<polygon class="st0" points="46.6,143.5 46.6,143.5 46.6,143.5 	"/>
	<path class="st0" d="M0,0v186.4h369V0H0z M323,144l0,0.2l-0.2,0.1c-0.1,0-2.1,0.9-7.3,0.9c-8.1,0-23.9-2.1-52.3-12.5
		c-36-13.2-63.1-14.8-73.7-14.8c-2.4,0-4,0.1-4.6,0.1c-0.2,0-0.3,0-0.3,0l0,0l0,0c0,0-0.1,0-0.3,0c-0.2,0-0.5,0-0.9,0
		c-0.8,0-2-0.1-3.6-0.1c-10.6,0-37.7,1.5-73.7,14.8c-28.4,10.4-44.2,12.5-52.3,12.5c-5.3,0-7.3-0.9-7.3-0.9l-0.2-0.1l0-0.2
		c0,0-4.5-23.7-4.5-50.3c0-18,2.1-37.3,9.1-51.7l0.1-0.1l0.2-0.1c0.1,0,1.6-0.6,5.9-0.6c7.2,0,22,1.6,50.3,10.3
		c42.2,13,55.5,14.1,57,14.2c0.1,0,0.1,0,0.1,0h20.4h20.4c0,0,0,0,0.1,0c0.1,0,0.2,0,0.5,0c0.4,0,1.1-0.1,2-0.2
		c1.8-0.3,4.8-0.7,9.1-1.6c8.7-1.8,23-5.4,45.5-12.3c28.3-8.7,43.1-10.3,50.3-10.3c4.3,0,5.8,0.6,5.9,0.6l0.2,0.1l0.1,0.1
		c7,14.3,9.1,33.7,9.1,51.7C327.5,120.3,323,144,323,144z"/>
</g>
<rect x="163.4" y="78.4" class="st0" width="3.1" height="29.2"/>
<rect x="202.9" y="78.4" class="st0" width="3.1" height="29.2"/>
</svg>
