<?xml version="1.0" encoding="utf-8"?>
<!-- Generator: Adobe Illustrator 21.0.0, SVG Export Plug-In . SVG Version: 6.00 Build 0)  -->
<svg version="1.1" id="Слой_1" xmlns="http://www.w3.org/2000/svg" xmlns:xlink="http://www.w3.org/1999/xlink" x="0px" y="0px"
	 viewBox="0 0 369 186.4" style="enable-background:new 0 0 369 186.4;" xml:space="preserve">
<style type="text/css">
	.st0{fill:#E7F5F8;}
</style>
<path class="st0" d="M0,0v186.4h369V0H0z M338.3,100.6c0,0.2,0,0.3,0,0.5c0,0.1,0,0.1,0,0.2c-0.1,0.7-0.2,1.4-0.3,2
	c0,0.1,0,0.3-0.1,0.4c-0.1,0.7-0.2,1.3-0.3,2c0,0.1,0,0.1,0,0.2c-0.1,0.7-0.2,1.4-0.3,2.1c0,0.1,0,0.3-0.1,0.4
	c-0.1,0.7-0.3,1.4-0.4,2.1c0,0.1,0,0.2-0.1,0.4c-0.1,0.7-0.3,1.4-0.4,2c0,0.1,0,0.2-0.1,0.2c-0.2,0.7-0.3,1.4-0.5,2.2
	c0,0.2-0.1,0.3-0.1,0.5c-0.2,0.7-0.4,1.5-0.5,2.2c0,0.1-0.1,0.2-0.1,0.3c-0.2,0.7-0.4,1.4-0.6,2.1c0,0.1-0.1,0.2-0.1,0.3
	c-0.2,0.7-0.4,1.5-0.6,2.2c0,0.2-0.1,0.3-0.1,0.5c-0.2,0.7-0.5,1.5-0.7,2.2c0,0.1-0.1,0.2-0.1,0.2c-0.2,0.7-0.5,1.4-0.7,2.1
	c0,0.1-0.1,0.3-0.1,0.4c-0.3,0.7-0.5,1.5-0.8,2.3c-0.1,0.2-0.1,0.3-0.2,0.5c-0.3,0.8-0.6,1.5-0.9,2.3c0,0,0,0.1-0.1,0.1
	c-0.3,0.7-0.6,1.5-0.9,2.2c-0.1,0.1-0.1,0.3-0.2,0.4c-0.3,0.8-0.7,1.5-1,2.3c-0.1,0.2-0.1,0.3-0.2,0.5c-0.4,0.8-0.7,1.6-1.1,2.4
	c0,0-19.4-1.8-50.4-7.3c-3.8-0.7-7.8-1.4-11.9-2.2c-1.6-0.3-3.3-0.6-5-1c-0.8-0.2-1.7-0.3-2.6-0.5c-4.3-0.8-8.8-1.8-13.4-2.7
	c-1.8-0.4-3.7-0.8-5.6-1.2c-3.8-0.8-7.6-1.7-11.5-2.6c-3.9-0.9-7.9-1.8-12-2.8l-21.6,0.3v0.2l-8.1-0.1l-8.1,0.1v-0.2l-21.6-0.3
	c-4.1,1-8.1,1.9-12,2.8c-3.9,0.9-7.8,1.8-11.5,2.6c-1.9,0.4-3.7,0.8-5.6,1.2c-4.6,1-9.1,1.9-13.4,2.7c-0.9,0.2-1.7,0.3-2.6,0.5
	c-1.7,0.3-3.4,0.6-5,1c-4.1,0.8-8.1,1.5-11.9,2.2c-31.1,5.5-50.4,7.3-50.4,7.3c-0.4-0.8-0.7-1.6-1.1-2.4c-0.1-0.2-0.1-0.3-0.2-0.5
	c-0.3-0.8-0.7-1.5-1-2.3c-0.1-0.1-0.1-0.3-0.2-0.4c-0.3-0.8-0.6-1.5-0.9-2.2c0,0,0-0.1-0.1-0.1c-0.3-0.8-0.6-1.5-0.9-2.3
	c-0.1-0.2-0.1-0.3-0.2-0.5c-0.3-0.8-0.6-1.5-0.8-2.3c0-0.1-0.1-0.3-0.1-0.4c-0.2-0.7-0.5-1.4-0.7-2.1c0-0.1-0.1-0.2-0.1-0.2
	c-0.2-0.8-0.5-1.5-0.7-2.2c0-0.2-0.1-0.3-0.1-0.5c-0.2-0.7-0.4-1.5-0.6-2.2c0-0.1-0.1-0.2-0.1-0.3c-0.2-0.7-0.4-1.4-0.6-2.1
	c0-0.1-0.1-0.2-0.1-0.3c-0.2-0.7-0.4-1.5-0.5-2.2c0-0.2-0.1-0.3-0.1-0.5c-0.2-0.7-0.3-1.4-0.5-2.2c0-0.1,0-0.2-0.1-0.3
	c-0.1-0.7-0.3-1.4-0.4-2c0-0.1,0-0.2-0.1-0.4c-0.1-0.7-0.3-1.4-0.4-2.1c0-0.1-0.1-0.3-0.1-0.4c-0.1-0.7-0.2-1.4-0.3-2.1
	c0-0.1,0-0.1,0-0.2c-0.1-0.7-0.2-1.3-0.3-2c0-0.1,0-0.3-0.1-0.4c-0.1-0.7-0.2-1.4-0.3-2c0-0.1,0-0.1,0-0.2c0-0.1,0-0.3,0-0.5
	c-0.3-2.5-0.5-7.4-0.4-7.4c0-1.6,0-3.3,0.1-5c1.2-13.2,4.6-27.9,11.9-43.1c0,0,47.2,4.5,112.4,20.2l21.6-0.3v-0.2l8.1,0.1l8.1-0.1
	v0.2l21.6,0.3c65.2-15.7,112.4-20.2,112.4-20.2c7.3,15.2,10.7,29.9,11.9,43.1c0.1,1.7,0.2,3.4,0.1,5
	C338.8,93.2,338.6,98.1,338.3,100.6z"/>
<rect x="163.4" y="78.4" class="st0" width="3.1" height="29.2"/>
<rect x="202.9" y="78.4" class="st0" width="3.1" height="29.2"/>
</svg>
