<?xml version="1.0" encoding="utf-8"?>
<!-- Generator: Adobe Illustrator 21.0.0, SVG Export Plug-In . SVG Version: 6.00 Build 0)  -->
<svg version="1.1" id="Слой_1" xmlns="http://www.w3.org/2000/svg" xmlns:xlink="http://www.w3.org/1999/xlink" x="0px" y="0px"
	 viewBox="0 0 841.9 595.3" style="enable-background:new 0 0 841.9 595.3;" xml:space="preserve">
<style type="text/css">
	.st0{fill:#198FA1;}
</style>
<path class="st0" d="M399.9,194.1c-0.5,0.2-0.9,0.6-1.5,0.4c-0.2-0.1-0.4-0.3-0.6-0.4c-0.9-0.2-1.7,0.8-2.6,0.2
	c-0.3-0.2-0.5,0.3-0.2,0.5c0.9,0.8,1.6-0.1,2.5,0.1c0.4,0.1,0.8,0.6,1.2,0.7c0.5,0.1,1-0.3,1.5-0.5
	C400.5,195,400.3,193.9,399.9,194.1z"/>
<path class="st0" d="M406.3,194.1c-0.9-0.1-1.8,0.1-2.6,0.4c-0.7,0.2-1.2-0.2-1.9-0.2c-0.2,0-0.3,0.6,0,0.6c0.6,0,1.1,0.6,1.7,0.5
	c0.4-0.1,0.8-0.3,1.2-0.3c0.5,0,1.1,0.1,1.6,0C406.7,195.1,406.7,194.2,406.3,194.1z"/>
<path class="st0" d="M414,194.1c-0.8,0.1-1.5,0.7-2.3,0.7c-0.8,0-1.5-0.4-2.2-0.5c0-0.1,0.1-0.2,0.1-0.3c0.1-0.2-0.1-0.4-0.2-0.2
	c-0.1,0.2-0.2,0.4-0.3,0.5c-0.1,0.1-0.1,0.3,0,0.3c1.6,1.6,3.3,1.2,5,0.5C414.5,195,414.4,194,414,194.1z"/>
<path class="st0" d="M421.3,193.8c-0.2,1.3-4.3,0.5-5.1,0.6c-0.2,0-0.2,0.4,0,0.5c1.8,0.2,3.7,0.9,5.4,0.2c0.1,0,0.2-0.2,0.3-0.4
	c0-0.2,0-0.4,0.1-0.5C422.1,193.5,421.4,193.2,421.3,193.8z"/>
<path class="st0" d="M429.1,193.6c-0.7,1.2-1.6-0.3-2.5-0.1c-0.3,0.1-0.5,0.3-0.7,0.4c-0.7,0.5-0.9,0.4-1.5-0.1
	c-0.1,0-0.1,0.1-0.1,0.2c0.3,0.3,0.6,0.8,0.9,0.9c0.7,0.2,1.1-0.8,1.9-0.5c1,0.4,1.6,1.2,2.4-0.1
	C429.9,193.9,429.4,193.2,429.1,193.6z"/>
<path class="st0" d="M438.4,193.4c-2-0.1-3.9,0.1-5.9,0.3c-0.2,0-0.2,0.4,0,0.4c1.9,0.2,3.9,0.4,5.9,0.3
	C438.9,194.5,438.9,193.5,438.4,193.4z"/>
<path class="st0" d="M446.1,193.5c-1.8-0.1-3.6,0.2-5.4,0.4c-0.1,0-0.1,0.2,0,0.2c1.8,0.3,3.6,0.5,5.4,0.4
	C446.6,194.5,446.6,193.5,446.1,193.5z"/>
<path class="st0" d="M482.3,193.5c-1.8-0.1-3.6,0.2-5.4,0.4c-0.1,0-0.1,0.2,0,0.2c1.8,0.3,3.6,0.5,5.4,0.4
	C482.7,194.5,482.7,193.5,482.3,193.5z"/>
<path class="st0" d="M454.4,193.2c-0.1,0.8-2.5,0.4-3,0.4c-0.4,0-0.8-0.1-1.2-0.1c-0.5,0.1-0.8,0.3-1.3,0.3c-0.1,0-0.1,0.1,0,0.1
	c0.5,0.1,0.9-0.1,1.3,0c0.5,0,1,0.3,1.6,0.3c1,0.1,2,0.3,3,0c0.1,0,0.2-0.2,0.3-0.4c0-0.2,0-0.4,0.1-0.6
	C455.1,192.8,454.5,192.5,454.4,193.2z"/>
<path class="st0" d="M464.2,193.4c-1.9-0.1-4-0.1-5.9,0.3c0,0,0,0.1,0,0.1c1.9,0.5,4,0.6,5.9,0.6
	C464.6,194.4,464.6,193.4,464.2,193.4z"/>
<path class="st0" d="M473.7,193.6c-2.2-0.2-4.6,0-6.8,0.3c0,0-0.1,0.1,0,0.1c2.2,0.3,4.5,0.7,6.8,0.6
	C474.1,194.6,474.1,193.7,473.7,193.6z"/>
<path class="st0" d="M484.1,187.9c-14.9-0.9-29.9-0.3-44.8-0.7c-8.1-0.2-16,0.2-24,0.6c-7.2,0.4-21.4,0-21.4,0v2
	c0.5,0,1,0.1,1.6,0.2c0.8,0.1,1.6-0.1,2.4-0.2c5.8,0.8,11.5,1.2,17.4,0.9c8-0.4,16-0.8,24-0.6c8,0.2,16-0.4,24.1-0.2
	c7,0.2,20.8-0.1,20.8-0.1V187.9z"/>
</svg>
