<?xml version="1.0" encoding="utf-8"?>
<!-- Generator: Adobe Illustrator 21.0.0, SVG Export Plug-In . SVG Version: 6.00 Build 0)  -->
<svg version="1.1" id="Слой_1" xmlns="http://www.w3.org/2000/svg" xmlns:xlink="http://www.w3.org/1999/xlink" x="0px" y="0px"
	 viewBox="0 0 369 186.4" style="enable-background:new 0 0 369 186.4;" xml:space="preserve">
<style type="text/css">
	.st0{fill:#E7F5F8;}
</style>
<polygon class="st0" points="46.6,143.5 46.6,143.5 46.6,143.5 "/>
<rect x="163.4" y="78.4" class="st0" width="3.1" height="29.2"/>
<rect x="202.9" y="78.4" class="st0" width="3.1" height="29.2"/>
<path class="st0" d="M0,0v186.4h369V0H0z M330.2,100.2c0,0.2,0,0.3,0,0.4c0,0.1,0,0.1,0,0.2c-0.1,0.6-0.2,1.3-0.2,1.9
	c0,0.1,0,0.2,0,0.4c-0.1,0.6-0.2,1.3-0.3,1.9c0,0,0,0.1,0,0.1c-0.1,0.7-0.2,1.3-0.3,2c0,0.1,0,0.3-0.1,0.4c-0.1,0.7-0.2,1.3-0.4,2
	c0,0.1,0,0.2-0.1,0.3c-0.1,0.6-0.3,1.3-0.4,1.9c0,0.1,0,0.2,0,0.2c-0.1,0.7-0.3,1.4-0.5,2.1c0,0.1-0.1,0.3-0.1,0.4
	c-0.2,0.7-0.3,1.4-0.5,2.1c0,0.1-0.1,0.2-0.1,0.3c-0.2,0.7-0.3,1.3-0.5,2c0,0.1-0.1,0.2-0.1,0.3c-0.2,0.7-0.4,1.4-0.6,2.1
	c0,0.1-0.1,0.3-0.1,0.4c-0.2,0.7-0.4,1.4-0.7,2.1c0,0.1-0.1,0.2-0.1,0.2c-0.2,0.7-0.4,1.4-0.7,2c0,0.1-0.1,0.2-0.1,0.4
	c-0.2,0.7-0.5,1.4-0.8,2.1c-0.1,0.1-0.1,0.3-0.2,0.4c-0.3,0.7-0.6,1.5-0.8,2.2c0,0,0,0.1-0.1,0.1c-0.3,0.7-0.6,1.4-0.9,2.1
	c-0.1,0.1-0.1,0.3-0.2,0.4c-0.3,0.7-0.6,1.4-0.9,2.2c-0.1,0.1-0.1,0.3-0.2,0.4c-0.3,0.7-0.7,1.5-1,2.3c0,0-18.4-1.7-47.8-6.9
	c-3.6-0.6-7.3-1.3-11.2-2c-1.6-0.3-3.1-0.6-4.8-0.9c-0.8-0.2-1.6-0.3-2.4-0.5c-4.1-0.8-8.3-1.7-12.7-2.6c-1.7-0.4-3.5-0.7-5.3-1.1
	c-3.6-0.8-7.2-1.6-10.9-2.4c-3.7-0.9-7.5-1.7-11.4-2.7l-20.5,0.2v0.2l-7.7-0.1l-7.7,0.1v-0.2l-20.5-0.2c-3.9,0.9-7.7,1.8-11.4,2.7
	c-3.7,0.8-7.4,1.7-10.9,2.4c-1.8,0.4-3.5,0.8-5.3,1.1c-4.4,0.9-8.6,1.8-12.7,2.6c-0.8,0.2-1.6,0.3-2.4,0.5c-1.6,0.3-3.2,0.6-4.8,0.9
	c-3.9,0.7-7.7,1.4-11.2,2c-29.4,5.2-47.8,6.9-47.8,6.9c-0.4-0.8-0.7-1.5-1-2.3c-0.1-0.1-0.1-0.3-0.2-0.4c-0.3-0.7-0.6-1.4-0.9-2.2
	c-0.1-0.1-0.1-0.3-0.2-0.4c-0.3-0.7-0.6-1.4-0.9-2.1c0,0,0-0.1-0.1-0.1c-0.3-0.7-0.6-1.5-0.8-2.2c-0.1-0.1-0.1-0.3-0.2-0.4
	c-0.3-0.7-0.5-1.4-0.8-2.1c0-0.1-0.1-0.2-0.1-0.4c-0.2-0.7-0.5-1.4-0.7-2c0-0.1-0.1-0.2-0.1-0.2c-0.2-0.7-0.5-1.4-0.7-2.1
	c0-0.1-0.1-0.3-0.1-0.4c-0.2-0.7-0.4-1.4-0.6-2.1c0-0.1-0.1-0.2-0.1-0.3c-0.2-0.7-0.4-1.3-0.5-2c0-0.1-0.1-0.2-0.1-0.3
	c-0.2-0.7-0.3-1.4-0.5-2.1c0-0.1-0.1-0.3-0.1-0.4c-0.2-0.7-0.3-1.4-0.5-2.1c0-0.1,0-0.2,0-0.2c-0.1-0.6-0.3-1.3-0.4-1.9
	c0-0.1,0-0.2-0.1-0.3c-0.1-0.7-0.3-1.3-0.4-2c0-0.1,0-0.3-0.1-0.4c-0.1-0.7-0.2-1.3-0.3-2c0-0.1,0-0.1,0-0.2
	c-0.1-0.6-0.2-1.3-0.3-1.9c0-0.1,0-0.2,0-0.4c-0.1-0.6-0.2-1.3-0.2-1.9c0-0.1,0-0.1,0-0.2c0-0.1,0-0.3,0-0.4c-0.3-2.4-0.4-7-0.4-7
	c0-1.5,0-3.1,0.1-4.7C39.7,76,43,62.1,49.8,47.7c0,0,44.7,4.3,106.5,19.2l20.5-0.2v-0.2l7.7,0.1l7.7-0.1v0.2l20.5,0.2
	c61.8-14.9,106.5-19.2,106.5-19.2c6.9,14.4,10.1,28.3,11.3,40.8c0.1,1.6,0.1,3.2,0.1,4.7C330.6,93.2,330.5,97.8,330.2,100.2z"/>
</svg>
