<?xml version="1.0" encoding="utf-8"?>
<!-- Generator: Adobe Illustrator 21.0.0, SVG Export Plug-In . SVG Version: 6.00 Build 0)  -->
<svg version="1.1" id="Слой_1" xmlns="http://www.w3.org/2000/svg" xmlns:xlink="http://www.w3.org/1999/xlink" x="0px" y="0px"
	 viewBox="0 0 369 186.4" style="enable-background:new 0 0 369 186.4;" xml:space="preserve">
<style type="text/css">
	.st0{fill:#E7F5F8;}
</style>
<polygon class="st0" points="46.6,143.5 46.6,143.5 46.6,143.5 "/>
<rect x="163.4" y="78.4" class="st0" width="3.1" height="29.2"/>
<rect x="202.9" y="78.4" class="st0" width="3.1" height="29.2"/>
<path class="st0" d="M0,0v186.4h369V0H0z M327,128.5c-1.1,3.7-4.7,6.2-8.8,6.1l-94.8-3c-1.7-0.1-3.3-0.6-4.7-1.4l-19.2-12.4
	c-1.5-1-3.4-1.5-5.2-1.4l-3,0.1c-2.6,0.1-10.8,0.1-13.4,0l-3-0.1c-1.9-0.1-3.7,0.5-5.2,1.4l-19.2,12.4c-1.4,0.9-3,1.4-4.7,1.4
	l-94.8,3c-4.1,0.1-7.7-2.4-8.8-6.1c-1.5-13.7-2.2-25.4-2.4-35.3c0.2-9.9,0.9-21.6,2.4-35.3c1.1-3.7,4.7-6.2,8.8-6.1l94.8,3
	c1.7,0.1,3.3,0.6,4.7,1.4l19.2,12.4c1.5,1,3.4,1.5,5.2,1.4l3-0.1c2.6-0.1,10.8-0.1,13.4,0l3,0.1c1.9,0.1,3.7-0.5,5.2-1.4l19.2-12.4
	c1.4-0.9,3-1.4,4.7-1.4l94.8-3c4.1-0.1,7.7,2.4,8.8,6.1c1.5,13.7,2.2,25.4,2.4,35.3C329.2,103.1,328.5,114.8,327,128.5z"/>
</svg>
