<?xml version="1.0" encoding="utf-8"?>
<!-- Generator: Adobe Illustrator 21.0.0, SVG Export Plug-In . SVG Version: 6.00 Build 0)  -->
<svg version="1.1" id="Слой_1" xmlns="http://www.w3.org/2000/svg" xmlns:xlink="http://www.w3.org/1999/xlink" x="0px" y="0px"
	 viewBox="0 0 369 186.4" style="enable-background:new 0 0 369 186.4;" xml:space="preserve">
<style type="text/css">
	.st0{fill:#E7F5F8;}
</style>
<g>
	<path class="st0" d="M0,0v186.4h369V0H0z M333.8,105.1l-30,44.9c-3.8,5.6-10,8.9-16.5,8.9c-1.8,0-3.7-0.3-5.5-0.8
		c-15-4.3-52.3-16.7-77.5-39.9l-4-0.2c-0.3,0-0.6,0-1,0H169c-0.2,0-0.4,0-0.6,0l-3.6,0.2c-25.2,23.2-62.5,35.6-77.5,39.9
		c-1.8,0.5-3.7,0.8-5.5,0.8c-6.5,0-12.8-3.2-16.5-8.9l-30-44.9c-2.2-3.3-3.4-7.2-3.4-11.1c0-2.3,0.4-4.6,1.2-6.8
		c10.8-29.8,25.1-46.6,32.7-54c3.7-3.6,8.7-5.6,13.9-5.6c1.1,0,2.3,0.1,3.4,0.3c43.9,7.7,71.3,27,81.8,35.7c1.3-0.5,2.7-0.8,4.1-0.8
		h30.3c1.5,0,3,0.3,4.3,0.9h0.4c10.4-8.7,37.9-28.1,81.9-35.8c1.1-0.2,2.3-0.3,3.4-0.3h0h0h0l0,0v0c5.1,0,10.1,2,13.9,5.6
		c7.6,7.4,21.9,24.2,32.7,54c0.8,2.2,1.2,4.5,1.2,6.8C337.2,97.9,336,101.8,333.8,105.1z"/>
</g>
<rect x="163.4" y="78.4" class="st0" width="3.1" height="29.2"/>
<rect x="202.9" y="78.4" class="st0" width="3.1" height="29.2"/>
</svg>
