<?xml version="1.0" encoding="utf-8"?>
<!-- Generator: Adobe Illustrator 21.0.0, SVG Export Plug-In . SVG Version: 6.00 Build 0)  -->
<svg version="1.1" id="Слой_1" xmlns="http://www.w3.org/2000/svg" xmlns:xlink="http://www.w3.org/1999/xlink" x="0px" y="0px"
	 viewBox="0 0 369 186.4" style="enable-background:new 0 0 369 186.4;" xml:space="preserve">
<style type="text/css">
	.st0{fill:#E7F5F8;}
</style>
<polygon class="st0" points="46.6,143.5 46.6,143.5 46.6,143.5 "/>
<rect x="163.4" y="78.4" class="st0" width="3.1" height="29.2"/>
<rect x="202.9" y="78.4" class="st0" width="3.1" height="29.2"/>
<path class="st0" d="M0,0v186.4h369V0H0z M328.9,106.9c-2.3,8.2-8.1,19-21.6,29.5c0,0,0.6,2.4-16.7,0c-17.3-2.4-78-14-94.2-14.9
	l-11.8-0.4l-11.8,0.4c-16.2,1-76.9,12.6-94.2,14.9c-17.3,2.4-16.7,0-16.7,0c-13.6-10.6-19.3-21.4-21.6-29.5
	c-2.3-8.2-2.3-18.7-0.3-26.4C42,72.2,47.7,61,61.8,50c0,0-0.6-2.4,16.7,0c17.3,2.4,78,14,94.2,14.9l11.8,0.4l11.8-0.4
	c16.2-1,76.9-12.6,94.2-14.9c17.3-2.4,16.7,0,16.7,0c14.1,11,19.8,22.2,21.9,30.5C331.1,88.1,331.2,98.7,328.9,106.9z"/>
</svg>
