<?xml version="1.0" encoding="utf-8"?>
<!-- Generator: Adobe Illustrator 21.0.0, SVG Export Plug-In . SVG Version: 6.00 Build 0)  -->
<svg version="1.1" id="Слой_1" xmlns="http://www.w3.org/2000/svg" xmlns:xlink="http://www.w3.org/1999/xlink" x="0px" y="0px"
	 viewBox="0 0 369 186.4" style="enable-background:new 0 0 369 186.4;" xml:space="preserve">
<style type="text/css">
	.st0{fill:#E7F5F8;}
</style>
<g>
	<path class="st0" d="M0,0v186.4h369V0H0z M338.3,92.8l-28.4,57.3l-0.2,0.4c-0.4,0.7-1.1,1.2-1.9,1.2c-0.2,0-0.4,0-0.6-0.1
		l-122.4-34c0,0-0.1,0-0.3,0c-0.1,0-0.3,0-0.4,0s-0.3,0-0.4,0c-0.1,0-0.2,0-0.3,0l-122.4,34h0c-0.2,0.1-0.4,0.1-0.6,0.1
		c-0.8,0-1.5-0.4-1.9-1.2L30,92.8c-0.1-0.3-0.2-0.6-0.2-0.9c0-0.3,0.1-0.7,0.2-1l28.5-55c0.4-0.7,1.1-1.2,1.9-1.2
		c0.2,0,0.4,0,0.6,0.1l123.1,36.3l123.1-36.3c0.2-0.1,0.4-0.1,0.6-0.1c0.8,0,1.5,0.4,1.9,1.2l28.5,55l-0.4,0.2l0.4-0.2
		c0.2,0.3,0.2,0.6,0.2,1C338.5,92.2,338.4,92.5,338.3,92.8z"/>
</g>
<rect x="163.4" y="78.4" class="st0" width="3.1" height="29.2"/>
<rect x="202.9" y="78.4" class="st0" width="3.1" height="29.2"/>
</svg>
